<svg xmlns="http://www.w3.org/2000/svg" width="200" height="78" viewBox="0 0 126 32" fill="none">
<path d="M28.8353 11.6392C28.9255 11.8497 29.0098 12.0601 29.0941 12.2706C30.0627 10.8909 30.5646 9.54236 30.4784 8.36143C28.7585 5.28961 26.083 2.85474 22.853 1.42197C22.7598 1.99941 22.5562 2.55375 22.253 3.05501C24.9687 5.10898 27.302 8.07691 28.8353 11.6392ZM17.6041 7.43772C16.383 8.20529 15.101 8.87267 13.7708 9.43323C12.0068 10.1925 10.1607 10.7477 8.26897 11.0877C8.84239 13.5513 9.62155 15.9631 10.5983 18.298C11.4249 18.2203 12.2581 18.2505 13.0767 18.3877C13.2584 18.4313 13.448 18.4313 13.6297 18.3877C13.6297 18.3877 14.3983 18.1012 14.6767 17.9726C14.7336 17.95 14.7846 17.915 14.8261 17.8701C14.8675 17.8253 14.8982 17.7717 14.9159 17.7134C14.993 17.3346 14.9996 16.9449 14.9355 16.5637C14.9355 16.5637 14.6571 15.5893 14.4787 15.069C14.3157 14.9654 14.2002 14.8023 14.1571 14.6149C14.1571 14.6149 13.9218 13.9134 13.8787 13.8043C13.8787 13.8043 13.8395 13.4788 14.0198 13.5022C14.0198 13.5022 13.7787 12.787 13.9395 12.2453C13.9395 12.2453 14.3179 10.6863 15.0767 10.1445C15.0767 10.1445 15.7826 9.72944 16.4492 9.78595C16.8698 9.8187 17.2784 9.94099 17.6472 10.1445C18.4041 10.6863 18.7825 12.2453 18.7825 12.2453C18.9433 12.787 18.7021 13.5022 18.7021 13.5022C18.8825 13.4788 18.8433 13.8043 18.8433 13.8043C18.8021 13.9134 18.5649 14.6052 18.5649 14.6052C18.5198 14.7939 18.4014 14.9572 18.2355 15.0592C18.0609 15.5893 17.7825 16.5637 17.7825 16.5637C17.7184 16.9449 17.725 17.3346 17.8021 17.7134C17.8209 17.7697 17.8519 17.8212 17.8929 17.8643C17.9339 17.9074 17.9839 17.9411 18.0394 17.9629C18.3178 18.0915 19.0864 18.3779 19.0864 18.3779C19.2681 18.4216 19.4577 18.4216 19.6394 18.3779C20.4229 18.2465 21.22 18.2131 22.0119 18.2786C22.2315 18.1499 22.4491 18.0233 22.6609 17.8888C22.2687 16.7546 21.8256 15.601 21.3256 14.4395C20.2882 12.0044 19.0432 9.66195 17.6041 7.43772ZM12.6081 1.81172C11.9733 2.24053 11.2967 2.60482 10.5885 2.89911C9.67828 3.30822 8.71126 3.57888 7.71996 3.70199C7.41016 5.49093 7.58859 7.94634 8.18466 10.7175C10.0529 10.3806 11.8759 9.83138 13.6179 9.08051C14.926 8.52669 16.1858 7.86642 17.3845 7.10644C15.8002 4.74457 14.1473 2.89327 12.6081 1.81172ZM28.8235 12.6467C28.7137 12.3622 28.598 12.0757 28.4764 11.7932C26.9765 8.30686 24.7 5.40129 22.053 3.38825C21.2197 4.66857 19.7962 6.0054 17.9355 7.22726C19.388 9.47399 20.6448 11.8399 21.6923 14.2992C22.1824 15.4392 22.6197 16.5734 23.006 17.69C25.5118 16.1135 27.5176 14.3596 28.8235 12.6467ZM2.99064 11.0292C2.57028 13.6965 2.80986 16.4255 3.68866 18.9801L4.08081 18.9353C4.64747 18.8788 5.5102 18.8534 5.5102 18.8534C6.1847 18.8534 7.39056 18.8924 7.39056 18.8924C7.96242 18.8805 8.53041 18.7961 9.08072 18.641C9.44098 18.5041 9.81503 18.4061 10.1964 18.3487C9.22244 16.0181 8.44335 13.6117 7.86702 11.154C5.97293 11.4404 4.27493 11.4073 2.99064 11.0292ZM31.2431 9.90872C31.1195 9.61836 30.9862 9.3358 30.8509 9.05713C30.7274 10.1913 30.1705 11.4248 29.2549 12.6779C30.0399 14.7535 30.5027 16.9357 30.6274 19.1496C31.1741 19.2547 31.7279 19.3199 32.2842 19.3445C32.8892 16.1663 32.5267 12.8811 31.2431 9.90872ZM23.1373 18.0642L23.3334 18.5319C23.4393 18.565 23.5452 18.6001 23.6491 18.641C24.1945 18.7982 24.7578 18.886 25.3255 18.9022C25.3255 18.9022 26.5314 18.871 27.2039 18.8632C27.2039 18.8632 28.0686 18.8885 28.6333 18.945C28.6333 18.945 29.4725 19.0425 30.2352 19.1165C30.3176 17.8537 29.9882 15.8738 28.9686 13.0618C27.6216 14.7669 25.6118 16.5052 23.1373 18.0642ZM2.65927 10.5031H2.67692C3.09063 8.02624 4.02983 5.78325 5.47294 3.98456C3.70829 5.51729 2.29713 7.41036 1.33576 9.53457C1.6726 9.97863 2.1326 10.3153 2.65927 10.5031ZM22.4746 1.26022C20.1371 0.286725 17.6035 -0.13228 15.0747 0.0364159C17.4512 0.301444 19.8041 1.27971 21.9393 2.81921C22.2257 2.34259 22.4081 1.81143 22.4746 1.26022ZM2.61221 10.9123L2.51221 10.8753C1.99056 10.6782 1.52587 10.3562 1.1593 9.93796C0.0769628 12.5122 -0.285776 16.3259 0.233823 19.3504C0.888606 19.3352 1.54078 19.2628 2.18281 19.1341C2.54358 19.1009 2.95142 19.06 3.29651 19.023C2.37692 16.1135 2.26516 13.8939 2.61221 10.9123ZM7.78467 10.7837C7.19644 8.01845 7.01409 5.56499 7.31801 3.71953C7.11033 3.72168 6.9039 3.68738 6.70821 3.6182C6.61919 3.58034 6.53856 3.52537 6.47096 3.45645C4.66511 5.32724 3.51612 7.82942 3.0573 10.6376C4.28277 11.0176 5.93176 11.0546 7.78467 10.774V10.7837ZM12.9414 1.56812C14.4845 2.68475 16.1335 4.54385 17.7119 6.89597C19.5315 5.69555 20.9334 4.386 21.7354 3.15245C19.308 1.39274 16.5884 0.389138 13.8787 0.35406C13.8617 0.437888 13.8354 0.519584 13.8002 0.597653C13.5968 0.985143 13.3021 1.31807 12.9414 1.56812ZM6.86311 3.24599C7.35526 3.44086 8.74543 3.26353 10.4493 2.5386C11.2135 2.22465 11.9375 1.82169 12.6061 1.33817C13.0591 0.997144 13.3473 0.687295 13.4395 0.459292C13.4693 0.398782 13.4763 0.329609 13.4591 0.264418C13.4538 0.256807 13.4479 0.249637 13.4414 0.242982C12.1844 0.451325 10.9564 0.805831 9.78267 1.2992C8.69053 1.76502 7.65245 2.3472 6.68665 3.03552C6.67934 3.06364 6.67934 3.09315 6.68665 3.12127C6.70584 3.15301 6.73141 3.18048 6.76178 3.20194C6.79215 3.2234 6.82664 3.2384 6.86311 3.24599Z" fill="#006397"/>
<path d="M12.1851 25.8358C12.0439 24.5945 11.8439 22.7549 11.8439 22.7549C11.7202 22.2069 11.3932 21.7254 10.9283 21.4063C10.5793 21.1608 9.53221 21.2368 9.53221 21.2368C8.36557 21.4317 6.95971 21.1082 6.95971 21.1082C6.78128 21.0439 6.00287 20.9133 6.00287 20.9133C5.43231 20.8713 4.86668 20.7786 4.3127 20.6366C4.04228 20.5938 3.76889 20.5723 3.49507 20.5723C3.17926 20.6205 2.86122 20.653 2.54215 20.6697C1.89427 20.776 1.23788 20.8223 0.581397 20.8081C1.15394 22.3671 3.13037 26.9544 7.11069 29.0668L7.36755 28.4354L8.75772 30.0256L6.65188 30.1854L6.94599 29.4254C2.91861 27.311 0.887274 22.7704 0.242188 21.0556V31.6372H12.1106C12.2831 31.076 12.5243 30.4056 12.5243 30.4056C12.7204 29.821 12.6027 28.9733 12.6027 28.9733C12.4243 28.451 12.1851 25.8358 12.1851 25.8358ZM29.8318 20.6697C29.5121 20.6531 29.1934 20.6206 28.877 20.5723C28.6031 20.5723 28.3298 20.5938 28.0593 20.6366C27.5036 20.7803 26.9359 20.8742 26.3633 20.9172C26.3633 20.9172 25.579 21.0439 25.4084 21.1121C25.4084 21.1121 24.0025 21.4336 22.8359 21.2407C22.8359 21.2407 21.7889 21.1647 21.4379 21.4102C20.9736 21.73 20.6469 22.2112 20.5222 22.7588C20.5222 22.7588 20.3261 24.5984 20.181 25.8397C20.181 25.8397 19.9438 28.4471 19.7654 28.983C19.7654 28.983 19.6438 29.8385 19.8438 30.4153C19.8438 30.4153 20.083 31.0857 20.2575 31.6469H21.9732C22.3045 31.53 22.632 31.4053 22.9535 31.2669C25.6833 30.1133 28.0393 28.2324 29.7613 25.8319L28.977 25.411L31.0161 24.002L30.9377 26.4594L30.1142 26.019C28.3475 28.4965 25.9236 30.4381 23.1124 31.6275L23.0653 31.6469H32.2926V20.8022C31.4699 20.8393 30.6456 20.7949 29.8318 20.6697Z" fill="#B67A00"/>
<path d="M45.0346 11.5001C45.0346 9.75905 44.9348 9.31263 43.8668 9.21839L43.1082 9.14895C43.0635 9.11365 43.0274 9.06877 43.0025 9.01767C42.9777 8.96657 42.9648 8.91056 42.9648 8.85381C42.9648 8.79707 42.9777 8.74106 43.0025 8.68996C43.0274 8.63886 43.0635 8.59398 43.1082 8.55868C44.3858 8.43964 45.9978 8.37019 48.1988 8.36523C49.696 8.36523 51.1134 8.47436 52.1914 9.01502C52.7515 9.27264 53.2222 9.68964 53.5438 10.2132C53.8654 10.7368 54.0235 11.3435 53.998 11.9564C53.998 13.6528 52.9999 14.5258 51.5875 15.1855C51.5875 15.4236 51.7771 15.493 52.0367 15.5377C52.9497 15.7114 53.771 16.2016 54.3541 16.9211C54.9373 17.6406 55.2444 18.5426 55.2208 19.4662C55.2208 22.1943 53.1895 24.0345 48.9224 24.0444C48.2387 24.0444 47.0758 23.975 46.0827 23.975C45.0895 23.975 44.2361 24.0296 43.3577 24.0544C43.2863 23.9734 43.2453 23.8704 43.2417 23.7628C43.2381 23.6552 43.272 23.5496 43.3377 23.4641L43.7669 23.3947C45.0196 23.1814 45.0695 22.8986 45.0645 20.4483L45.0346 11.5001ZM46.981 14.63C46.981 15.2897 46.981 15.3343 48.2137 15.2847C50.6293 15.1855 51.9318 14.4812 51.9269 12.264C51.9269 9.95746 50.1951 9.08942 48.3934 9.09438C48.0248 9.07269 47.6555 9.12152 47.3054 9.23823C47.0658 9.30767 46.971 9.42671 46.971 9.84833L46.981 14.63ZM46.981 20.0862C46.981 20.9344 47.0309 22.1348 47.4801 22.6506C47.7223 22.8928 48.0164 23.0775 48.3405 23.1909C48.6645 23.3042 49.0102 23.3434 49.3516 23.3054C51.4577 23.3054 53.0697 22.358 53.0648 20.0019C53.0648 18.1468 52.1115 15.9791 48.3435 15.9891C47.0609 15.9891 46.971 16.1329 46.971 16.5992L46.981 20.0862Z" fill="#005187"/>
<path d="M66.4387 19.1968C66.4387 22.1431 64.4075 24.2611 61.4479 24.2661C60.8019 24.292 60.1576 24.1846 59.5554 23.9507C58.9533 23.7168 58.4064 23.3615 57.9493 22.9071C57.4921 22.4528 57.1346 21.9092 56.8993 21.3108C56.664 20.7123 56.5559 20.0719 56.5819 19.4299C56.5631 18.7631 56.6798 18.0995 56.925 17.4785C57.1702 16.8576 57.5388 16.2923 58.009 15.8162C58.4791 15.3402 59.041 14.9633 59.661 14.7081C60.281 14.4528 60.9465 14.3245 61.6176 14.3308C62.2602 14.3197 62.8983 14.4385 63.4932 14.6801C64.0881 14.9217 64.6274 15.2809 65.0783 15.736C65.5292 16.1911 65.8823 16.7326 66.1162 17.3275C66.35 17.9224 66.4598 18.5584 66.4387 19.1968ZM61.3381 15.0401C59.771 15.0401 58.6132 16.5282 58.6182 19.1174C58.6182 21.2602 59.6163 23.5816 61.6825 23.5816C63.7487 23.5816 64.4025 21.414 64.4025 19.6134C64.3975 17.5847 63.584 15.0451 61.3381 15.05V15.0401Z" fill="#005187"/>
<path d="M76.7201 20.4874C76.7201 22.3474 76.7501 23.2204 77.4138 23.2155C77.7559 23.1813 78.0916 23.1012 78.412 22.9774C78.5817 23.027 78.6066 23.6172 78.412 23.7313C77.3466 23.8912 76.2978 24.1452 75.2778 24.4902C75.1331 24.4902 75.0183 24.4208 75.0133 24.3017V23.9049C75.0309 23.661 75.0158 23.4158 74.9684 23.1758H74.8785C73.8355 23.8801 73.0319 24.2621 71.8841 24.2621C69.2539 24.2621 67.4972 22.2234 67.4922 19.7483C67.4922 16.4547 69.9876 14.3317 73.2166 14.3268C73.7537 14.306 74.2904 14.3765 74.8037 14.5351C74.9235 14.5351 74.9484 14.3913 74.9484 14.2028V10.6463C74.9484 9.25745 74.9484 9.11857 74.2148 8.69695L73.9752 8.5531C73.9176 8.48794 73.8859 8.4042 73.8859 8.3175C73.8859 8.23079 73.9176 8.14704 73.9752 8.08189C74.8531 7.82189 75.7077 7.49007 76.5305 7.08984C76.5798 7.08972 76.6283 7.10307 76.6705 7.12844C76.7128 7.1538 76.7472 7.19022 76.77 7.23369C76.77 7.93804 76.7002 9.11361 76.7002 10.1503L76.7201 20.4874ZM74.9584 16.9607C74.9844 16.6338 74.8924 16.3085 74.6989 16.043C74.4681 15.7333 74.167 15.482 73.8201 15.3096C73.4733 15.1372 73.0904 15.0486 72.7026 15.051C70.5465 15.051 69.4336 16.916 69.4386 18.9646C69.4386 21.1074 70.6563 23.1311 72.977 23.1262C73.6431 23.1195 74.2865 22.8848 74.7987 22.4615C74.9438 22.1965 75.0014 21.8928 74.9634 21.5935L74.9584 16.9607Z" fill="#005187"/>
<path d="M78.7218 28.7706C78.7121 28.6444 78.73 28.5176 78.7742 28.3988C78.8184 28.2801 78.8879 28.1723 78.978 28.0828C79.0681 27.9933 79.1765 27.9242 79.296 27.8802C79.4155 27.8363 79.5431 27.8185 79.6701 27.8282H80.1192C80.2764 27.8338 80.4321 27.7971 80.5701 27.722C80.708 27.6469 80.8229 27.5362 80.9028 27.4016C81.4407 26.576 81.897 25.7006 82.2653 24.7876C82.3901 24.4695 82.469 24.1356 82.4999 23.7955C82.4696 23.2327 82.3325 22.6807 82.0956 22.1686L80.269 17.1142C79.8647 16.008 79.695 15.4426 78.8666 15.2789L78.2727 15.1648C78.1279 15.0457 78.1529 14.644 78.3425 14.5745C79.0961 14.6192 79.8098 14.644 80.5934 14.639C81.2322 14.639 81.896 14.6142 82.6546 14.5696C82.8392 14.639 82.8642 15.0358 82.6995 15.1549L82.1106 15.2739C81.7762 15.3483 81.5865 15.4178 81.5865 15.5815C81.7636 16.3329 81.9903 17.0719 82.2653 17.7937L83.0239 19.9563C83.2143 20.5294 83.4462 21.0881 83.7176 21.6279C84.0549 21.0724 84.3454 20.4901 84.586 19.8869L85.3895 18.0219C85.7547 17.2703 86.0326 16.4798 86.218 15.6658C86.218 15.5021 86.0732 15.3384 85.644 15.269L84.9104 15.1499C84.7457 15.0358 84.7707 14.6539 84.9603 14.5646C85.7189 14.6093 86.4276 14.6291 87.0464 14.6291C87.6653 14.6291 88.1794 14.6291 88.8431 14.5547C88.8881 14.5883 88.9255 14.631 88.9527 14.6799C88.9799 14.7289 88.9964 14.783 89.0012 14.8387C89.0059 14.8944 88.9987 14.9505 88.98 15.0033C88.9614 15.0561 88.9318 15.1044 88.893 15.145L88.4888 15.2144C87.7102 15.3582 87.281 16.0427 86.4925 17.6945L85.1749 20.4077C84.3963 21.9851 82.4599 26.0822 81.3021 28.6516C81.2049 28.9716 81.0071 29.2522 80.7376 29.4522C80.4681 29.6522 80.1412 29.761 79.8048 29.7627C79.6655 29.781 79.5238 29.7687 79.3898 29.7266C79.2558 29.6844 79.1328 29.6135 79.0294 29.5189C78.9261 29.4242 78.845 29.3081 78.7918 29.1788C78.7386 29.0495 78.7148 28.9101 78.7218 28.7706Z" fill="#005187"/>
<path d="M94.6687 20.3578C94.6687 22.8379 94.7236 23.1851 96.0961 23.2992L96.8547 23.3686C96.9944 23.4629 96.9495 23.8647 96.8098 23.9589C95.4573 23.9143 94.6538 23.8895 93.7055 23.8895C92.7573 23.8895 91.9288 23.9192 90.4116 23.9688C90.3719 23.9305 90.3404 23.8846 90.3188 23.8339C90.2973 23.7832 90.2862 23.7287 90.2862 23.6737C90.2862 23.6187 90.2973 23.5642 90.3188 23.5135C90.3404 23.4628 90.3719 23.4169 90.4116 23.3786L91.265 23.3091C92.6125 23.1851 92.7323 22.8131 92.7273 20.3628V9.83719C92.7273 9.10804 92.7273 9.08324 92.0186 9.08324H90.6961C89.6979 9.08324 88.2955 9.08324 87.7815 9.6735C87.3502 10.1622 86.9922 10.7101 86.7184 11.3005C86.5288 11.4443 86.0347 11.3401 86.0996 11.1368C86.414 10.1745 86.7334 8.68146 86.9979 7.62989C86.9979 7.54557 87.3722 7.55549 87.4471 7.62989C87.5868 8.37888 88.3704 8.35905 89.4434 8.35409H99.0407C100.318 8.35409 100.538 8.30449 100.887 7.68942C101.007 7.64478 101.321 7.6547 101.311 7.76382C101.217 8.72114 101.012 10.5862 100.962 11.3401C100.962 11.5485 100.463 11.5286 100.348 11.3897C100.273 10.7995 100.109 9.90167 99.7543 9.66854C99.2054 9.27172 98.307 9.08323 97.0044 9.0882H95.3225C94.6089 9.0882 94.6338 9.113 94.6388 9.89175L94.6687 20.3578Z" fill="#005187"/>
<path d="M103.331 18.9996C103.686 18.8856 103.731 18.6723 103.731 18.3201V17.2338C103.731 16.3658 103.466 15.1852 101.999 15.1902C101.335 15.1902 100.502 15.5225 100.502 16.2517C100.502 16.6287 100.457 16.9114 100.267 17.0503C99.8714 17.3274 99.4032 17.4843 98.9195 17.5017C98.8747 17.5071 98.8292 17.5025 98.7864 17.4881C98.7437 17.4736 98.7048 17.4498 98.6726 17.4183C98.6405 17.3868 98.6159 17.3485 98.6007 17.3063C98.5856 17.264 98.5802 17.2189 98.5851 17.1743C98.5851 15.9491 101.255 14.2726 102.987 14.2676C104.719 14.2626 105.522 15.2596 105.452 17.0205L105.318 21.1176C105.273 22.199 105.487 23.1662 106.411 23.1612C106.617 23.16 106.82 23.1125 107.005 23.0224C107.124 22.948 107.239 22.8537 107.314 22.8537C107.389 22.8537 107.479 22.9976 107.479 23.1612C107.251 23.4784 106.952 23.738 106.606 23.9189C106.259 24.0999 105.874 24.1972 105.482 24.2029C105.186 24.2093 104.892 24.1467 104.624 24.0201C104.356 23.8935 104.122 23.7064 103.94 23.4737C103.845 23.3299 103.701 23.1464 103.561 23.1464C103.231 23.2573 102.92 23.4161 102.638 23.6176C102.131 23.9597 101.542 24.1633 100.931 24.2079C100.331 24.2361 99.7419 24.0456 99.2738 23.6721C99.0405 23.4652 98.854 23.2114 98.7267 22.9275C98.5994 22.6436 98.5341 22.3362 98.5352 22.0254C98.5352 21.1077 98.9843 20.5621 100.502 20.0413L103.331 18.9996ZM101.869 23.1662C102.399 23.1183 102.901 22.9126 103.311 22.5759C103.596 22.2932 103.596 21.9658 103.621 21.4698L103.666 20.081C103.666 19.823 103.571 19.7734 103.426 19.7734C103.095 19.8157 102.77 19.8956 102.458 20.0115C101.061 20.5075 100.372 20.8399 100.372 21.7575C100.374 21.9488 100.414 22.1377 100.491 22.313C100.568 22.4883 100.68 22.6464 100.819 22.7779C100.959 22.9094 101.124 23.0115 101.304 23.0782C101.485 23.145 101.677 23.1749 101.869 23.1662Z" fill="#005187"/>
<path d="M111.212 21.2255C111.212 22.9219 111.267 23.155 112.121 23.2691L112.685 23.3385C112.722 23.3795 112.751 23.4276 112.769 23.4801C112.787 23.5325 112.795 23.588 112.79 23.6433C112.786 23.6986 112.771 23.7524 112.745 23.8015C112.719 23.8506 112.683 23.8939 112.64 23.9288C111.861 23.8841 111.173 23.8593 110.344 23.8643C109.516 23.8693 108.782 23.8891 108.068 23.9387C108.026 23.9034 107.991 23.86 107.965 23.8111C107.94 23.7623 107.924 23.7088 107.919 23.6539C107.915 23.599 107.921 23.5438 107.938 23.4913C107.955 23.4389 107.982 23.3903 108.018 23.3484L108.562 23.279C109.441 23.16 109.466 22.9219 109.461 21.2255V10.5858C109.461 9.19698 109.431 9.05809 108.722 8.63152L108.483 8.49263C108.426 8.42701 108.395 8.34344 108.395 8.25702C108.395 8.17061 108.426 8.08703 108.483 8.02141C109.36 7.76088 110.215 7.42908 111.038 7.02937C111.087 7.02822 111.135 7.04059 111.177 7.06511C111.22 7.08963 111.254 7.12534 111.277 7.16826C111.252 7.87757 111.208 9.05313 111.212 10.0898V21.2255Z" fill="#005187"/>
<path d="M115.206 10.5774C115.206 9.18858 115.176 9.04969 114.468 8.62311L114.228 8.48423C114.164 8.41765 114.127 8.32874 114.127 8.23622C114.127 8.1437 114.164 8.05478 114.228 7.98821C115.106 7.72684 115.96 7.39507 116.784 6.99617C116.832 6.99501 116.881 7.00739 116.923 7.03191C116.965 7.05643 117 7.09213 117.023 7.13505C116.998 7.84436 116.953 9.01994 116.958 10.0566V18.1318C116.958 18.4394 116.983 18.484 117.387 18.484C117.886 18.484 118.361 18.2211 118.994 17.5614L119.968 16.5247C120.626 15.8154 120.791 15.5575 120.791 15.4434C120.791 15.3293 120.676 15.2549 120.292 15.2053L119.723 15.1359C119.508 15.0664 119.508 14.6398 119.723 14.5456H120.267C121.524 14.5459 122.78 14.4814 124.03 14.3521C124.2 14.4216 124.225 14.8234 124.08 14.9424L123.321 15.0813C122.76 15.2278 122.245 15.5127 121.824 15.9097C120.901 16.6438 120.097 17.492 119.673 17.8937C119.384 18.1517 119.364 18.2707 119.503 18.4542C120 19.11 120.532 19.7391 121.096 20.3391C122.024 21.3708 122.852 22.2885 123.326 22.7349C123.682 23.0133 124.109 23.1853 124.559 23.2309L124.894 23.2805C125.058 23.3946 125.033 23.7765 124.844 23.8658C124.16 23.8212 123.346 23.7964 122.593 23.8013C121.65 23.8013 120.816 23.8013 120.132 23.8757C120.087 23.8421 120.05 23.7995 120.023 23.7505C119.996 23.7016 119.979 23.6475 119.974 23.5917C119.97 23.536 119.977 23.4799 119.995 23.4271C120.014 23.3743 120.044 23.3261 120.082 23.2855L120.507 23.216C120.866 23.1664 121.101 23.1218 121.101 22.9779C121.101 22.8341 121.006 22.6704 120.696 22.3182L118.156 19.4066C118.065 19.3016 117.953 19.2174 117.826 19.16C117.699 19.1026 117.562 19.0734 117.422 19.0743C116.998 19.0743 116.973 19.1487 116.973 19.8778V21.1724C116.973 22.8688 117.028 23.1019 117.881 23.221L118.45 23.2904C118.486 23.3319 118.513 23.3801 118.53 23.4321C118.547 23.4841 118.554 23.539 118.549 23.5935C118.544 23.648 118.529 23.701 118.503 23.7495C118.478 23.7979 118.443 23.8408 118.401 23.8757C117.622 23.8311 116.933 23.8113 116.105 23.8113C115.276 23.8113 114.543 23.8361 113.829 23.8857C113.786 23.8502 113.75 23.8061 113.725 23.7562C113.7 23.7063 113.686 23.6518 113.684 23.5961C113.682 23.5404 113.691 23.4848 113.712 23.433C113.732 23.3812 113.764 23.3343 113.804 23.2954L114.328 23.226C115.201 23.1069 115.226 22.8688 115.221 21.1774L115.206 10.5774Z" fill="#005187"/>
<path d="M119.232 6.44986H118.469V6.0332H120.465V6.44986H119.696V8.50834H119.242L119.232 6.44986ZM121.039 6.0332H121.748L122.401 7.70479L123.04 6.0332H123.744V8.5133H123.29V6.62346L122.591 8.5133H122.192L121.493 6.62346V8.5133H121.034L121.039 6.0332Z" fill="#005187"/>
</svg>