<svg width="167" height="213" viewBox="0 0 167 213" fill="none" xmlns="http://www.w3.org/2000/svg">
<g clip-path="url(#clip0)">
<path d="M6.40003 175.48C6.40003 171.97 6.20003 171.07 4.06003 170.88L2.54003 170.74C2.45047 170.669 2.37814 170.578 2.32841 170.475C2.27869 170.372 2.25287 170.259 2.25287 170.145C2.25287 170.031 2.27869 169.918 2.32841 169.815C2.37814 169.712 2.45047 169.621 2.54003 169.55C5.10003 169.31 8.33003 169.17 12.74 169.16C15.74 169.16 18.58 169.38 20.74 170.47C21.8624 170.989 22.8055 171.83 23.4499 172.886C24.0943 173.941 24.411 175.164 24.36 176.4C24.36 179.82 22.36 181.58 19.53 182.91C19.53 183.39 19.91 183.53 20.43 183.62C22.2595 183.97 23.9051 184.959 25.0736 186.409C26.2421 187.86 26.8575 189.678 26.81 191.54C26.81 197.04 22.74 200.75 14.19 200.77C12.82 200.77 10.49 200.63 8.50003 200.63C6.51003 200.63 4.80003 200.74 3.04003 200.79C2.89701 200.627 2.81489 200.419 2.8076 200.202C2.8003 199.985 2.8683 199.773 3.00003 199.6L3.86003 199.46C6.37003 199.03 6.47003 198.46 6.46003 193.52L6.40003 175.48ZM10.3 181.79C10.3 183.12 10.3 183.21 12.77 183.11C17.61 182.91 20.22 181.49 20.21 177.02C20.21 172.37 16.74 170.62 13.13 170.63C12.3915 170.586 11.6514 170.685 10.95 170.92C10.47 171.06 10.28 171.3 10.28 172.15L10.3 181.79ZM10.3 192.79C10.3 194.5 10.4 196.92 11.3 197.96C11.7853 198.448 12.3746 198.821 13.024 199.049C13.6733 199.278 14.3659 199.357 15.05 199.28C19.27 199.28 22.5 197.37 22.49 192.62C22.49 188.88 20.58 184.51 13.03 184.53C10.46 184.53 10.28 184.82 10.28 185.76L10.3 192.79Z" fill="white"/>
<path d="M49.29 191C49.29 196.94 45.22 201.21 39.29 201.22C37.9957 201.272 36.7046 201.056 35.498 200.584C34.2915 200.113 33.1957 199.396 32.2797 198.48C31.3638 197.564 30.6474 196.469 30.1759 195.262C29.7044 194.055 29.4879 192.764 29.54 191.47C29.5023 190.126 29.7361 188.788 30.2274 187.536C30.7187 186.284 31.4574 185.144 32.3994 184.185C33.3413 183.225 34.4672 182.465 35.7096 181.951C36.9519 181.436 38.2853 181.177 39.63 181.19C40.9175 181.168 42.1961 181.407 43.3881 181.894C44.5801 182.381 45.6607 183.106 46.5642 184.023C47.4677 184.941 48.1752 186.032 48.6438 187.232C49.1124 188.431 49.3322 189.713 49.29 191ZM39.07 182.62C35.93 182.62 33.61 185.62 33.62 190.84C33.62 195.16 35.62 199.84 39.76 199.84C43.9 199.84 45.21 195.47 45.21 191.84C45.2 187.75 43.57 182.63 39.07 182.64V182.62Z" fill="white"/>
<path d="M69.89 193.6C69.89 197.35 69.95 199.11 71.28 199.1C71.9653 199.031 72.6381 198.87 73.28 198.62C73.62 198.72 73.67 199.91 73.28 200.14C71.1454 200.462 69.0437 200.974 67 201.67C66.71 201.67 66.48 201.53 66.47 201.29V200.49C66.5053 199.998 66.4751 199.504 66.38 199.02H66.2C64.11 200.44 62.5 201.21 60.2 201.21C54.93 201.21 51.41 197.1 51.4 192.11C51.4 185.47 56.4 181.19 62.87 181.18C63.9462 181.138 65.0216 181.28 66.05 181.6C66.29 181.6 66.34 181.31 66.34 180.93V173.76C66.34 170.96 66.34 170.68 64.87 169.83L64.39 169.54C64.2747 169.409 64.2111 169.24 64.2111 169.065C64.2111 168.89 64.2747 168.721 64.39 168.59C66.149 168.066 67.8615 167.397 69.51 166.59C69.6089 166.59 69.706 166.617 69.7906 166.668C69.8753 166.719 69.9442 166.792 69.99 166.88C69.99 168.3 69.85 170.67 69.85 172.76L69.89 193.6ZM66.36 186.49C66.4121 185.831 66.2278 185.175 65.84 184.64C65.3776 184.016 64.7743 183.509 64.0793 183.162C63.3843 182.814 62.6171 182.635 61.84 182.64C57.52 182.64 55.29 186.4 55.3 190.53C55.3 194.85 57.74 198.93 62.39 198.92C63.7246 198.907 65.0138 198.433 66.04 197.58C66.3308 197.046 66.4463 196.434 66.37 195.83L66.36 186.49Z" fill="white"/>
<path d="M73.9 210.3C73.8805 210.046 73.9163 209.79 74.0049 209.55C74.0935 209.311 74.2328 209.094 74.4133 208.913C74.5937 208.733 74.8111 208.593 75.0505 208.505C75.2898 208.416 75.5455 208.381 75.8 208.4H76.7C77.0149 208.411 77.327 208.337 77.6033 208.186C77.8796 208.035 78.11 207.811 78.27 207.54C79.3478 205.875 80.2621 204.111 81 202.27C81.2501 201.629 81.4083 200.955 81.47 200.27C81.4095 199.135 81.1347 198.022 80.66 196.99L77 186.8C76.19 184.57 75.85 183.43 74.19 183.1L73 182.87C72.71 182.63 72.76 181.82 73.14 181.68C74.65 181.77 76.08 181.82 77.65 181.81C78.93 181.81 80.26 181.76 81.78 181.67C82.15 181.81 82.2 182.61 81.87 182.85L80.69 183.09C80.02 183.24 79.64 183.38 79.64 183.71C79.9947 185.225 80.4491 186.715 81 188.17L82.52 192.53C82.9016 193.685 83.3662 194.812 83.91 195.9C84.5859 194.78 85.1679 193.606 85.65 192.39L87.26 188.63C87.9917 187.115 88.5487 185.521 88.92 183.88C88.92 183.55 88.63 183.22 87.77 183.08L86.3 182.84C85.97 182.61 86.02 181.84 86.4 181.66C87.92 181.75 89.34 181.79 90.58 181.79C91.82 181.79 92.85 181.79 94.18 181.64C94.2702 181.708 94.345 181.794 94.3996 181.892C94.4541 181.991 94.4872 182.1 94.4967 182.213C94.5061 182.325 94.4917 182.438 94.4543 182.544C94.417 182.651 94.3576 182.748 94.28 182.83L93.47 182.97C91.91 183.26 91.05 184.64 89.47 187.97L86.83 193.44C85.27 196.62 81.39 204.88 79.07 210.06C78.8753 210.705 78.4789 211.271 77.9389 211.674C77.3989 212.077 76.7439 212.297 76.07 212.3C75.7909 212.337 75.507 212.312 75.2385 212.227C74.97 212.142 74.7234 211.999 74.5164 211.809C74.3093 211.618 74.1467 211.384 74.0402 211.123C73.9337 210.862 73.8858 210.581 73.9 210.3Z" fill="white"/>
<path d="M105.85 193.34C105.85 198.34 105.96 199.04 108.71 199.27L110.23 199.41C110.51 199.6 110.42 200.41 110.14 200.6C107.43 200.51 105.82 200.46 103.92 200.46C102.02 200.46 100.36 200.52 97.32 200.62C97.2405 200.543 97.1773 200.45 97.1341 200.348C97.0909 200.246 97.0687 200.136 97.0687 200.025C97.0687 199.914 97.0909 199.804 97.1341 199.702C97.1773 199.6 97.2405 199.507 97.32 199.43L99.03 199.29C101.73 199.04 101.97 198.29 101.96 193.35V172.13C101.96 170.66 101.96 170.61 100.54 170.61H97.89C95.89 170.61 93.08 170.61 92.05 171.8C91.1859 172.785 90.4685 173.89 89.92 175.08C89.54 175.37 88.55 175.16 88.68 174.75C89.31 172.81 89.95 169.8 90.48 167.68C90.48 167.51 91.23 167.53 91.38 167.68C91.66 169.19 93.23 169.15 95.38 169.14H114.61C117.17 169.14 117.61 169.04 118.31 167.8C118.55 167.71 119.18 167.73 119.16 167.95C118.97 169.88 118.56 173.64 118.46 175.16C118.46 175.58 117.46 175.54 117.23 175.26C117.08 174.07 116.75 172.26 116.04 171.79C114.94 170.99 113.14 170.61 110.53 170.62H107.16C105.73 170.62 105.78 170.67 105.79 172.24L105.85 193.34Z" fill="white"/>
<path d="M123.21 190.6C123.92 190.37 124.01 189.94 124.01 189.23V187.04C124.01 185.29 123.48 182.91 120.54 182.92C119.21 182.92 117.54 183.59 117.54 185.06C117.54 185.82 117.45 186.39 117.07 186.67C116.277 187.229 115.339 187.545 114.37 187.58C114.28 187.591 114.189 187.582 114.103 187.553C114.018 187.524 113.94 187.476 113.875 187.412C113.811 187.349 113.762 187.271 113.731 187.186C113.701 187.101 113.69 187.01 113.7 186.92C113.7 184.45 119.05 181.07 122.52 181.06C125.99 181.05 127.6 183.06 127.46 186.61L127.19 194.87C127.1 197.05 127.53 199 129.38 198.99C129.793 198.988 130.199 198.892 130.57 198.71C130.81 198.56 131.04 198.37 131.19 198.37C131.34 198.37 131.52 198.66 131.52 198.99C131.065 199.63 130.466 200.153 129.771 200.518C129.076 200.882 128.305 201.079 127.52 201.09C126.926 201.103 126.337 200.977 125.801 200.722C125.264 200.466 124.795 200.089 124.43 199.62C124.24 199.33 123.95 198.96 123.67 198.96C123.01 199.184 122.386 199.504 121.82 199.91C120.804 200.6 119.625 201.01 118.4 201.1C117.199 201.157 116.018 200.773 115.08 200.02C114.613 199.603 114.239 199.091 113.984 198.519C113.729 197.947 113.598 197.327 113.6 196.7C113.6 194.85 114.5 193.75 117.54 192.7L123.21 190.6ZM120.28 199C121.341 198.904 122.349 198.489 123.17 197.81C123.74 197.24 123.74 196.58 123.79 195.58L123.88 192.78C123.88 192.26 123.69 192.16 123.4 192.16C122.737 192.245 122.086 192.406 121.46 192.64C118.66 193.64 117.28 194.31 117.28 196.16C117.284 196.546 117.365 196.927 117.519 197.28C117.673 197.633 117.897 197.952 118.177 198.217C118.457 198.482 118.787 198.688 119.149 198.823C119.51 198.957 119.895 199.018 120.28 199Z" fill="white"/>
<path d="M139 195.09C139 198.51 139.11 198.98 140.82 199.21L141.95 199.35C142.025 199.433 142.083 199.53 142.119 199.635C142.156 199.741 142.17 199.853 142.162 199.964C142.153 200.076 142.122 200.184 142.07 200.283C142.019 200.382 141.947 200.47 141.86 200.54C140.3 200.45 138.92 200.4 137.26 200.41C135.6 200.42 134.13 200.46 132.7 200.56C132.615 200.489 132.545 200.401 132.493 200.303C132.442 200.204 132.411 200.097 132.402 199.986C132.392 199.875 132.405 199.764 132.439 199.658C132.473 199.552 132.528 199.454 132.6 199.37L133.69 199.23C135.45 198.99 135.5 198.51 135.49 195.09V173.64C135.49 170.84 135.43 170.56 134.01 169.7L133.53 169.42C133.417 169.288 133.354 169.119 133.354 168.945C133.354 168.771 133.417 168.602 133.53 168.47C135.289 167.945 137.001 167.276 138.65 166.47C138.748 166.468 138.845 166.493 138.93 166.542C139.014 166.591 139.084 166.663 139.13 166.75C139.08 168.18 138.99 170.55 139 172.64V195.09Z" fill="white"/>
<path d="M147 173.62C147 170.82 146.94 170.54 145.52 169.68L145.04 169.4C144.91 169.266 144.838 169.087 144.838 168.9C144.838 168.714 144.91 168.534 145.04 168.4C146.798 167.873 148.51 167.204 150.16 166.4C150.258 166.398 150.355 166.423 150.44 166.472C150.524 166.522 150.594 166.594 150.64 166.68C150.59 168.11 150.5 170.48 150.51 172.57V188.85C150.51 189.47 150.56 189.56 151.37 189.56C152.37 189.56 153.32 189.03 154.59 187.7L156.54 185.61C157.86 184.18 158.19 183.66 158.19 183.43C158.19 183.2 157.96 183.05 157.19 182.95L156.05 182.81C155.62 182.67 155.62 181.81 156.05 181.62H157.14C159.658 181.621 162.175 181.491 164.68 181.23C165.02 181.37 165.07 182.18 164.78 182.42L163.26 182.7C162.135 182.995 161.104 183.57 160.26 184.37C158.41 185.85 156.8 187.56 155.95 188.37C155.37 188.89 155.33 189.13 155.61 189.5C156.606 190.822 157.671 192.09 158.8 193.3C160.66 195.38 162.32 197.23 163.27 198.13C163.982 198.691 164.838 199.038 165.74 199.13L166.41 199.23C166.74 199.46 166.69 200.23 166.31 200.41C164.94 200.32 163.31 200.27 161.8 200.28C159.91 200.28 158.24 200.28 156.87 200.43C156.78 200.362 156.705 200.276 156.65 200.178C156.596 200.079 156.563 199.97 156.553 199.857C156.544 199.745 156.558 199.632 156.596 199.526C156.633 199.419 156.692 199.322 156.77 199.24L157.62 199.1C158.34 199 158.81 198.91 158.81 198.62C158.81 198.33 158.62 198 158 197.29L152.91 191.42C152.728 191.208 152.503 191.039 152.249 190.923C151.995 190.807 151.719 190.748 151.44 190.75C150.59 190.75 150.54 190.9 150.54 192.37V194.98C150.54 198.4 150.65 198.87 152.36 199.11L153.5 199.25C153.572 199.334 153.626 199.431 153.66 199.536C153.694 199.641 153.707 199.751 153.697 199.861C153.688 199.971 153.657 200.078 153.606 200.175C153.555 200.273 153.485 200.36 153.4 200.43C151.84 200.34 150.46 200.3 148.8 200.3C147.14 200.3 145.67 200.35 144.24 200.45C144.153 200.379 144.083 200.29 144.033 200.189C143.982 200.089 143.954 199.978 143.949 199.866C143.945 199.754 143.964 199.642 144.005 199.538C144.047 199.433 144.11 199.339 144.19 199.26L145.24 199.12C146.99 198.88 147.04 198.4 147.03 194.99L147 173.62Z" fill="white"/>
<path d="M147.06 59.73C147.52 60.81 147.95 61.89 148.38 62.97C153.32 55.89 155.88 48.97 155.44 42.91C146.668 27.1469 133.023 14.6523 116.55 7.30004C116.075 10.2632 115.036 13.1078 113.49 15.68C127.34 26.22 139.24 41.45 147.06 59.73ZM89.78 38.17C83.5524 42.1088 77.0141 45.5335 70.23 48.41C61.2331 52.3063 51.8179 55.1551 42.17 56.9C45.0945 69.5422 49.0683 81.9184 54.05 93.9C58.2654 93.5013 62.5148 93.656 66.69 94.36C67.6167 94.5841 68.5834 94.5841 69.51 94.36C69.51 94.36 73.43 92.8901 74.85 92.23C75.1402 92.1142 75.4006 91.9345 75.6118 91.7043C75.823 91.474 75.9796 91.1991 76.07 90.9C76.4631 88.956 76.497 86.9563 76.17 85C76.17 85 74.75 80 73.84 77.33C73.0088 76.7986 72.4198 75.9618 72.2 75C72.2 75 71 71.4 70.78 70.84C70.78 70.84 70.58 69.17 71.5 69.29C71.5 69.29 70.27 65.62 71.09 62.84C71.09 62.84 73.02 54.84 76.89 52.06C76.89 52.06 80.49 49.93 83.89 50.22C86.0351 50.3881 88.1189 51.0156 90 52.06C93.86 54.84 95.79 62.84 95.79 62.84C96.61 65.62 95.38 69.29 95.38 69.29C96.3 69.17 96.1 70.84 96.1 70.84C95.89 71.4 94.68 74.95 94.68 74.95C94.4504 75.9184 93.8463 76.7563 93 77.28C92.11 80 90.69 85 90.69 85C90.363 86.9563 90.3969 88.956 90.79 90.9C90.8858 91.1889 91.0438 91.4533 91.2528 91.6744C91.4619 91.8956 91.717 92.0682 92 92.18C93.42 92.84 97.34 94.31 97.34 94.31C98.2667 94.5341 99.2334 94.5341 100.16 94.31C104.156 93.6355 108.221 93.4641 112.26 93.8C113.38 93.14 114.49 92.4901 115.57 91.8C113.57 85.98 111.31 80.06 108.76 74.1C103.469 61.6042 97.1194 49.5837 89.78 38.17ZM64.3 9.30004C61.0623 11.5005 57.6117 13.3699 54 14.88C49.3576 16.9794 44.4257 18.3683 39.37 19C37.79 28.18 38.7 40.78 41.74 55C51.2682 53.2717 60.5659 50.4532 69.45 46.6C76.1214 43.7581 82.5466 40.3699 88.66 36.47C80.58 24.35 72.15 14.85 64.3 9.30004ZM147 64.9C146.44 63.44 145.85 61.97 145.23 60.52C137.58 42.63 125.97 27.72 112.47 17.39C108.22 23.96 100.96 30.82 91.47 37.09C98.8782 48.6192 105.288 60.76 110.63 73.38C113.13 79.23 115.36 85.05 117.33 90.78C130.11 82.69 140.34 73.69 147 64.9ZM15.25 56.6C13.1062 70.2874 14.328 84.2909 18.81 97.4L20.81 97.17C23.7 96.88 28.1 96.75 28.1 96.75C31.54 96.75 37.69 96.95 37.69 96.95C40.6066 96.8891 43.5034 96.4556 46.31 95.66C48.1474 94.9574 50.055 94.4545 52 94.16C47.0328 82.2005 43.0593 69.8521 40.12 57.24C30.46 58.71 21.8 58.54 15.25 56.6ZM159.34 50.85C158.71 49.36 158.03 47.91 157.34 46.48C156.71 52.3 153.87 58.63 149.2 65.06C153.204 75.7111 155.564 86.9092 156.2 98.27C158.988 98.8094 161.813 99.1436 164.65 99.27C167.735 82.9612 165.887 66.1026 159.34 50.85ZM118 92.7L119 95.1C119.54 95.27 120.08 95.4501 120.61 95.66C123.392 96.4667 126.265 96.9169 129.16 97C129.16 97 135.31 96.84 138.74 96.8C138.74 96.8 143.15 96.93 146.03 97.22C146.03 97.22 150.31 97.72 154.2 98.1C154.62 91.62 152.94 81.46 147.74 67.03C140.87 75.78 130.62 84.7 118 92.7ZM13.56 53.9H13.65C15.76 41.19 20.55 29.68 27.91 20.45C18.9101 28.3153 11.7131 38.0296 6.81002 48.93C8.52793 51.2088 10.874 52.9362 13.56 53.9ZM114.62 6.47004C102.698 1.47451 89.777 -0.675622 76.88 0.190043C89 1.55004 101 6.57004 111.89 14.47C113.351 12.0242 114.281 9.2986 114.62 6.47004ZM13.32 56L12.81 55.81C10.1495 54.7984 7.77957 53.1463 5.91002 51C0.390015 64.21 -1.45998 83.78 1.19002 99.3C4.52947 99.222 7.85561 98.8506 11.13 98.19C12.97 98.0201 15.05 97.8101 16.81 97.62C12.12 82.69 11.55 71.3 13.32 56ZM39.7 55.34C36.7 41.15 35.77 28.56 37.32 19.09C36.2608 19.1011 35.208 18.925 34.21 18.57C33.756 18.3758 33.3448 18.0937 33 17.74C23.79 27.34 17.93 40.18 15.59 54.59C21.84 56.54 30.25 56.73 39.7 55.29V55.34ZM66 8.05004C73.87 13.78 82.28 23.32 90.33 35.39C99.61 29.23 106.76 22.51 110.85 16.18C98.47 7.15004 84.6 2.00004 70.78 1.82004C70.6933 2.25021 70.5591 2.66943 70.38 3.07004C69.3422 5.05846 67.8397 6.76687 66 8.05004ZM35 16.66C37.51 17.66 44.6 16.75 53.29 13.03C57.1874 11.419 60.8799 9.35124 64.29 6.87004C66.6 5.12004 68.07 3.53004 68.54 2.36004C68.6924 2.04954 68.7279 1.69457 68.64 1.36004C68.6131 1.32098 68.583 1.28419 68.55 1.25004C62.1391 2.31916 55.8761 4.13831 49.89 6.67004C44.32 9.0604 39.0257 12.0479 34.1 15.58C34.0628 15.7243 34.0628 15.8757 34.1 16.02C34.1979 16.1829 34.3283 16.3239 34.4832 16.434C34.6381 16.5441 34.814 16.6211 35 16.66Z" fill="white"/>
<path d="M62.15 132.58C61.43 126.21 60.41 116.77 60.41 116.77C59.7788 113.958 58.1114 111.488 55.74 109.85C53.96 108.59 48.62 108.98 48.62 108.98C42.67 109.98 35.5 108.32 35.5 108.32C34.59 107.99 30.62 107.32 30.62 107.32C27.7101 107.104 24.8253 106.629 22 105.9C20.6208 105.681 19.2265 105.57 17.83 105.57C16.2193 105.818 14.5973 105.985 12.97 106.07C9.66578 106.615 6.31811 106.853 2.96999 106.78C5.88999 114.78 15.97 138.32 36.27 149.16L37.58 145.92L44.67 154.08L33.93 154.9L35.43 151C14.89 140.15 4.52999 116.85 1.23999 108.05V162.35H61.77C62.65 159.47 63.88 156.03 63.88 156.03C64.88 153.03 64.28 148.68 64.28 148.68C63.37 146 62.15 132.58 62.15 132.58ZM152.15 106.07C150.519 105.985 148.894 105.818 147.28 105.57C145.883 105.57 144.489 105.681 143.11 105.9C140.275 106.638 137.381 107.12 134.46 107.34C134.46 107.34 130.46 107.99 129.59 108.34C129.59 108.34 122.42 109.99 116.47 109C116.47 109 111.13 108.61 109.34 109.87C106.972 111.511 105.306 113.98 104.67 116.79C104.67 116.79 103.67 126.23 102.93 132.6C102.93 132.6 101.72 145.98 100.81 148.73C100.81 148.73 100.19 153.12 101.21 156.08C101.21 156.08 102.43 159.52 103.32 162.4H112.07C113.76 161.8 115.43 161.16 117.07 160.45C130.992 154.53 143.008 144.878 151.79 132.56L147.79 130.4L158.19 123.17L157.79 135.78L153.59 133.52C144.58 146.234 132.218 156.197 117.88 162.3L117.64 162.4H164.7V106.75C160.504 106.94 156.3 106.713 152.15 106.07Z" fill="white"/>
<path d="M154.66 165.3H153.12V164.46H157.12V165.3H155.59V169.45H154.68L154.66 165.3ZM158.28 164.46H159.69L161 167.83L162.28 164.46H163.7V169.46H162.79V165.65L161.39 169.46H160.65L159.24 165.65V169.46H158.33L158.28 164.46Z" fill="white"/>
</g>
<defs>
<clipPath id="clip0">
<rect width="166.61" height="212.34" fill="white"/>
</clipPath>
</defs>
</svg>
