<svg width="174" height="218" viewBox="0 0 174 218" fill="none" xmlns="http://www.w3.org/2000/svg">
<g clip-path="url(#clip0)">
<path d="M158.68 171.71H157.14V170.87H161.14V171.71H159.6V175.86H158.69L158.68 171.71ZM162.3 170.87H163.72L165.02 174.24L166.31 170.87H167.72V175.87H166.81V172L165.4 175.82H164.66L163.26 172V175.82H162.35L162.3 170.87Z" fill="white"/>
<path d="M10.33 179.52C10.33 176.02 10.13 175.12 8 174.94L6.49 174.8C6.40044 174.729 6.3281 174.638 6.27838 174.535C6.22866 174.432 6.20284 174.319 6.20284 174.205C6.20284 174.091 6.22866 173.978 6.27838 173.875C6.3281 173.772 6.40044 173.681 6.49 173.61C9.04 173.37 12.26 173.23 16.66 173.22C19.66 173.22 22.48 173.45 24.66 174.53C25.7787 175.047 26.7184 175.885 27.3595 176.937C28.0006 177.989 28.314 179.209 28.26 180.44C28.26 183.84 26.26 185.6 23.45 186.93C23.45 187.4 23.83 187.54 24.35 187.63C26.1723 187.982 27.8105 188.969 28.9733 190.416C30.1361 191.862 30.7479 193.675 30.7 195.53C30.7 201.01 26.65 204.71 18.13 204.72C16.76 204.72 14.44 204.59 12.45 204.59C10.46 204.59 8.77 204.69 7.01 204.74C6.85677 204.586 6.76349 204.383 6.74699 204.167C6.73049 203.95 6.79185 203.735 6.92 203.56L7.77 203.42C10.28 202.99 10.37 202.47 10.36 197.5L10.33 179.52ZM14.22 185.81C14.22 187.13 14.22 187.23 16.68 187.13C21.51 186.93 24.11 185.51 24.1 181.06C24.1 176.42 20.64 174.68 17.04 174.68C16.3017 174.641 15.5626 174.74 14.86 174.97C14.39 175.11 14.2 175.35 14.2 176.2L14.22 185.81ZM14.22 196.81C14.22 198.52 14.32 200.93 15.22 201.97C15.7122 202.456 16.3078 202.824 16.9623 203.048C17.6169 203.271 18.3135 203.344 19 203.26C23.21 203.26 26.43 201.35 26.42 196.62C26.42 192.88 24.51 188.53 16.99 188.55C14.43 188.55 14.25 188.84 14.25 189.78L14.22 196.81Z" fill="white"/>
<path d="M53.08 195C53.08 200.92 49.08 205.18 43.08 205.19C41.7895 205.241 40.5025 205.024 39.3001 204.553C38.0977 204.081 37.006 203.366 36.0937 202.452C35.1815 201.538 34.4685 200.445 33.9997 199.241C33.5309 198.038 33.3165 196.75 33.37 195.46C33.3294 194.12 33.5605 192.786 34.0495 191.537C34.5385 190.289 35.2753 189.153 36.2153 188.197C37.1553 187.241 38.2792 186.485 39.5191 185.975C40.7591 185.465 42.0894 185.212 43.43 185.23C44.7151 185.202 45.9924 185.437 47.1838 185.919C48.3751 186.402 49.4555 187.123 50.3588 188.037C51.2621 188.952 51.9693 190.041 52.4372 191.238C52.9051 192.435 53.1238 193.715 53.08 195ZM42.89 186.65C39.77 186.65 37.46 189.65 37.47 194.84C37.47 199.15 39.47 203.78 43.58 203.77C47.69 203.76 49.02 199.41 49.01 195.77C49 191.76 47.39 186.65 42.89 186.66V186.65Z" fill="white"/>
<path d="M73.61 197.58C73.61 201.32 73.67 203.07 75 203.07C75.6845 202.997 76.3568 202.835 77 202.59C77.33 202.68 77.38 203.86 77 204.1C74.8789 204.425 72.7907 204.937 70.76 205.63C70.48 205.63 70.24 205.49 70.24 205.25V204.45C70.2794 203.958 70.2457 203.462 70.14 202.98H69.95C68.2469 204.353 66.137 205.123 63.95 205.17C58.69 205.17 55.19 201.07 55.18 196.1C55.18 189.47 60.18 185.21 66.61 185.2C67.6826 185.164 68.7538 185.306 69.78 185.62C70.02 185.62 70.06 185.33 70.06 184.95V177.81C70.06 175.02 70.06 174.73 68.59 173.89L68.11 173.6C67.9993 173.468 67.9386 173.302 67.9386 173.13C67.9386 172.958 67.9993 172.792 68.11 172.66C69.8647 172.133 71.5736 171.464 73.22 170.66C73.3179 170.658 73.4143 170.684 73.4977 170.736C73.581 170.787 73.6478 170.862 73.69 170.95C73.69 172.36 73.56 174.73 73.56 176.81L73.61 197.58ZM70.1 190.49C70.1523 189.834 69.9678 189.181 69.58 188.65C69.1192 188.024 68.5163 187.516 67.8209 187.168C67.1255 186.82 66.3575 186.643 65.58 186.65C61.27 186.65 59.06 190.39 59.07 194.51C59.07 198.82 61.49 202.88 66.13 202.87C67.4604 202.86 68.7463 202.39 69.77 201.54C70.0615 201.006 70.1769 200.394 70.1 199.79V190.49Z" fill="white"/>
<path d="M77.62 214.23C77.599 213.976 77.6333 213.721 77.7207 213.481C77.8081 213.242 77.9465 213.024 78.1262 212.844C78.3059 212.663 78.5228 212.523 78.7617 212.435C79.0006 212.346 79.2559 212.31 79.51 212.33H80.4C80.7129 212.345 81.0239 212.273 81.299 212.124C81.5742 211.974 81.8028 211.751 81.96 211.48C83.0407 209.819 83.9583 208.058 84.7 206.22C84.9509 205.579 85.1092 204.906 85.17 204.22C85.1099 203.089 84.835 201.979 84.36 200.95L80.65 190.8C79.84 188.58 79.51 187.45 77.85 187.12L76.67 186.88C76.39 186.65 76.43 185.88 76.81 185.7C78.32 185.79 79.74 185.84 81.31 185.83C82.58 185.83 83.91 185.78 85.42 185.69C85.8 185.83 85.85 186.63 85.52 186.87L84.34 187.11C83.67 187.25 83.34 187.39 83.34 187.72C83.7009 189.232 84.1619 190.719 84.72 192.17L86.24 196.52C86.6158 197.668 87.0736 198.788 87.61 199.87C88.297 198.758 88.8827 197.587 89.36 196.37L90.96 192.63C91.6893 191.122 92.2429 189.535 92.61 187.9C92.61 187.57 92.32 187.24 91.47 187.09L90 186.86C89.67 186.62 89.72 185.86 90.1 185.68C91.61 185.77 93.03 185.81 94.26 185.81C95.49 185.81 96.53 185.76 97.86 185.66C97.9495 185.729 98.0234 185.815 98.0771 185.914C98.1307 186.013 98.1629 186.123 98.1714 186.235C98.1799 186.347 98.1645 186.46 98.1264 186.566C98.0882 186.672 98.0281 186.769 97.95 186.85L97.15 186.99C95.59 187.28 94.74 188.65 93.15 191.99L90.51 197.44C88.9 200.63 85 208.87 82.73 214C82.5322 214.643 82.1346 215.205 81.5951 215.606C81.0556 216.007 80.4022 216.226 79.73 216.23C79.4548 216.261 79.1761 216.232 78.9135 216.144C78.6509 216.056 78.4106 215.912 78.2096 215.721C78.0086 215.53 77.8517 215.298 77.7498 215.041C77.648 214.783 77.6037 214.507 77.62 214.23Z" fill="white"/>
<path d="M109.46 197.32C109.46 202.32 109.56 203 112.31 203.23L113.82 203.37C114.11 203.56 114.01 204.37 113.73 204.55C111.03 204.46 109.42 204.42 107.53 204.42C105.64 204.42 103.98 204.48 100.95 204.58C100.794 204.421 100.707 204.208 100.707 203.985C100.707 203.763 100.794 203.549 100.95 203.39L102.66 203.25C105.35 203.01 105.59 202.3 105.58 197.33V176.18C105.58 174.71 105.58 174.67 104.16 174.67H101.56C99.56 174.67 96.77 174.67 95.74 175.87C94.8747 176.849 94.1602 177.951 93.62 179.14C93.24 179.42 92.26 179.21 92.39 178.81C93.01 176.86 93.65 173.87 94.17 171.76C94.22 171.59 94.93 171.61 95.07 171.76C95.36 173.28 96.92 173.23 99.07 173.22H118.23C120.78 173.22 121.23 173.12 121.92 171.89C122.15 171.79 122.79 171.82 122.77 172.03C122.58 173.96 122.16 177.71 122.07 179.22C122.07 179.64 121.07 179.6 120.84 179.32C120.7 178.14 120.36 176.39 119.65 175.87C118.56 175.06 116.76 174.69 114.16 174.69H110.8C109.38 174.69 109.43 174.74 109.43 176.3L109.46 197.32Z" fill="white"/>
<path d="M126.76 194.59C127.47 194.36 127.56 193.93 127.56 193.22V191.04C127.56 189.29 127.03 186.93 124.1 186.94C122.77 186.94 121.16 187.6 121.1 189.07C121.1 189.83 121.01 190.39 120.63 190.68C119.838 191.231 118.904 191.543 117.94 191.58C117.85 191.591 117.759 191.582 117.673 191.553C117.588 191.524 117.51 191.476 117.445 191.412C117.381 191.349 117.332 191.271 117.301 191.186C117.271 191.101 117.26 191.01 117.27 190.92C117.27 188.46 122.61 185.09 126.06 185.09C129.51 185.09 131.13 187.09 130.99 190.61L130.72 198.85C130.63 201.02 131.06 202.96 132.91 202.96C133.32 202.952 133.723 202.853 134.09 202.67C134.32 202.53 134.56 202.34 134.7 202.34C134.84 202.34 135.03 202.62 135.03 202.95C134.577 203.591 133.978 204.115 133.283 204.479C132.587 204.842 131.815 205.035 131.03 205.04C130.44 205.055 129.854 204.931 129.321 204.677C128.787 204.423 128.321 204.047 127.96 203.58C127.77 203.3 127.48 202.92 127.2 202.92C126.539 203.164 125.916 203.501 125.35 203.92C124.34 204.607 123.168 205.017 121.95 205.11C120.752 205.165 119.575 204.781 118.64 204.03C118.176 203.612 117.805 203.102 117.55 202.532C117.295 201.961 117.162 201.344 117.16 200.72C117.16 198.87 118.06 197.78 121.08 196.72L126.76 194.59ZM123.84 202.93C124.898 202.822 125.903 202.409 126.73 201.74C127.29 201.17 127.29 200.51 127.34 199.51L127.43 196.72C127.43 196.2 127.24 196.11 126.95 196.11C126.288 196.195 125.638 196.353 125.01 196.58C122.22 197.53 120.85 198.25 120.86 200.09C120.861 200.475 120.94 200.855 121.092 201.209C121.244 201.562 121.465 201.881 121.744 202.146C122.022 202.412 122.351 202.618 122.712 202.753C123.072 202.887 123.456 202.948 123.84 202.93Z" fill="white"/>
<path d="M142.48 199.06C142.48 202.47 142.59 202.94 144.29 203.18L145.42 203.32C145.494 203.402 145.55 203.499 145.586 203.604C145.621 203.708 145.635 203.819 145.627 203.929C145.618 204.039 145.588 204.147 145.537 204.245C145.486 204.343 145.415 204.43 145.33 204.5C143.77 204.41 142.4 204.36 140.74 204.37C139.08 204.38 137.62 204.37 136.2 204.52C136.115 204.449 136.045 204.361 135.993 204.263C135.942 204.164 135.911 204.057 135.902 203.946C135.892 203.835 135.905 203.724 135.939 203.618C135.973 203.512 136.028 203.415 136.1 203.33L137.19 203.19C138.94 202.95 138.99 202.48 138.98 199.07V177.69C138.98 174.89 138.92 174.61 137.5 173.76L137.03 173.48C136.915 173.349 136.851 173.18 136.851 173.005C136.851 172.83 136.915 172.661 137.03 172.53C138.782 172.003 140.487 171.334 142.13 170.53C142.228 170.528 142.325 170.553 142.41 170.602C142.494 170.652 142.564 170.724 142.61 170.81C142.56 172.23 142.47 174.6 142.47 176.68L142.48 199.06Z" fill="white"/>
<path d="M150.45 177.67C150.45 174.88 150.45 174.59 148.98 173.74L148.5 173.46C148.373 173.325 148.302 173.146 148.302 172.96C148.302 172.774 148.373 172.595 148.5 172.46C150.254 171.932 151.963 171.263 153.61 170.46C153.707 170.457 153.802 170.482 153.886 170.532C153.969 170.581 154.036 170.654 154.08 170.74C154.03 172.16 153.94 174.53 153.95 176.61V192.84C153.95 193.45 153.95 193.55 154.8 193.54C155.8 193.54 156.74 193.02 158.01 191.69L159.95 189.61C161.27 188.19 161.6 187.67 161.6 187.43C161.6 187.19 161.36 187.05 160.6 186.96L159.46 186.82C159.04 186.68 159.04 185.82 159.46 185.64H160.55C163.062 185.64 165.572 185.51 168.07 185.25C168.4 185.39 168.45 186.2 168.17 186.44L166.65 186.72C165.526 187.012 164.494 187.583 163.65 188.38C161.8 189.85 160.2 191.56 159.35 192.38C158.78 192.9 158.73 193.14 159.02 193.52C160.015 194.833 161.077 196.095 162.2 197.3C164.04 199.38 165.7 201.22 166.65 202.12C167.359 202.68 168.212 203.026 169.11 203.12L169.78 203.22C170.11 203.45 170.06 204.22 169.68 204.4C168.31 204.31 166.68 204.26 165.19 204.27C163.3 204.27 161.64 204.27 160.27 204.42C160.18 204.352 160.105 204.266 160.05 204.168C159.996 204.069 159.963 203.96 159.953 203.847C159.944 203.735 159.958 203.622 159.996 203.516C160.033 203.409 160.092 203.312 160.17 203.23L161.02 203.09C161.73 202.99 162.21 202.9 162.2 202.62C162.19 202.34 162.01 202 161.4 201.29L156.33 195.43C156.147 195.221 155.92 195.054 155.667 194.94C155.413 194.826 155.138 194.768 154.86 194.77C154.01 194.77 153.96 194.92 153.96 196.39V198.99C153.96 202.39 154.06 202.87 155.76 203.1L156.9 203.24C156.973 203.323 157.029 203.42 157.063 203.525C157.098 203.63 157.111 203.741 157.102 203.851C157.092 203.962 157.061 204.069 157.009 204.167C156.957 204.264 156.886 204.351 156.8 204.42C155.24 204.33 153.87 204.29 152.22 204.29C150.57 204.29 149.09 204.34 147.67 204.44C147.587 204.365 147.52 204.273 147.474 204.171C147.428 204.068 147.405 203.957 147.405 203.845C147.405 203.733 147.428 203.622 147.474 203.519C147.52 203.417 147.587 203.325 147.67 203.25L148.67 203.11C150.42 202.87 150.47 202.4 150.47 198.99L150.45 177.67Z" fill="white"/>
<path d="M88.32 207H89V215.33H88.3L88.32 207Z" fill="white"/>
<path d="M93.76 214.39C93.5789 214.704 93.3157 214.963 92.9986 215.14C92.6815 215.316 92.3225 215.402 91.96 215.39C90.35 215.39 90.1 214.3 90.1 213.79C90.1 211.9 92.1 211.79 93.58 211.79H93.72V211.5C93.72 210.5 93.37 210.04 92.43 210.04C91.8397 210.033 91.2599 210.196 90.76 210.51V209.83C91.2868 209.595 91.8536 209.463 92.43 209.44C93.83 209.44 94.43 210.08 94.43 211.55V214.05C94.4035 214.446 94.4035 214.844 94.43 215.24H93.74L93.76 214.39ZM93.7 212.45H93.5C92.29 212.45 90.85 212.57 90.85 213.81C90.85 214.55 91.38 214.81 92.02 214.81C93.66 214.81 93.7 213.38 93.7 212.81V212.45Z" fill="white"/>
<path d="M95.78 211C95.78 210.57 95.78 210.12 95.78 209.67H96.46V210.67C96.5994 210.306 96.8532 209.997 97.1832 209.79C97.5132 209.582 97.9016 209.488 98.29 209.52C99.69 209.52 100.22 210.46 100.22 211.7V215.32H99.52V211.88C99.52 210.81 99.15 210.12 98.18 210.12C96.9 210.12 96.5 211.24 96.5 212.19V215.32H95.8L95.78 211Z" fill="white"/>
<path d="M106.17 214.83C106.17 216.41 105.46 217.7 103.51 217.7C102.928 217.685 102.352 217.584 101.8 217.4L101.86 216.7C102.376 216.957 102.944 217.093 103.52 217.1C105.32 217.1 105.52 215.79 105.52 214.19C105.384 214.533 105.144 214.825 104.834 215.024C104.523 215.223 104.158 215.32 103.79 215.3C101.99 215.3 101.41 213.72 101.41 212.47C101.41 210.75 102.07 209.47 103.74 209.47C104.077 209.427 104.419 209.477 104.729 209.615C105.039 209.752 105.306 209.972 105.5 210.25V209.61H106.2L106.17 214.83ZM103.75 214.7C105.01 214.7 105.47 213.5 105.47 212.47C105.47 211.1 105.07 210.1 103.79 210.1C102.51 210.1 102.11 211.37 102.11 212.47C102.11 213.57 102.56 214.7 103.75 214.7Z" fill="white"/>
<path d="M112 214C112 214.43 112 214.87 112 215.33H111.32V214.33C111.18 214.693 110.926 215.001 110.596 215.206C110.266 215.412 109.877 215.505 109.49 215.47C108.09 215.47 107.56 214.54 107.56 213.3V209.68H108.25V213.12C108.25 214.19 108.63 214.87 109.6 214.87C110.88 214.87 111.28 213.75 111.28 212.81V209.68H111.98L112 214Z" fill="white"/>
<path d="M116.73 214.39C116.549 214.704 116.286 214.963 115.969 215.14C115.652 215.316 115.293 215.402 114.93 215.39C113.32 215.39 113.07 214.3 113.07 213.79C113.07 211.9 115.07 211.79 116.55 211.79H116.69V211.5C116.69 210.5 116.34 210.04 115.4 210.04C114.81 210.033 114.23 210.196 113.73 210.51V209.83C114.257 209.595 114.824 209.463 115.4 209.44C116.8 209.44 117.4 210.08 117.4 211.55V214.05C117.374 214.446 117.374 214.844 117.4 215.24H116.72L116.73 214.39ZM116.66 212.45H116.46C115.25 212.45 113.81 212.57 113.81 213.81C113.81 214.55 114.34 214.81 114.98 214.81C116.63 214.81 116.66 213.38 116.66 212.81V212.45Z" fill="white"/>
<path d="M123.23 214.83C123.23 216.41 122.52 217.7 120.58 217.7C119.998 217.686 119.422 217.585 118.87 217.4V216.7C119.39 216.955 119.961 217.092 120.54 217.1C122.34 217.1 122.54 215.79 122.54 214.19C122.405 214.531 122.166 214.822 121.858 215.021C121.55 215.22 121.187 215.317 120.82 215.3C119.01 215.3 118.43 213.72 118.43 212.47C118.43 210.75 119.1 209.47 120.76 209.47C121.098 209.426 121.442 209.476 121.754 209.613C122.066 209.751 122.334 209.971 122.53 210.25V209.61H123.23V214.83ZM120.81 214.7C122.08 214.7 122.53 213.5 122.53 212.47C122.53 211.1 122.13 210.1 120.86 210.1C119.59 210.1 119.18 211.37 119.18 212.47C119.18 213.57 119.62 214.7 120.81 214.7Z" fill="white"/>
<path d="M128.44 215.12C127.913 215.323 127.354 215.428 126.79 215.43C124.92 215.43 124.22 214.17 124.22 212.43C124.22 210.69 125.22 209.43 126.61 209.43C128.21 209.43 128.86 210.72 128.86 212.24V212.6H125C124.965 212.868 124.986 213.14 125.064 213.398C125.141 213.657 125.273 213.896 125.45 214.1C125.626 214.304 125.844 214.469 126.089 214.583C126.334 214.696 126.6 214.757 126.87 214.76C127.425 214.742 127.969 214.599 128.46 214.34L128.44 215.12ZM128.09 212.07C128.09 211.07 127.69 210.07 126.65 210.07C126.165 210.118 125.719 210.355 125.406 210.729C125.094 211.103 124.941 211.584 124.98 212.07H128.09Z" fill="white"/>
<path d="M133.92 209.5C135.76 209.5 136.57 210.93 136.57 212.5C136.57 214.07 135.76 215.5 133.92 215.5C132.08 215.5 131.28 214.08 131.28 212.5C131.28 210.92 132.09 209.5 133.92 209.5ZM133.92 214.83C135.15 214.83 135.8 213.78 135.8 212.47C135.8 211.16 135.15 210.1 133.92 210.1C132.69 210.1 132.05 211.16 132.05 212.47C132.05 213.78 132.7 214.83 133.92 214.83Z" fill="white"/>
<path d="M138.09 210.24H136.94V209.64H138.09V209.23C138.09 208.04 138.09 206.84 139.59 206.84C139.812 206.83 140.034 206.867 140.24 206.95V207.56C140.065 207.477 139.873 207.436 139.68 207.44C138.73 207.44 138.83 208.44 138.83 209.15V209.64H140.1V210.24H138.83V215.3H138.13L138.09 210.24Z" fill="white"/>
<path d="M142.83 207H143.53V210.62C143.689 210.288 143.941 210.008 144.255 209.815C144.569 209.621 144.931 209.523 145.3 209.53C146.82 209.53 147.23 210.53 147.23 211.94V215.33H146.53V211.95C146.53 210.95 146.34 210.13 145.19 210.13C144.04 210.13 143.51 211.31 143.51 212.3V215.3H142.81L142.83 207Z" fill="white"/>
<path d="M152.52 215.12C151.997 215.322 151.441 215.427 150.88 215.43C149 215.43 148.3 214.17 148.3 212.43C148.3 210.69 149.3 209.43 150.69 209.43C152.29 209.43 152.94 210.72 152.94 212.24V212.6H149.07C149.035 212.868 149.056 213.14 149.134 213.398C149.211 213.657 149.343 213.896 149.52 214.1C149.696 214.304 149.914 214.469 150.159 214.583C150.404 214.696 150.67 214.757 150.94 214.76C151.492 214.743 152.032 214.599 152.52 214.34V215.12ZM152.18 212.07C152.18 211.07 151.78 210.07 150.74 210.07C150.255 210.118 149.809 210.355 149.496 210.729C149.184 211.103 149.031 211.584 149.07 212.07H152.18Z" fill="white"/>
<path d="M157.25 214.39C157.069 214.704 156.806 214.963 156.489 215.14C156.172 215.316 155.813 215.402 155.45 215.39C153.84 215.39 153.59 214.3 153.59 213.79C153.59 211.9 155.59 211.79 157.07 211.79H157.21V211.5C157.21 210.5 156.86 210.04 155.92 210.04C155.329 210.029 154.748 210.192 154.25 210.51V209.83C154.777 209.595 155.344 209.463 155.92 209.44C157.32 209.44 157.92 210.08 157.92 211.55V214.05C157.908 214.448 157.928 214.846 157.98 215.24H157.29L157.25 214.39ZM157.19 212.45H157C155.78 212.45 154.34 212.57 154.34 213.81C154.34 214.55 154.87 214.81 155.52 214.81C157.16 214.81 157.2 213.38 157.2 212.81L157.19 212.45Z" fill="white"/>
<path d="M159.27 207H159.97V215.33H159.27V207Z" fill="white"/>
<path d="M163.9 210.24H162.61V213.9C162.61 214.41 162.8 214.83 163.37 214.83C163.593 214.831 163.814 214.787 164.02 214.7V215.28C163.743 215.375 163.453 215.426 163.16 215.43C161.92 215.43 161.88 214.58 161.88 213.54V210.24H160.77V209.64H161.88V208.27L162.57 208.03V209.64H163.86L163.9 210.24Z" fill="white"/>
<path d="M164.88 207H165.58V210.62C165.739 210.288 165.991 210.008 166.305 209.815C166.619 209.621 166.981 209.523 167.35 209.53C168.87 209.53 169.28 210.53 169.28 211.94V215.33H168.58V211.95C168.58 210.95 168.39 210.13 167.24 210.13C166.09 210.13 165.56 211.31 165.56 212.3V215.3H164.86L164.88 207Z" fill="white"/>
<path d="M11.1 129.39C9.58792 126.687 8.21936 123.907 7 121.06C1.28152 107.672 -0.982048 93.0628 0.41712 78.5724C1.81629 64.0821 6.83335 50.1754 15.0077 38.1293C23.182 26.0832 34.2516 16.2838 47.2001 9.63062C60.1486 2.97749 74.561 -0.316057 89.1141 0.0523758C103.667 0.420808 117.895 4.43942 130.49 11.7392C143.085 19.039 153.645 29.3861 161.199 41.8304C168.753 54.2747 173.06 68.4174 173.724 82.96C174.388 97.5026 171.389 111.979 165 125.06" fill="white"/>
<path d="M171.32 107.2H2.51V168.21H171.32V107.2Z" fill="white"/>
<path d="M150.71 63.15C151.17 64.22 151.61 65.3 152.03 66.38C156.96 59.32 159.5 52.46 159.03 46.38C150.285 30.6659 136.682 18.21 120.26 10.88C119.8 13.8287 118.781 16.6625 117.26 19.23C131.06 29.74 142.92 44.93 150.71 63.15ZM93.62 41.66C87.4137 45.585 80.899 48.9995 74.14 51.87C65.1597 55.7482 55.7653 58.5867 46.14 60.33C49.0629 72.9247 53.0299 85.2541 58 97.19C62.2025 96.7974 66.4384 96.9554 70.6 97.66C71.5235 97.8825 72.4865 97.8825 73.41 97.66C73.41 97.66 77.31 96.2 78.73 95.54C79.0338 95.4265 79.3069 95.2435 79.5275 95.0056C79.748 94.7678 79.9098 94.4816 80 94.17C80.3929 92.2327 80.4268 90.2396 80.1 88.29C80.1 88.29 78.68 83.29 77.77 80.65C76.9434 80.1159 76.3584 79.2797 76.14 78.32C76.14 78.32 74.93 74.78 74.73 74.22C74.73 74.22 74.52 72.56 75.44 72.67C75.44 72.67 74.21 69.02 75.03 66.24C75.03 66.24 76.96 58.24 80.81 55.5C80.81 55.5 84.4 53.38 87.81 53.67C89.9433 53.8361 92.0163 54.4567 93.89 55.49C97.74 58.26 99.67 66.23 99.67 66.23C100.48 69.01 99.26 72.66 99.26 72.66C100.17 72.55 99.97 74.21 99.97 74.21C99.77 74.77 98.55 78.31 98.55 78.31C98.3341 79.2681 97.7529 80.104 96.93 80.64C96.02 83.3 94.6 88.28 94.6 88.28C94.2732 90.2296 94.3071 92.2227 94.7 94.16C94.7887 94.4573 94.9437 94.7305 95.1532 94.9591C95.3628 95.1878 95.6216 95.3659 95.91 95.48C97.33 96.14 101.24 97.6 101.24 97.6C102.163 97.8248 103.127 97.8248 104.05 97.6C107.999 96.9541 112.013 96.7996 116 97.14C117.11 96.49 118.22 95.84 119.3 95.14C117.3 89.34 115.05 83.44 112.51 77.51C107.25 65.0418 100.93 53.0478 93.62 41.66ZM68.23 12.88C65.0172 15.0751 61.5896 16.9381 58 18.44C53.3618 20.5317 48.4318 21.9041 43.38 22.51C41.8 31.66 42.71 44.22 45.74 58.39C55.2349 56.6624 64.4992 53.8472 73.35 50C79.9985 47.1943 86.4065 43.8499 92.51 40C84.45 27.89 76.05 18.41 68.23 12.88ZM150.63 68.3C150.083 66.84 149.497 65.3834 148.87 63.93C141.25 46.1 129.67 31.24 116.22 20.93C112 27.5 104.74 34.33 95.29 40.58C102.68 52.0679 109.07 64.169 114.39 76.75C116.88 82.58 119.11 88.39 121.08 94.1C133.82 86 144 77.06 150.63 68.3ZM19.33 60C17.1971 73.6407 18.4155 87.5954 22.88 100.66L24.88 100.43C27.76 100.15 32.15 100.02 32.15 100.02C35.57 100.02 41.7 100.22 41.7 100.22C44.6103 100.182 47.5037 99.7718 50.31 99C52.1456 98.283 54.0533 97.7667 56 97.46C51.0496 85.5412 47.0961 73.2323 44.18 60.66C34.49 62.13 25.86 62 19.33 60ZM163 54.3C162.333 52.82 161.667 51.3667 161 49.94C160.37 55.75 157.54 62.05 152.89 68.46C156.893 79.0732 159.253 90.2349 159.89 101.56C162.672 102.1 165.489 102.434 168.32 102.56C171.382 86.3022 169.53 69.5005 163 54.3ZM121.73 96C122.05 96.82 122.37 97.61 122.73 98.39C123.27 98.56 123.8 98.74 124.33 98.95C127.127 99.7441 130.013 100.178 132.92 100.24C132.92 100.24 139.06 100.08 142.48 100.04C142.48 100.04 146.87 100.17 149.74 100.45C149.74 100.45 154 100.95 157.88 101.33C158.3 94.87 156.63 84.75 151.45 70.33C144.54 79.15 134.33 88 121.73 96ZM17.73 57.32H17.82C19.85 44.7 24.62 33.22 32 24C23.0481 31.8388 15.8862 41.5107 11 52.36C12.6832 54.6311 14.9952 56.359 17.65 57.33L17.73 57.32ZM118.39 10.06C106.503 5.08009 93.6192 2.93682 80.76 3.80004C92.86 5.16004 104.82 10.16 115.66 18.04C117.115 15.5986 118.044 12.8808 118.39 10.06ZM17.39 59.38L16.89 59.19C14.2386 58.2151 11.871 56.5966 10 54.48C4.5 67.61 2.66 87.12 5.29 102.59C8.61956 102.512 11.9358 102.141 15.2 101.48C17.03 101.32 19.11 101.1 20.86 100.91C16.21 86 15.65 74.68 17.41 59.38H17.39ZM43.68 58.73C40.68 44.58 39.77 32.03 41.31 22.59C40.2584 22.5985 39.2131 22.426 38.22 22.08C37.7693 21.8964 37.3558 21.6321 37 21.3C27.82 30.86 22 43.66 19.64 58C25.91 60 34.29 60.15 43.7 58.73H43.68ZM69.92 11.64C77.77 17.35 86.15 26.86 94.17 38.88C103.43 32.75 110.55 26.05 114.62 19.74C102.28 10.74 88.46 5.55004 74.69 5.43004C74.6025 5.86125 74.4649 6.28075 74.28 6.68004C73.2465 8.65984 71.7509 10.3613 69.92 11.64ZM39 20.22C41.5 21.22 48.57 20.3 57.23 16.6C61.1277 14.998 64.8205 12.9367 68.23 10.46C70.49 8.69004 72 7.10004 72.43 5.93004C72.585 5.6203 72.6206 5.26434 72.53 4.93004C72.53 4.93004 72.47 4.86004 72.45 4.82004C60.0672 6.92285 48.3266 11.8202 38.12 19.14C38.1016 19.2894 38.1223 19.441 38.18 19.58C38.2667 19.7363 38.3839 19.8736 38.5248 19.9835C38.6657 20.0935 38.8273 20.1739 39 20.22Z" fill="#006397"/>
<path d="M65.9 135.76C65.18 129.41 64.17 120 64.17 120C63.5417 117.198 61.8771 114.736 59.51 113.11C57.73 111.85 52.41 112.24 52.41 112.24C46.48 113.24 39.34 111.58 39.34 111.58C38.43 111.25 34.48 110.58 34.48 110.58C31.5666 110.36 28.6785 109.882 25.85 109.15C24.4775 108.931 23.0899 108.82 21.7 108.82C20.0927 109.068 18.474 109.234 16.85 109.32C13.5449 109.858 10.1979 110.095 6.85 110.03C9.75 118.03 19.76 141.46 40.03 152.26L41.34 149.04L48.41 157.17L37.7 158L39.26 154.15C18.79 143.34 8.47 120.15 5.19 111.34V165.46H65.52C66.4 162.59 67.62 159.16 67.62 159.16C68.62 156.21 68.02 151.84 68.02 151.84C67.11 149.1 65.9 135.76 65.9 135.76ZM155.6 109.34C153.976 109.254 152.357 109.088 150.75 108.84C149.36 108.84 147.972 108.951 146.6 109.17C143.781 109.9 140.903 110.379 138 110.6C138 110.6 134.06 111.25 133.14 111.6C133.14 111.6 126 113.24 120.07 112.26C120.07 112.26 114.75 111.87 112.97 113.13C110.606 114.76 108.943 117.22 108.31 120.02C108.31 120.02 107.31 129.43 106.58 135.78C106.58 135.78 105.37 149.12 104.46 151.86C104.46 151.86 103.85 156.23 104.86 159.18C104.86 159.18 106.08 162.61 106.96 165.48H115.69C117.37 164.88 119.04 164.24 120.69 163.54C134.565 157.635 146.542 148.016 155.3 135.74L151.3 133.59L161.66 126.38L161.27 138.95L157 136.68C148.023 149.353 135.701 159.282 121.41 165.36L121.17 165.46H168.09V110C163.915 110.189 159.732 109.968 155.6 109.34Z" fill="#B67A00"/>
</g>
<defs>
<clipPath id="clip0">
<rect width="173.84" height="217.7" fill="white"/>
</clipPath>
</defs>
</svg>
