<svg width="138" height="35" viewBox="0 0 138 35" fill="none" xmlns="http://www.w3.org/2000/svg">
<path d="M31.834 12.8496C31.9336 13.082 32.0266 13.3143 32.1197 13.5467C33.1891 12.0235 33.7432 10.5347 33.648 9.23097C31.7492 5.8397 28.7955 3.15162 25.2296 1.56985C25.1267 2.20734 24.9019 2.81933 24.5672 3.37272C27.5653 5.64029 30.1412 8.91687 31.834 12.8496ZM19.4348 8.21121C18.0868 9.0586 16.6714 9.79538 15.2029 10.4142C13.2554 11.2525 11.2173 11.8654 9.1289 12.2408C9.76196 14.9606 10.6221 17.6232 11.7005 20.201C12.613 20.1152 13.5329 20.1484 14.4366 20.2999C14.6372 20.3481 14.8465 20.3481 15.0471 20.2999C15.0471 20.2999 15.8956 19.9837 16.203 19.8417C16.2658 19.8168 16.3222 19.7781 16.3679 19.7286C16.4136 19.679 16.4475 19.6199 16.4671 19.5555C16.5522 19.1373 16.5595 18.7071 16.4887 18.2862C16.4887 18.2862 16.1814 17.2105 15.9844 16.6361C15.8045 16.5218 15.677 16.3417 15.6294 16.1348C15.6294 16.1348 15.3696 15.3603 15.322 15.2398C15.322 15.2398 15.2787 14.8805 15.4778 14.9064C15.4778 14.9064 15.2116 14.1168 15.3891 13.5187C15.3891 13.5187 15.8069 11.7976 16.6446 11.1995C16.6446 11.1995 17.4239 10.7413 18.1599 10.8036C18.6242 10.8398 19.0753 10.9748 19.4825 11.1995C20.318 11.7976 20.7358 13.5187 20.7358 13.5187C20.9133 14.1168 20.647 14.9064 20.647 14.9064C20.8462 14.8805 20.8029 15.2398 20.8029 15.2398C20.7574 15.3603 20.4955 16.1241 20.4955 16.1241C20.4458 16.3324 20.3151 16.5127 20.1319 16.6253C19.9392 17.2105 19.6318 18.2862 19.6318 18.2862C19.561 18.7071 19.5684 19.1373 19.6535 19.5555C19.6742 19.6177 19.7084 19.6746 19.7537 19.7221C19.7989 19.7697 19.8541 19.8069 19.9154 19.8309C20.2228 19.9729 21.0713 20.2892 21.0713 20.2892C21.2719 20.3374 21.4812 20.3374 21.6818 20.2892C22.5468 20.144 23.4267 20.1072 24.301 20.1794C24.5434 20.0374 24.7837 19.8976 25.0175 19.7492C24.5846 18.497 24.0953 17.2234 23.5434 15.9412C22.3981 13.2528 21.0236 10.6667 19.4348 8.21121ZM13.9193 2.00013C13.2184 2.47353 12.4715 2.87571 11.6897 3.20061C10.6848 3.65226 9.61719 3.95107 8.5228 4.08698C8.18078 6.06197 8.37777 8.77273 9.03582 11.832C11.0983 11.4602 13.111 10.8538 15.0341 10.0248C16.4782 9.41343 17.869 8.68449 19.1924 7.84547C17.4434 5.23798 15.6185 3.19415 13.9193 2.00013ZM31.821 13.9619C31.6998 13.6478 31.5721 13.3315 31.4379 13.0196C29.7819 9.17074 27.2687 5.963 24.3464 3.74061C23.4265 5.15408 21.8549 6.62993 19.8007 7.97886C21.4043 10.4592 22.7918 13.0712 23.9481 15.7863C24.4893 17.0449 24.972 18.297 25.3985 19.5297C28.1649 17.7892 30.3793 15.853 31.821 13.9619ZM3.30165 12.1762C2.83757 15.1209 3.10207 18.1336 4.07227 20.9539L4.5052 20.9045C5.13078 20.8421 6.08323 20.8141 6.08323 20.8141C6.82787 20.8141 8.15914 20.8571 8.15914 20.8571C8.79047 20.844 9.41753 20.7508 10.0251 20.5796C10.4228 20.4284 10.8357 20.3202 11.2568 20.2569C10.1815 17.6839 9.32141 15.0273 8.68515 12.3139C6.59409 12.6302 4.7195 12.5936 3.30165 12.1762ZM34.4922 10.9392C34.3558 10.6186 34.2086 10.3067 34.0593 9.99902C33.9229 11.2511 33.3081 12.613 32.2972 13.9963C33.1639 16.2878 33.6748 18.6969 33.8125 21.1411C34.4161 21.2571 35.0274 21.3291 35.6416 21.3563C36.3095 17.8476 35.9093 14.2206 34.4922 10.9392ZM25.5435 19.9428L25.76 20.4591C25.8769 20.4957 25.9937 20.5344 26.1085 20.5796C26.7106 20.7531 27.3325 20.85 27.9593 20.8679C27.9593 20.8679 29.2905 20.8335 30.033 20.8249C30.033 20.8249 30.9876 20.8528 31.611 20.9152C31.611 20.9152 32.5375 21.0228 33.3796 21.1045C33.4705 19.7104 33.1068 17.5246 31.9812 14.4201C30.4941 16.3026 28.2753 18.2217 25.5435 19.9428ZM2.93582 11.5954H2.9553C3.41204 8.86093 4.44892 6.38468 6.0421 4.39894C4.09394 6.09106 2.53602 8.181 1.47468 10.5261C1.84655 11.0164 2.35438 11.388 2.93582 11.5954ZM24.8118 1.39128C22.2312 0.316544 19.4342 -0.146036 16.6424 0.040203C19.266 0.332793 21.8636 1.41279 24.2209 3.1124C24.5371 2.58621 24.7384 1.99982 24.8118 1.39128ZM2.88387 12.0472L2.77347 12.0063C2.19757 11.7886 1.68455 11.4332 1.27986 10.9715C0.0849666 13.8135 -0.315495 18.0237 0.258139 21.3627C0.981017 21.3459 1.70101 21.266 2.40981 21.1239C2.80811 21.0873 3.25835 21.0422 3.63933 21.0013C2.62411 17.7892 2.50072 15.3388 2.88387 12.0472ZM8.59423 11.9052C7.94484 8.85233 7.74352 6.14372 8.07905 4.10635C7.84977 4.10872 7.62187 4.07085 7.40584 3.99447C7.30755 3.95267 7.21854 3.89199 7.14391 3.81591C5.15026 5.88125 3.88178 8.64364 3.37525 11.7438C4.72816 12.1633 6.54863 12.2042 8.59423 11.8944V11.9052ZM14.2873 1.7312C15.9909 2.96395 17.8113 5.01639 19.5539 7.61312C21.5627 6.28786 23.1104 4.84212 23.9958 3.48029C21.3159 1.53758 18.3135 0.429606 15.322 0.390881C15.3032 0.483426 15.2742 0.573618 15.2354 0.659806C15.0108 1.08759 14.6855 1.45514 14.2873 1.7312ZM7.57685 3.58356C8.12017 3.7987 9.65492 3.60292 11.536 2.8026C12.3797 2.45601 13.179 2.01114 13.9171 1.47734C14.4172 1.10084 14.7354 0.75877 14.8371 0.507056C14.8701 0.440254 14.8778 0.363886 14.8588 0.291917C14.8529 0.283513 14.8464 0.275598 14.8393 0.268251C13.4515 0.498261 12.0958 0.889633 10.8 1.43431C9.59431 1.94857 8.44827 2.59129 7.38203 3.3512C7.37396 3.38225 7.37396 3.41482 7.38203 3.44587C7.40321 3.48091 7.43145 3.51123 7.46497 3.53492C7.4985 3.55862 7.53658 3.57517 7.57685 3.58356Z" fill="#006397"/>
<path d="M13.4545 28.5223C13.2986 27.1518 13.0778 25.1209 13.0778 25.1209C12.9412 24.516 12.5802 23.9844 12.0669 23.6322C11.6816 23.3611 10.5257 23.445 10.5257 23.445C9.23771 23.6601 7.68565 23.303 7.68565 23.303C7.48866 23.232 6.62929 23.0879 6.62929 23.0879C5.9994 23.0414 5.37495 22.9392 4.76336 22.7824C4.46481 22.7352 4.16299 22.7114 3.8607 22.7114C3.51205 22.7646 3.16093 22.8005 2.80867 22.8189C2.09343 22.9363 1.36877 22.9874 0.644017 22.9717C1.2761 24.6928 3.45807 29.7572 7.85232 32.0893L8.1359 31.3923L9.67064 33.1478L7.3458 33.3242L7.67049 32.4852C3.22429 30.1509 0.981703 25.1381 0.269531 23.2449V34.927H13.3722C13.5627 34.3074 13.8289 33.5673 13.8289 33.5673C14.0454 32.9219 13.9155 31.986 13.9155 31.986C13.7185 31.4095 13.4545 28.5223 13.4545 28.5223ZM32.9364 22.8189C32.5834 22.8006 32.2316 22.7647 31.8822 22.7114C31.5799 22.7114 31.2781 22.7352 30.9795 22.7824C30.3659 22.941 29.7393 23.0447 29.1071 23.0922C29.1071 23.0922 28.2412 23.232 28.0529 23.3073C28.0529 23.3073 26.5008 23.6623 25.2129 23.4493C25.2129 23.4493 24.0569 23.3654 23.6695 23.6365C23.1569 23.9895 22.7962 24.5207 22.6586 25.1252C22.6586 25.1252 22.4421 27.1561 22.2819 28.5266C22.2819 28.5266 22.02 31.4052 21.823 31.9968C21.823 31.9968 21.6888 32.9413 21.9096 33.5781C21.9096 33.5781 22.1737 34.3182 22.3664 34.9378H24.2604C24.6263 34.8087 24.9878 34.671 25.3428 34.5182C28.3564 33.2447 30.9574 31.1681 32.8584 28.518L31.9926 28.0533L34.2438 26.4978L34.1572 29.2107L33.2481 28.7245C31.2977 31.4597 28.6217 33.6032 25.5181 34.9162L25.4661 34.9378H35.653V22.9652C34.7448 23.0061 33.8348 22.9571 32.9364 22.8189Z" fill="#B67A00"/>
<path d="M49.7166 12.6952C49.7166 10.7731 49.6064 10.2803 48.4273 10.1762L47.5899 10.0996C47.5405 10.0606 47.5007 10.0111 47.4733 9.95464C47.4459 9.89822 47.4316 9.83639 47.4316 9.77374C47.4316 9.7111 47.4459 9.64926 47.4733 9.59285C47.5007 9.53643 47.5405 9.48689 47.5899 9.44792C49.0004 9.31649 50.78 9.23983 53.2098 9.23435C54.8628 9.23435 56.4276 9.35482 57.6177 9.95171C58.2361 10.2361 58.7557 10.6965 59.1108 11.2745C59.4658 11.8526 59.6403 12.5223 59.6122 13.199C59.6122 15.0718 58.5103 16.0356 56.951 16.7639C56.951 17.0268 57.1604 17.1034 57.4469 17.1527C58.4549 17.3444 59.3616 17.8857 60.0054 18.68C60.6492 19.4743 60.9883 20.4701 60.9621 21.4897C60.9621 24.5015 58.7196 26.5332 54.0088 26.5441C53.2539 26.5441 51.9701 26.4675 50.8737 26.4675C49.7772 26.4675 48.8351 26.5277 47.8654 26.5551C47.7866 26.4657 47.7413 26.3519 47.7373 26.2332C47.7333 26.1144 47.7707 25.9979 47.8433 25.9034L48.3172 25.8268C49.7001 25.5913 49.7552 25.2792 49.7497 22.574L49.7166 12.6952ZM51.8655 16.1506C51.8655 16.8789 51.8655 16.9282 53.2264 16.8734C55.8931 16.7639 57.3312 15.9863 57.3257 13.5385C57.3257 10.9922 55.4138 10.0339 53.4247 10.0393C53.0178 10.0154 52.6101 10.0693 52.2236 10.1981C51.9591 10.2748 51.8544 10.4062 51.8544 10.8717L51.8655 16.1506ZM51.8655 22.1742C51.8655 23.1106 51.9206 24.4358 52.4164 25.0054C52.6838 25.2727 53.0085 25.4766 53.3663 25.6018C53.7241 25.7269 54.1057 25.7701 54.4826 25.7282C56.8077 25.7282 58.5874 24.6823 58.5819 22.0811C58.5819 20.0331 57.5295 17.6401 53.3696 17.651C51.9536 17.651 51.8544 17.8098 51.8544 18.3246L51.8655 22.1742Z" fill="#005187"/>
<path d="M73.3489 21.194C73.3489 24.4468 71.1064 26.785 67.8391 26.7905C67.126 26.8191 66.4146 26.7005 65.7498 26.4423C65.0851 26.1841 64.4813 25.7918 63.9766 25.2902C63.4719 24.7886 63.0772 24.1886 62.8174 23.5279C62.5576 22.8672 62.4383 22.1602 62.4671 21.4514C62.4463 20.7153 62.5751 19.9826 62.8458 19.2971C63.1165 18.6116 63.5235 17.9875 64.0425 17.4619C64.5615 16.9364 65.1818 16.5203 65.8664 16.2385C66.5509 15.9568 67.2856 15.8151 68.0265 15.822C68.7358 15.8098 69.4403 15.941 70.0971 16.2076C70.7539 16.4743 71.3492 16.8709 71.847 17.3734C72.3448 17.8758 72.7347 18.4736 72.9929 19.1304C73.251 19.7872 73.3722 20.4892 73.3489 21.194ZM67.7179 16.6051C65.9878 16.6051 64.7096 18.2479 64.7151 21.1064C64.7151 23.472 65.817 26.0348 68.0981 26.0348C70.3791 26.0348 71.1009 23.6418 71.1009 21.654C71.0954 19.4143 70.1973 16.6106 67.7179 16.616V16.6051Z" fill="#005187"/>
<path d="M84.6993 22.6178C84.6993 24.6713 84.7324 25.6351 85.4652 25.6296C85.8428 25.5919 86.2135 25.5034 86.5671 25.3667C86.7545 25.4215 86.782 26.0731 86.5671 26.1991C85.391 26.3756 84.233 26.656 83.107 27.0369C82.9472 27.0369 82.8205 26.9603 82.815 26.8288V26.3908C82.8344 26.1214 82.8178 25.8507 82.7654 25.5858H82.6662C81.5147 26.3634 80.6276 26.785 79.3603 26.785C76.4567 26.785 74.5172 24.5344 74.5117 21.8018C74.5117 18.1657 77.2666 15.822 80.8314 15.8165C81.4244 15.7936 82.0169 15.8714 82.5836 16.0465C82.7158 16.0465 82.7433 15.8877 82.7433 15.6796V11.7533C82.7433 10.22 82.7433 10.0667 81.9334 9.60122L81.6689 9.44241C81.6054 9.37048 81.5704 9.27803 81.5704 9.1823C81.5704 9.08658 81.6054 8.99413 81.6689 8.92219C82.6381 8.63515 83.5817 8.26883 84.49 7.82698C84.5444 7.82685 84.5979 7.84158 84.6446 7.86959C84.6912 7.89759 84.7292 7.93779 84.7544 7.98579C84.7544 8.76339 84.6773 10.0612 84.6773 11.2057L84.6993 22.6178ZM82.7544 18.7243C82.7831 18.3635 82.6815 18.0043 82.4679 17.7112C82.2131 17.3693 81.8807 17.0919 81.4977 16.9016C81.1148 16.7113 80.6921 16.6134 80.2639 16.616C77.8837 16.616 76.655 18.675 76.6605 20.9366C76.6605 23.3023 78.0049 25.5365 80.567 25.531C81.3023 25.5237 82.0126 25.2645 82.5781 24.7972C82.7383 24.5047 82.8019 24.1694 82.7599 23.8389L82.7544 18.7243Z" fill="#005187"/>
<path d="M86.9071 31.7628C86.8964 31.6234 86.9161 31.4834 86.9649 31.3523C87.0137 31.2213 87.0905 31.1022 87.1899 31.0034C87.2894 30.9046 87.4091 30.8283 87.541 30.7798C87.6729 30.7313 87.8138 30.7117 87.954 30.7223H88.4499C88.6234 30.7285 88.7953 30.688 88.9476 30.6051C89.0998 30.5222 89.2267 30.4 89.3149 30.2514C89.9087 29.3399 90.4125 28.3734 90.8191 27.3655C90.9568 27.0144 91.044 26.6457 91.078 26.2703C91.0447 25.649 90.8933 25.0395 90.6317 24.4742L88.6152 18.8941C88.1689 17.6729 87.9815 17.0487 87.0669 16.868L86.4112 16.742C86.2515 16.6106 86.279 16.167 86.4884 16.0904C87.3204 16.1396 88.1083 16.167 88.9733 16.1615C89.6785 16.1615 90.4113 16.1342 91.2488 16.0849C91.4527 16.1615 91.4803 16.5996 91.2984 16.7311L90.6483 16.8625C90.2791 16.9446 90.0697 17.0213 90.0697 17.202C90.2652 18.0316 90.5155 18.8475 90.8191 19.6443L91.6566 22.0319C91.8668 22.6645 92.1228 23.2813 92.4224 23.8773C92.7948 23.264 93.1155 22.6211 93.3811 21.9552L94.2682 19.8962C94.6714 19.0665 94.9782 18.1938 95.1828 17.2951C95.1828 17.1144 95.023 16.9337 94.5492 16.857L93.7393 16.7256C93.5574 16.5996 93.585 16.178 93.7944 16.0794C94.6319 16.1287 95.4142 16.1506 96.0975 16.1506C96.7807 16.1506 97.3482 16.1506 98.081 16.0685C98.1307 16.1055 98.1719 16.1527 98.2019 16.2067C98.232 16.2607 98.2502 16.3205 98.2554 16.382C98.2606 16.4435 98.2527 16.5055 98.2321 16.5637C98.2116 16.622 98.1788 16.6753 98.1361 16.7201L97.6898 16.7968C96.8303 16.9556 96.3564 17.7113 95.4859 19.5348L94.0313 22.5302C93.1718 24.2716 91.034 28.7948 89.7557 31.6314C89.6484 31.9846 89.43 32.2944 89.1325 32.5152C88.835 32.736 88.474 32.8561 88.1027 32.858C87.9489 32.8783 87.7925 32.8647 87.6446 32.8181C87.4966 32.7716 87.3608 32.6933 87.2467 32.5888C87.1326 32.4843 87.0431 32.3561 86.9844 32.2134C86.9257 32.0706 86.8993 31.9168 86.9071 31.7628Z" fill="#005187"/>
<path d="M104.512 22.4754C104.512 25.2134 104.572 25.5968 106.087 25.7227L106.925 25.7994C107.079 25.9034 107.03 26.347 106.875 26.451C105.382 26.4017 104.495 26.3744 103.448 26.3744C102.401 26.3744 101.487 26.4072 99.8118 26.462C99.768 26.4196 99.7332 26.369 99.7094 26.313C99.6856 26.257 99.6734 26.1969 99.6734 26.1361C99.6734 26.0754 99.6856 26.0153 99.7094 25.9593C99.7332 25.9033 99.768 25.8527 99.8118 25.8103L100.754 25.7336C102.242 25.5967 102.374 25.1861 102.368 22.4809V10.8607C102.368 10.0557 102.368 10.0284 101.586 10.0284H100.126C99.0239 10.0284 97.4757 10.0284 96.9082 10.68C96.4321 11.2195 96.0368 11.8244 95.7346 12.4761C95.5252 12.635 94.9797 12.52 95.0514 12.2954C95.3985 11.2331 95.7511 9.58479 96.0431 8.42387C96.0431 8.33078 96.4564 8.34173 96.539 8.42387C96.6933 9.25075 97.5583 9.22885 98.7429 9.22338H109.338C110.749 9.22338 110.991 9.16862 111.377 8.48959C111.509 8.4403 111.856 8.45125 111.845 8.57173C111.741 9.6286 111.515 11.6876 111.46 12.52C111.46 12.75 110.909 12.728 110.782 12.5747C110.699 11.9231 110.517 10.9319 110.126 10.6745C109.52 10.2364 108.528 10.0284 107.09 10.0338H105.233C104.446 10.0338 104.473 10.0612 104.479 10.921L104.512 22.4754Z" fill="#005187"/>
<path d="M114.076 20.9749C114.467 20.849 114.517 20.6135 114.517 20.2247V19.0255C114.517 18.0671 114.225 16.7639 112.605 16.7693C111.872 16.7693 110.952 17.1362 110.952 17.9412C110.952 18.3574 110.903 18.6695 110.693 18.8228C110.256 19.1288 109.74 19.302 109.206 19.3212C109.156 19.3272 109.106 19.3221 109.059 19.3062C109.011 19.2902 108.969 19.2639 108.933 19.2291C108.898 19.1944 108.87 19.1521 108.854 19.1054C108.837 19.0588 108.831 19.009 108.836 18.9597C108.836 17.6072 111.784 15.7563 113.696 15.7508C115.608 15.7453 116.495 16.846 116.418 18.79L116.269 23.3132C116.219 24.507 116.456 25.5748 117.476 25.5693C117.703 25.568 117.927 25.5155 118.131 25.416C118.264 25.3339 118.39 25.2298 118.473 25.2298C118.556 25.2298 118.655 25.3886 118.655 25.5693C118.404 25.9195 118.074 26.206 117.691 26.4058C117.308 26.6056 116.883 26.713 116.451 26.7193C116.124 26.7263 115.799 26.6572 115.504 26.5175C115.208 26.3777 114.949 26.1711 114.748 25.9143C114.644 25.7555 114.484 25.5529 114.33 25.5529C113.966 25.6754 113.622 25.8507 113.31 26.0731C112.751 26.4508 112.101 26.6756 111.426 26.7248C110.764 26.756 110.113 26.5457 109.597 26.1334C109.339 25.9049 109.133 25.6247 108.993 25.3113C108.852 24.9979 108.78 24.6584 108.781 24.3153C108.781 23.3022 109.277 22.6999 110.952 22.1249L114.076 20.9749ZM112.462 25.5748C113.047 25.5219 113.602 25.2948 114.054 24.9232C114.368 24.611 114.368 24.2496 114.396 23.702L114.445 22.1687C114.445 21.884 114.341 21.8292 114.181 21.8292C113.816 21.8759 113.457 21.964 113.112 22.092C111.569 22.6396 110.809 23.0065 110.809 24.0196C110.811 24.2307 110.856 24.4393 110.941 24.6329C111.025 24.8264 111.149 25.001 111.303 25.1461C111.457 25.2913 111.639 25.404 111.838 25.4777C112.038 25.5514 112.25 25.5844 112.462 25.5748Z" fill="#005187"/>
<path d="M122.776 23.4337C122.776 25.3065 122.836 25.5639 123.779 25.6898L124.401 25.7665C124.443 25.8117 124.474 25.8649 124.495 25.9228C124.515 25.9806 124.523 26.0419 124.518 26.103C124.513 26.164 124.496 26.2234 124.468 26.2776C124.439 26.3318 124.399 26.3797 124.352 26.4182C123.492 26.3689 122.732 26.3415 121.817 26.347C120.902 26.3524 120.093 26.3743 119.305 26.4291C119.258 26.3901 119.219 26.3422 119.191 26.2883C119.163 26.2343 119.145 26.1753 119.14 26.1147C119.135 26.0541 119.142 25.9931 119.161 25.9352C119.18 25.8773 119.21 25.8237 119.25 25.7775L119.85 25.7008C120.82 25.5694 120.847 25.3065 120.842 23.4337V11.6876C120.842 10.1543 120.809 10.001 120.026 9.53004L119.762 9.37671C119.7 9.30427 119.665 9.21201 119.665 9.11661C119.665 9.0212 119.7 8.92894 119.762 8.85649C120.731 8.56886 121.674 8.20256 122.583 7.76128C122.637 7.76001 122.69 7.77367 122.737 7.80074C122.784 7.82781 122.822 7.86723 122.847 7.91461C122.82 8.69768 122.77 9.99551 122.776 11.14V23.4337Z" fill="#005187"/>
<path d="M127.185 11.6766C127.185 10.1434 127.152 9.99002 126.37 9.51908L126.105 9.36576C126.034 9.29226 125.994 9.1941 125.994 9.09195C125.994 8.98981 126.034 8.89165 126.105 8.81815C127.074 8.5296 128.017 8.16333 128.926 7.72294C128.98 7.72167 129.034 7.73533 129.08 7.7624C129.127 7.78947 129.165 7.82889 129.191 7.87627C129.163 8.65935 129.114 9.95718 129.119 11.1017V20.0167C129.119 20.3562 129.147 20.4055 129.593 20.4055C130.144 20.4055 130.667 20.1152 131.367 19.3869L132.441 18.2424C133.169 17.4593 133.351 17.1746 133.351 17.0486C133.351 16.9227 133.224 16.8406 132.8 16.7858L132.171 16.7091C131.935 16.6325 131.935 16.1615 132.171 16.0575H132.772C134.16 16.0579 135.546 15.9866 136.926 15.8439C137.114 15.9206 137.141 16.3641 136.982 16.4956L136.144 16.6489C135.524 16.8107 134.956 17.1252 134.491 17.5634C133.472 18.3738 132.585 19.3102 132.116 19.7538C131.797 20.0386 131.775 20.17 131.929 20.3726C132.478 21.0965 133.064 21.7911 133.687 22.4535C134.711 23.5925 135.626 24.6056 136.15 25.0984C136.542 25.4057 137.014 25.5957 137.51 25.646L137.88 25.7008C138.061 25.8267 138.034 26.2484 137.825 26.347C137.07 26.2977 136.172 26.2703 135.34 26.2758C134.298 26.2758 133.378 26.2758 132.623 26.3579C132.574 26.3208 132.532 26.2737 132.502 26.2197C132.472 26.1656 132.454 26.1059 132.449 26.0444C132.444 25.9828 132.452 25.9209 132.472 25.8626C132.493 25.8044 132.525 25.7511 132.568 25.7063L133.036 25.6296C133.433 25.5748 133.692 25.5256 133.692 25.3667C133.692 25.2079 133.587 25.0272 133.246 24.6384L130.441 21.424C130.341 21.308 130.217 21.2151 130.077 21.1518C129.937 21.0884 129.785 21.0561 129.631 21.0571C129.163 21.0571 129.136 21.1392 129.136 21.9442V23.3735C129.136 25.2463 129.196 25.5037 130.138 25.6351L130.766 25.7117C130.806 25.7575 130.836 25.8107 130.855 25.8681C130.873 25.9256 130.88 25.9862 130.875 26.0463C130.87 26.1065 130.853 26.165 130.825 26.2185C130.797 26.272 130.758 26.3194 130.711 26.3579C129.852 26.3086 129.091 26.2867 128.177 26.2867C127.262 26.2867 126.452 26.3141 125.664 26.3689C125.617 26.3297 125.578 26.281 125.55 26.226C125.522 26.1709 125.507 26.1106 125.504 26.0492C125.502 25.9877 125.512 25.9263 125.535 25.8691C125.558 25.812 125.593 25.7602 125.637 25.7172L126.215 25.6406C127.18 25.5091 127.207 25.2463 127.202 23.379L127.185 11.6766Z" fill="#005187"/>
<path d="M131.63 7.12058H130.787V6.66059H132.991V7.12058H132.143V9.39313H131.641L131.63 7.12058ZM133.625 6.66059H134.407L135.129 8.50601L135.834 6.66059H136.611V9.39861H136.11V7.31223L135.338 9.39861H134.897L134.126 7.31223V9.39861H133.619L133.625 6.66059Z" fill="#005187"/>
</svg>
