<svg width="171" height="216" viewBox="0 0 171 216" fill="none" xmlns="http://www.w3.org/2000/svg">
<g clip-path="url(#clip0)">
<path d="M10.87 126.71C3.71193 113.934 -0.028017 99.5269 0.0119118 84.8824C0.0518406 70.2378 3.87029 55.8514 11.0979 43.1146C18.3256 30.3778 28.7178 19.7217 41.2694 12.177C53.821 4.6323 68.1071 0.454363 82.7461 0.0472931C97.3851 -0.359776 111.881 3.01779 124.833 9.85331C137.784 16.6888 148.753 26.7509 156.677 39.0664C164.601 51.3819 169.213 65.5339 170.067 80.1536C170.921 94.7733 167.987 109.366 161.55 122.52" fill="white"/>
<path d="M167.77 104.98H2.46V164.72H167.77V104.98Z" fill="white"/>
<path d="M147.41 61.52C147.863 62.5667 148.293 63.6167 148.7 64.67C153.51 57.78 156 51.08 155.58 45.15C147.037 29.8068 133.754 17.6432 117.72 10.48C117.253 13.3674 116.235 16.1379 114.72 18.64C128.22 28.9 139.81 43.72 147.41 61.52ZM91.66 40.52C85.609 44.3643 79.2546 47.7087 72.66 50.52C63.9027 54.3093 54.7394 57.0808 45.35 58.78C48.1877 71.0815 52.0513 83.1237 56.9 94.78C61.0059 94.3989 65.144 94.5536 69.21 95.24C70.1102 95.4592 71.0498 95.4592 71.95 95.24C71.95 95.24 75.77 93.82 77.15 93.17C77.4334 93.0596 77.6879 92.886 77.8941 92.6625C78.1003 92.439 78.2528 92.1713 78.34 91.88C78.7218 89.9884 78.7524 88.0427 78.43 86.14C78.43 86.14 77 81.2 76.14 78.61C75.3383 78.0829 74.772 77.2657 74.56 76.33C74.56 76.33 73.37 72.87 73.17 72.33C73.17 72.33 72.97 70.71 73.87 70.82C73.87 70.82 72.67 67.25 73.47 64.54C73.47 64.54 75.35 56.75 79.11 54.05C79.11 54.05 82.62 51.98 85.92 52.26C88.0012 52.4226 90.0233 53.0296 91.85 54.04C95.62 56.74 97.5 64.53 97.5 64.53C98.3 67.24 97.1 70.81 97.1 70.81C97.99 70.7 97.79 72.32 97.79 72.32C97.59 72.86 96.41 76.32 96.41 76.32C96.1965 77.2578 95.6262 78.0755 94.82 78.6C93.93 81.19 92.55 86.06 92.55 86.06C92.2287 87.9631 92.2626 89.9093 92.65 91.8C92.7362 92.0903 92.8872 92.3573 93.0916 92.5808C93.296 92.8042 93.5485 92.9783 93.83 93.09C95.22 93.74 99.03 95.16 99.03 95.16C99.9336 95.3793 100.876 95.3793 101.78 95.16C105.67 94.5033 109.627 94.332 113.56 94.65C114.64 94.02 115.72 93.38 116.77 92.73C114.83 87.07 112.63 81.3 110.15 75.51C104.996 63.3438 98.8101 51.6411 91.66 40.53V40.52ZM66.87 12.43C63.7278 14.5717 60.3775 16.391 56.87 17.86C52.3418 19.9042 47.5309 21.2527 42.6 21.86C41.06 30.78 41.94 43.06 44.9 56.86C54.1842 55.1789 63.2439 52.4341 71.9 48.68C78.392 45.9248 84.6464 42.6404 90.6 38.86C82.71 27.08 74.5 17.83 66.87 12.43ZM147.34 66.55C146.79 65.13 146.22 63.7 145.62 62.28C138.17 44.87 126.87 30.35 113.73 20.28C109.59 26.67 102.52 33.35 93.29 39.45C100.528 50.6753 106.788 62.5022 112 74.8C114.43 80.49 116.6 86.16 118.52 91.74C130.92 83.86 140.87 75.1 147.34 66.55ZM19.12 58.47C17.0306 71.7912 18.2182 85.4209 22.58 98.18L24.58 97.96C27.4 97.68 31.68 97.55 31.68 97.55C35.02 97.55 41.01 97.75 41.01 97.75C43.8519 97.6856 46.6743 97.2623 49.41 96.49C51.1748 95.7992 53.0086 95.2997 54.88 95C50.0455 83.3693 46.1823 71.3583 43.33 59.09C33.92 60.52 25.49 60.36 19.12 58.47ZM159.37 52.87C158.75 51.43 158.09 50.01 157.37 48.63C156.76 54.29 153.99 60.45 149.45 66.7C153.361 77.0567 155.674 87.9479 156.31 99C159.026 99.5322 161.776 99.8664 164.54 100C167.541 84.1254 165.741 67.7165 159.37 52.87ZM119.11 93.6C119.423 94.4133 119.733 95.1933 120.04 95.94C120.57 96.11 121.04 96.29 121.6 96.49C124.336 97.2627 127.158 97.6861 130 97.75C130 97.75 136 97.59 139.33 97.55C139.33 97.55 143.62 97.68 146.43 97.96C146.43 97.96 150.59 98.44 154.37 98.81C154.79 92.51 153.15 82.62 148.09 68.57C141.39 77.14 131.42 85.82 119.11 93.6ZM17.47 55.84H17.56C19.62 43.48 24.28 32.26 31.44 23.28C22.6794 30.9352 15.6733 40.3903 10.9 51C12.5697 53.221 14.8539 54.9037 17.47 55.84ZM115.85 9.67C104.243 4.81216 91.6648 2.72039 79.11 3.56C90.91 4.89 102.6 9.77 113.18 17.47C114.602 15.0836 115.511 12.4272 115.85 9.67ZM17.24 57.84L16.75 57.65C14.1559 56.7001 11.8371 55.1232 10 53.06C4.63 65.88 2.83 84.93 5.4 100.06C8.66153 99.9927 11.9108 99.638 15.11 99C16.9 98.84 18.92 98.63 20.64 98.44C16.07 83.87 15.52 72.78 17.24 57.84ZM42.91 57.2C40 43.39 39.09 31.13 40.6 21.91C39.579 21.9126 38.5649 21.7436 37.6 21.41C37.1534 21.2331 36.7432 20.9755 36.39 20.65C27.4 30 21.7 42.49 19.42 56.52C25.54 58.41 33.72 58.59 42.91 57.2ZM68.51 11.2C76.18 16.78 84.37 26.07 92.2 37.81C101.2 31.81 108.2 25.28 112.2 19.12C100.2 10.32 86.65 5.27 73.2 5.12C73.118 5.54049 72.9872 5.94995 72.81 6.34C71.7972 8.29101 70.3206 9.96335 68.51 11.21V11.2ZM38.3 19.6C40.75 20.6 47.65 19.68 56.11 16.06C59.9036 14.4947 63.4958 12.4803 66.81 10.06C69.05 8.36 70.48 6.8 70.94 5.66C71.0975 5.35064 71.1297 4.99251 71.03 4.66C71.0097 4.62203 70.9826 4.58813 70.95 4.56C58.8581 6.61925 47.3945 11.4071 37.43 18.56C37.4115 18.7061 37.4322 18.8545 37.49 18.99C37.6689 19.2923 37.96 19.5116 38.3 19.6Z" fill="#006397"/>
<path d="M64.86 132.43C64.15 126.23 63.16 117.04 63.16 117.04C62.5498 114.304 60.9281 111.9 58.62 110.31C56.88 109.07 51.68 109.45 51.68 109.45C45.89 110.45 38.91 108.82 38.91 108.82C38.02 108.49 34.17 107.82 34.17 107.82C31.3273 107.604 28.5095 107.136 25.75 106.42C24.4071 106.207 23.0496 106.1 21.69 106.1C20.119 106.339 18.537 106.5 16.95 106.58C13.718 107.109 10.4445 107.344 7.17 107.28C10 115.1 19.79 138 39.58 148.56L40.86 145.42L47.77 153.36L37.31 154.15L38.84 150.39C18.84 139.83 8.77 117.14 5.56 108.58V161.43H64.48C65.34 158.63 66.48 155.28 66.48 155.28C67.48 152.39 66.88 148.13 66.88 148.13C66 145.45 64.86 132.43 64.86 132.43ZM152.45 106.62C150.866 106.54 149.288 106.38 147.72 106.14C146.36 106.14 145.003 106.247 143.66 106.46C140.9 107.175 138.083 107.643 135.24 107.86C135.24 107.86 131.38 108.49 130.49 108.86C130.49 108.86 123.49 110.46 117.72 109.49C117.72 109.49 112.53 109.11 110.79 110.35C108.48 111.941 106.855 114.344 106.24 117.08C106.24 117.08 105.24 126.27 104.55 132.47C104.55 132.47 103.37 145.47 102.48 148.17C102.48 148.17 101.89 152.43 102.87 155.32C102.87 155.32 104.07 158.67 104.87 161.47H113.39C115.043 160.89 116.67 160.26 118.27 159.58C131.819 153.81 143.514 144.416 152.07 132.43L148.16 130.33L158.27 123.33L157.88 135.61L153.8 133.41C145.028 145.78 132.995 155.473 119.04 161.41L118.8 161.51H164.62V107.29C160.551 107.469 156.475 107.244 152.45 106.62Z" fill="#B67A00"/>
<path d="M7.85 179.52C7.85 176.1 7.66 175.22 5.58 175.04L4.1 174.91C4.01256 174.841 3.94192 174.753 3.89335 174.652C3.84479 174.552 3.81956 174.442 3.81956 174.33C3.81956 174.218 3.84479 174.108 3.89335 174.008C3.94192 173.907 4.01256 173.819 4.1 173.75C6.59 173.52 9.74 173.37 14.03 173.37C16.94 173.37 19.72 173.59 21.8 174.65C22.8918 175.153 23.8095 175.969 24.4363 176.994C25.0631 178.02 25.3707 179.209 25.32 180.41C25.32 183.74 23.39 185.41 20.62 186.75C20.62 187.22 20.99 187.35 21.5 187.44C23.2782 187.785 24.8767 188.748 26.0117 190.16C27.1468 191.571 27.7449 193.339 27.7 195.15C27.7 200.51 23.7 204.15 15.43 204.15C14.09 204.15 11.82 204.02 9.88 204.02C7.94 204.02 6.28 204.12 4.57 204.17C4.42117 204.02 4.32963 203.823 4.31135 203.613C4.29307 203.403 4.34922 203.193 4.47 203.02L5.31 202.88C7.75 202.46 7.85 201.95 7.84 197.09L7.85 179.52ZM11.65 185.66C11.65 186.95 11.65 187.05 14.05 186.95C18.76 186.75 21.3 185.36 21.29 181.02C21.29 176.49 17.91 174.79 14.4 174.8C13.6818 174.754 12.9615 174.849 12.28 175.08C11.81 175.22 11.63 175.45 11.63 176.28L11.65 185.66ZM11.65 196.38C11.65 198.04 11.74 200.38 12.65 201.38C13.1256 201.854 13.701 202.216 14.3342 202.439C14.9674 202.662 15.6424 202.741 16.31 202.67C20.42 202.67 23.55 200.81 23.55 196.19C23.55 192.54 21.69 188.29 14.34 188.3C11.85 188.3 11.66 188.59 11.66 189.51L11.65 196.38Z" fill="#005187"/>
<path d="M49.59 194.65C49.59 200.42 45.59 204.59 39.86 204.6C38.5997 204.649 37.3428 204.437 36.1684 203.977C34.9941 203.517 33.9277 202.819 33.0363 201.927C32.1449 201.034 31.4478 199.967 30.989 198.792C30.5301 197.617 30.3194 196.36 30.37 195.1C30.3308 193.791 30.5569 192.487 31.0349 191.267C31.5128 190.047 32.2326 188.937 33.151 188.002C34.0694 187.068 35.1674 186.329 36.3788 185.83C37.5902 185.332 38.89 185.083 40.2 185.1C41.4529 185.078 42.6973 185.31 43.8572 185.784C45.0172 186.258 46.0685 186.964 46.9471 187.857C47.8257 188.751 48.5131 189.814 48.9674 190.982C49.4218 192.15 49.6336 193.398 49.59 194.65ZM39.65 186.49C36.65 186.49 34.34 189.41 34.34 194.49C34.34 198.69 36.25 203.22 40.34 203.21C44.43 203.2 45.65 198.95 45.64 195.39C45.61 191.47 44 186.48 39.65 186.49Z" fill="#005187"/>
<path d="M69.65 197.16C69.65 200.81 69.65 202.52 71 202.51C71.6844 202.448 72.3573 202.293 73 202.05C73.33 202.14 73.38 203.29 73 203.53C70.9258 203.841 68.8841 204.34 66.9 205.02C66.63 205.02 66.39 204.88 66.39 204.64V203.86C66.4255 203.382 66.3952 202.9 66.3 202.43H66.11C64.4592 203.765 62.4123 204.514 60.29 204.56C55.17 204.56 51.74 200.56 51.73 195.71C51.73 189.24 56.61 185.07 62.89 185.06C63.9387 185.027 64.9858 185.166 65.99 185.47C66.22 185.47 66.27 185.2 66.27 184.83V177.83C66.27 175.1 66.21 174.83 64.83 174L64.36 173.72C64.2489 173.593 64.1876 173.429 64.1876 173.26C64.1876 173.091 64.2489 172.928 64.36 172.8C66.0777 172.289 67.7501 171.637 69.36 170.85C69.4541 170.848 69.5469 170.872 69.6281 170.92C69.7093 170.968 69.7757 171.037 69.82 171.12C69.82 172.51 69.69 174.82 69.69 176.85L69.65 197.16ZM66.22 190.23C66.2698 189.587 66.0851 188.948 65.7 188.43C65.251 187.825 64.6655 187.336 63.9913 187C63.317 186.665 62.573 186.493 61.82 186.5C57.62 186.5 55.45 190.16 55.46 194.18C55.46 198.38 57.83 202.35 62.36 202.34C63.6575 202.327 64.9111 201.868 65.91 201.04C66.1975 200.519 66.3097 199.92 66.23 199.33L66.22 190.23Z" fill="#005187"/>
<path d="M73.56 213.41C73.5389 213.163 73.5719 212.914 73.6568 212.68C73.7416 212.447 73.8763 212.235 74.0514 212.059C74.2265 211.883 74.4378 211.747 74.6707 211.661C74.9036 211.575 75.1525 211.54 75.4 211.56H76.28C76.5848 211.573 76.8874 211.502 77.1552 211.356C77.423 211.21 77.6459 210.993 77.8 210.73C78.8583 209.11 79.7527 207.388 80.47 205.59C80.7208 204.95 80.8758 204.276 80.93 203.59C80.8691 202.487 80.6011 201.404 80.14 200.4L76.52 190.52C75.73 188.35 75.41 187.24 73.79 186.92L72.63 186.69C72.35 186.46 72.4 185.69 72.77 185.53C74.25 185.62 75.63 185.67 77.16 185.66C78.41 185.66 79.7 185.66 81.16 185.52C81.53 185.66 81.57 186.44 81.25 186.67L80.1 186.91C79.45 187.05 79.1 187.19 79.1 187.51C79.4542 188.985 79.9052 190.435 80.45 191.85L81.93 196.1C82.3021 197.224 82.7533 198.32 83.28 199.38C83.9446 198.302 84.5199 197.172 85 196L86.57 192.35C87.28 190.876 87.8201 189.326 88.18 187.73C88.18 187.41 87.9 187.09 87.07 186.95L85.63 186.72C85.31 186.49 85.35 185.72 85.72 185.56C87.2 185.65 88.59 185.7 89.79 185.69C90.99 185.68 92.01 185.69 93.3 185.55C93.3878 185.615 93.4608 185.698 93.5141 185.793C93.5674 185.888 93.5999 185.994 93.6093 186.102C93.6188 186.211 93.605 186.321 93.5689 186.424C93.5328 186.527 93.4753 186.621 93.4 186.7L92.61 186.84C91.09 187.12 90.26 188.46 88.69 191.75L86.09 197C84.57 200.1 80.8 208.14 78.54 213.18C78.346 213.821 77.9479 214.381 77.4063 214.774C76.8648 215.168 76.2094 215.373 75.54 215.36C75.2777 215.379 75.0144 215.342 74.7676 215.251C74.5208 215.16 74.2963 215.017 74.1089 214.833C73.9215 214.648 73.7757 214.426 73.681 214.181C73.5864 213.935 73.5451 213.673 73.56 213.41Z" fill="#005187"/>
<path d="M104.65 196.9C104.65 201.76 104.75 202.45 107.43 202.68L108.91 202.81C109.19 203 109.1 203.81 108.82 203.97C106.19 203.88 104.62 203.84 102.82 203.84C101.02 203.84 99.35 203.84 96.4 203.99C96.3238 203.914 96.2634 203.823 96.2221 203.724C96.1809 203.624 96.1597 203.518 96.1597 203.41C96.1597 203.302 96.1809 203.196 96.2221 203.096C96.2634 202.997 96.3238 202.906 96.4 202.83L98.07 202.69C100.7 202.46 100.93 201.76 100.92 196.91V176.26C100.92 174.83 100.92 174.78 99.53 174.78H96.9C94.9 174.78 92.22 174.78 91.22 175.94C90.3763 176.897 89.6757 177.972 89.14 179.13C88.77 179.41 87.82 179.21 87.94 178.81C88.55 176.92 89.18 173.99 89.69 171.93C89.69 171.76 90.42 171.79 90.56 171.93C90.84 173.41 92.37 173.36 94.49 173.36H113.2C115.7 173.36 116.11 173.26 116.81 172.06C117.04 171.96 117.66 171.99 117.64 172.2C117.45 174.08 117.05 177.74 116.96 179.2C116.96 179.61 115.96 179.57 115.75 179.29C115.61 178.14 115.29 176.43 114.59 175.92C113.53 175.14 111.77 174.77 109.23 174.78H106C104.62 174.78 104.66 174.78 104.67 176.36L104.65 196.9Z" fill="#005187"/>
<path d="M121.55 194.24C122.24 194.01 122.33 193.59 122.33 192.9V190.77C122.33 189.06 121.82 186.77 118.95 186.77C117.66 186.77 116.09 187.42 116 188.85C115.95 189.59 115.91 190.15 115.54 190.43C114.764 190.965 113.852 191.271 112.91 191.31C112.822 191.319 112.734 191.309 112.65 191.28C112.567 191.251 112.492 191.203 112.429 191.141C112.367 191.078 112.319 191.003 112.29 190.92C112.261 190.836 112.251 190.748 112.26 190.66C112.26 188.26 117.47 184.97 120.84 184.96C124.21 184.95 125.84 186.9 125.66 190.36L125.39 198.36C125.31 200.49 125.72 202.36 127.53 202.36C127.93 202.357 128.323 202.261 128.68 202.08C128.91 201.94 129.14 201.75 129.28 201.75C129.42 201.75 129.61 202.03 129.61 202.35C129.166 202.965 128.583 203.466 127.909 203.813C127.235 204.161 126.488 204.345 125.73 204.35C125.154 204.365 124.582 204.244 124.061 203.997C123.54 203.751 123.084 203.385 122.73 202.93C122.55 202.65 122.27 202.28 121.99 202.28C121.35 202.505 120.744 202.818 120.19 203.21C119.203 203.879 118.059 204.279 116.87 204.37C115.697 204.423 114.545 204.046 113.63 203.31C113.177 202.902 112.815 202.404 112.567 201.848C112.319 201.292 112.19 200.689 112.19 200.08C112.19 198.28 113.07 197.21 116.02 196.15L121.55 194.24ZM118.7 202.38C119.73 202.276 120.707 201.873 121.51 201.22C122.07 200.66 122.06 200.01 122.11 199.04L122.2 196.32C122.2 195.81 122.01 195.72 121.73 195.72C121.085 195.801 120.45 195.955 119.84 196.18C117.12 197.11 115.78 197.81 115.78 199.61C115.782 199.986 115.861 200.357 116.01 200.702C116.159 201.047 116.377 201.358 116.65 201.617C116.923 201.876 117.245 202.077 117.597 202.208C117.949 202.339 118.324 202.398 118.7 202.38Z" fill="#005187"/>
<path d="M136.9 198.6C136.9 201.93 137 202.39 138.66 202.6L139.77 202.74C139.843 202.82 139.899 202.914 139.934 203.016C139.969 203.118 139.983 203.227 139.974 203.335C139.966 203.442 139.935 203.547 139.885 203.643C139.834 203.738 139.764 203.823 139.68 203.89C138.16 203.8 136.82 203.76 135.2 203.76C133.58 203.76 132.2 203.81 130.77 203.91C130.686 203.842 130.616 203.757 130.565 203.661C130.514 203.565 130.483 203.46 130.474 203.351C130.465 203.243 130.477 203.134 130.511 203.031C130.545 202.928 130.599 202.832 130.67 202.75L131.73 202.61C133.44 202.38 133.49 201.92 133.48 198.61V177.73C133.48 175 133.48 174.73 132.04 173.89L131.57 173.62C131.462 173.489 131.403 173.325 131.403 173.155C131.403 172.985 131.462 172.821 131.57 172.69C133.288 172.183 134.96 171.534 136.57 170.75C136.664 170.748 136.757 170.773 136.838 170.82C136.919 170.868 136.986 170.937 137.03 171.02C137.03 172.41 136.9 174.72 136.9 176.75V198.6Z" fill="#005187"/>
<path d="M144.68 177.71C144.68 174.98 144.63 174.71 143.24 173.88L142.78 173.6C142.669 173.473 142.608 173.309 142.608 173.14C142.608 172.971 142.669 172.807 142.78 172.68C144.499 172.152 146.171 171.483 147.78 170.68C147.877 170.678 147.972 170.704 148.055 170.753C148.138 170.803 148.205 170.874 148.25 170.96C148.25 172.34 148.11 174.65 148.12 176.68V192.53C148.12 193.13 148.12 193.22 148.96 193.22C149.96 193.22 150.85 192.71 152.09 191.42L153.99 189.42C155.28 188.03 155.6 187.52 155.6 187.29C155.6 187.06 155.37 186.92 154.6 186.83L153.49 186.7C153.395 186.636 153.317 186.55 153.264 186.448C153.21 186.347 153.182 186.235 153.182 186.12C153.182 186.006 153.21 185.893 153.264 185.792C153.317 185.691 153.395 185.604 153.49 185.54H154.55C157.005 185.539 159.458 185.412 161.9 185.16C162.22 185.29 162.27 186.08 161.99 186.31L160.51 186.59C159.423 186.879 158.426 187.436 157.61 188.21C155.81 189.65 154.24 191.31 153.41 192.1C152.86 192.61 152.81 192.84 153.09 193.21C153.88 194.27 154.62 195.15 156.19 196.9C158 198.9 159.62 200.73 160.54 201.61C161.229 202.164 162.061 202.511 162.94 202.61L163.59 202.7C163.92 202.93 163.87 203.7 163.5 203.85C162.16 203.76 160.59 203.72 159.11 203.72C157.26 203.72 155.65 203.78 154.31 203.87C153.94 203.69 153.89 202.87 154.21 202.72L155.05 202.58C155.74 202.48 156.2 202.39 156.2 202.11C156.2 201.83 156.01 201.51 155.41 200.82L150.46 195.1C150.281 194.895 150.059 194.73 149.811 194.618C149.562 194.506 149.293 194.449 149.02 194.45C148.19 194.45 148.15 194.59 148.15 196.03V198.57C148.15 201.89 148.25 202.36 149.92 202.57L151.03 202.71C151.101 202.792 151.154 202.887 151.188 202.99C151.222 203.093 151.235 203.201 151.226 203.309C151.218 203.417 151.188 203.522 151.139 203.618C151.09 203.714 151.022 203.8 150.94 203.87C149.41 203.78 148.07 203.73 146.45 203.73C144.83 203.73 143.4 203.79 142.02 203.88C141.936 203.811 141.867 203.726 141.818 203.628C141.769 203.531 141.741 203.425 141.737 203.316C141.732 203.208 141.75 203.099 141.791 202.998C141.831 202.897 141.892 202.806 141.97 202.73L142.97 202.59C144.68 202.35 144.72 201.89 144.71 198.59L144.68 177.71Z" fill="#005187"/>
</g>
<defs>
<clipPath id="clip0">
<rect width="170.24" height="215.4" fill="white"/>
</clipPath>
</defs>
</svg>
