<svg width="171" height="213" viewBox="0 0 171 213" fill="none" xmlns="http://www.w3.org/2000/svg">
<g clip-path="url(#clip0)">
<path d="M155.63 168.12H154.1V167.28H158.1V168.12H156.56V172.27H155.65L155.63 168.12ZM159.25 167.28H160.67L161.98 170.65L163.26 167.28H164.67V172.28H163.76V168.47L162.35 172.28H161.61L160.21 168.47V172.28H159.3L159.25 167.28Z" fill="white"/>
<path d="M10.87 126.71C3.71193 113.934 -0.0280157 99.5269 0.0119131 84.8824C0.0518419 70.2378 3.87029 55.8514 11.0979 43.1146C18.3256 30.3778 28.7178 19.7217 41.2694 12.177C53.821 4.6323 68.1071 0.454363 82.7461 0.0472931C97.3851 -0.359776 111.881 3.01779 124.833 9.85331C137.784 16.6888 148.753 26.7509 156.677 39.0664C164.601 51.3819 169.213 65.5339 170.067 80.1536C170.921 94.7733 167.987 109.366 161.55 122.52" fill="white"/>
<path d="M167.77 104.98H2.46001V164.72H167.77V104.98Z" fill="white"/>
<path d="M147.41 61.52C147.863 62.5667 148.293 63.6167 148.7 64.67C153.51 57.78 156 51.08 155.58 45.15C147.037 29.8068 133.754 17.6432 117.72 10.48C117.253 13.3674 116.235 16.1379 114.72 18.64C128.22 28.9 139.81 43.72 147.41 61.52ZM91.66 40.52C85.609 44.3643 79.2546 47.7087 72.66 50.52C63.9027 54.3093 54.7394 57.0808 45.35 58.78C48.1877 71.0815 52.0513 83.1237 56.9 94.78C61.0059 94.3989 65.144 94.5536 69.21 95.24C70.1102 95.4592 71.0498 95.4592 71.95 95.24C71.95 95.24 75.77 93.82 77.15 93.17C77.4334 93.0596 77.6879 92.886 77.8941 92.6625C78.1003 92.439 78.2528 92.1713 78.34 91.88C78.7218 89.9884 78.7523 88.0427 78.43 86.14C78.43 86.14 77 81.2 76.14 78.61C75.3383 78.0829 74.772 77.2657 74.56 76.33C74.56 76.33 73.37 72.87 73.17 72.33C73.17 72.33 72.97 70.71 73.87 70.82C73.87 70.82 72.67 67.25 73.47 64.54C73.47 64.54 75.35 56.75 79.11 54.05C79.11 54.05 82.62 51.98 85.92 52.26C88.0012 52.4226 90.0233 53.0296 91.85 54.04C95.62 56.74 97.5 64.53 97.5 64.53C98.3 67.24 97.1 70.81 97.1 70.81C97.99 70.7 97.79 72.32 97.79 72.32C97.59 72.86 96.41 76.32 96.41 76.32C96.1965 77.2578 95.6262 78.0755 94.82 78.6C93.93 81.19 92.55 86.06 92.55 86.06C92.2287 87.9631 92.2626 89.9093 92.65 91.8C92.7362 92.0903 92.8872 92.3573 93.0916 92.5808C93.296 92.8042 93.5485 92.9783 93.83 93.09C95.22 93.74 99.03 95.16 99.03 95.16C99.9335 95.3793 100.876 95.3793 101.78 95.16C105.67 94.5033 109.627 94.332 113.56 94.65C114.64 94.02 115.72 93.38 116.77 92.73C114.83 87.07 112.63 81.3 110.15 75.51C104.996 63.3438 98.8101 51.6411 91.66 40.53V40.52ZM66.87 12.43C63.7278 14.5717 60.3775 16.391 56.87 17.86C52.3418 19.9042 47.5309 21.2527 42.6 21.86C41.06 30.78 41.94 43.06 44.9 56.86C54.1842 55.1789 63.2439 52.4341 71.9 48.68C78.392 45.9248 84.6464 42.6404 90.6 38.86C82.71 27.08 74.5 17.83 66.87 12.43ZM147.34 66.55C146.79 65.13 146.22 63.7 145.62 62.28C138.17 44.87 126.87 30.35 113.73 20.28C109.59 26.67 102.52 33.35 93.29 39.45C100.528 50.6753 106.788 62.5022 112 74.8C114.43 80.49 116.6 86.16 118.52 91.74C130.92 83.86 140.87 75.1 147.34 66.55ZM19.12 58.47C17.0306 71.7912 18.2182 85.4209 22.58 98.18L24.58 97.96C27.4 97.68 31.68 97.55 31.68 97.55C35.02 97.55 41.01 97.75 41.01 97.75C43.8519 97.6856 46.6743 97.2623 49.41 96.49C51.1748 95.7992 53.0086 95.2997 54.88 95C50.0455 83.3693 46.1823 71.3583 43.33 59.09C33.92 60.52 25.49 60.36 19.12 58.47ZM159.37 52.87C158.75 51.43 158.09 50.01 157.37 48.63C156.76 54.29 153.99 60.45 149.45 66.7C153.361 77.0567 155.674 87.9479 156.31 99C159.025 99.5322 161.776 99.8664 164.54 100C167.541 84.1254 165.741 67.7165 159.37 52.87ZM119.11 93.6C119.423 94.4133 119.733 95.1933 120.04 95.94C120.57 96.11 121.04 96.29 121.6 96.49C124.336 97.2627 127.158 97.6861 130 97.75C130 97.75 136 97.59 139.33 97.55C139.33 97.55 143.62 97.68 146.43 97.96C146.43 97.96 150.59 98.44 154.37 98.81C154.79 92.51 153.15 82.62 148.09 68.57C141.39 77.14 131.42 85.82 119.11 93.6ZM17.47 55.84H17.56C19.62 43.48 24.28 32.26 31.44 23.28C22.6793 30.9352 15.6733 40.3903 10.9 51C12.5697 53.221 14.8539 54.9037 17.47 55.84ZM115.85 9.67C104.243 4.81216 91.6648 2.72039 79.11 3.56C90.91 4.89 102.6 9.77 113.18 17.47C114.602 15.0836 115.511 12.4272 115.85 9.67ZM17.24 57.84L16.75 57.65C14.1559 56.7001 11.8371 55.1232 10 53.06C4.63 65.88 2.83 84.93 5.4 100.06C8.66152 99.9927 11.9108 99.638 15.11 99C16.9 98.84 18.92 98.63 20.64 98.44C16.07 83.87 15.52 72.78 17.24 57.84ZM42.91 57.2C40 43.39 39.09 31.13 40.6 21.91C39.579 21.9126 38.5649 21.7436 37.6 21.41C37.1534 21.2331 36.7432 20.9755 36.39 20.65C27.4 30 21.7 42.49 19.42 56.52C25.54 58.41 33.72 58.59 42.91 57.2ZM68.51 11.2C76.18 16.78 84.37 26.07 92.2 37.81C101.2 31.81 108.2 25.28 112.2 19.12C100.2 10.32 86.65 5.27 73.2 5.12C73.118 5.54049 72.9872 5.94995 72.81 6.34C71.7972 8.29101 70.3206 9.96335 68.51 11.21V11.2ZM38.3 19.6C40.75 20.6 47.65 19.68 56.11 16.06C59.9036 14.4947 63.4958 12.4803 66.81 10.06C69.05 8.36 70.48 6.8 70.94 5.66C71.0975 5.35064 71.1297 4.99251 71.03 4.66C71.0097 4.62203 70.9826 4.58813 70.95 4.56C58.8581 6.61925 47.3945 11.4071 37.43 18.56C37.4115 18.7061 37.4322 18.8545 37.49 18.99C37.6688 19.2923 37.96 19.5116 38.3 19.6Z" fill="#006397"/>
<path d="M64.86 132.43C64.15 126.23 63.16 117.04 63.16 117.04C62.5498 114.304 60.9281 111.9 58.62 110.31C56.88 109.07 51.68 109.45 51.68 109.45C45.89 110.45 38.91 108.82 38.91 108.82C38.02 108.49 34.17 107.82 34.17 107.82C31.3273 107.604 28.5095 107.136 25.75 106.42C24.4071 106.207 23.0496 106.1 21.69 106.1C20.119 106.339 18.537 106.5 16.95 106.58C13.718 107.109 10.4445 107.344 7.17 107.28C10 115.1 19.79 138 39.58 148.56L40.86 145.42L47.77 153.36L37.31 154.15L38.84 150.39C18.84 139.83 8.77 117.14 5.56 108.58V161.43H64.48C65.34 158.63 66.48 155.28 66.48 155.28C67.48 152.39 66.88 148.13 66.88 148.13C66 145.45 64.86 132.43 64.86 132.43ZM152.45 106.62C150.866 106.54 149.288 106.38 147.72 106.14C146.36 106.14 145.003 106.247 143.66 106.46C140.9 107.175 138.083 107.643 135.24 107.86C135.24 107.86 131.38 108.49 130.49 108.86C130.49 108.86 123.49 110.46 117.72 109.49C117.72 109.49 112.53 109.11 110.79 110.35C108.48 111.941 106.855 114.344 106.24 117.08C106.24 117.08 105.24 126.27 104.55 132.47C104.55 132.47 103.37 145.47 102.48 148.17C102.48 148.17 101.89 152.43 102.87 155.32C102.87 155.32 104.07 158.67 104.87 161.47H113.39C115.043 160.89 116.67 160.26 118.27 159.58C131.819 153.81 143.514 144.416 152.07 132.43L148.16 130.33L158.27 123.33L157.88 135.61L153.8 133.41C145.028 145.78 132.995 155.473 119.04 161.41L118.8 161.51H164.62V107.29C160.551 107.469 156.475 107.244 152.45 106.62Z" fill="#B67A00"/>
<path d="M7.85 176.52C7.85 173.1 7.66 172.22 5.58 172.04L4.1 171.91C4.01256 171.841 3.94192 171.753 3.89335 171.652C3.84479 171.552 3.81956 171.442 3.81956 171.33C3.81956 171.218 3.84479 171.108 3.89335 171.008C3.94192 170.907 4.01256 170.819 4.1 170.75C6.59 170.52 9.74 170.37 14.03 170.37C16.94 170.37 19.72 170.59 21.8 171.65C22.8918 172.153 23.8095 172.969 24.4363 173.994C25.0631 175.02 25.3707 176.209 25.32 177.41C25.32 180.74 23.39 182.41 20.62 183.75C20.62 184.22 20.99 184.35 21.5 184.44C23.2782 184.785 24.8767 185.748 26.0117 187.16C27.1468 188.571 27.7449 190.339 27.7 192.15C27.7 197.51 23.7 201.15 15.43 201.15C14.09 201.15 11.82 201.02 9.88 201.02C7.94 201.02 6.28 201.12 4.57 201.17C4.42117 201.02 4.32963 200.823 4.31135 200.613C4.29307 200.403 4.34922 200.193 4.47 200.02L5.31 199.88C7.75 199.46 7.85 198.95 7.84 194.09L7.85 176.52ZM11.65 182.66C11.65 183.95 11.65 184.05 14.05 183.95C18.76 183.75 21.3 182.36 21.29 178.02C21.29 173.49 17.91 171.79 14.4 171.8C13.6818 171.754 12.9615 171.849 12.28 172.08C11.81 172.22 11.63 172.45 11.63 173.28L11.65 182.66ZM11.65 193.38C11.65 195.04 11.74 197.38 12.65 198.38C13.1256 198.854 13.701 199.216 14.3342 199.439C14.9674 199.662 15.6424 199.741 16.31 199.67C20.42 199.67 23.55 197.81 23.55 193.19C23.55 189.54 21.69 185.29 14.34 185.3C11.85 185.3 11.66 185.59 11.66 186.51L11.65 193.38Z" fill="white"/>
<path d="M49.59 191.65C49.59 197.42 45.59 201.59 39.86 201.6C38.5997 201.649 37.3428 201.437 36.1684 200.977C34.9941 200.517 33.9277 199.819 33.0363 198.927C32.1449 198.034 31.4478 196.967 30.989 195.792C30.5301 194.617 30.3194 193.36 30.37 192.1C30.3308 190.791 30.5569 189.487 31.0349 188.267C31.5128 187.047 32.2326 185.937 33.151 185.002C34.0694 184.068 35.1674 183.329 36.3788 182.83C37.5902 182.332 38.89 182.083 40.2 182.1C41.4529 182.078 42.6973 182.31 43.8572 182.784C45.0172 183.258 46.0685 183.964 46.9471 184.857C47.8257 185.751 48.5131 186.814 48.9674 187.982C49.4218 189.15 49.6336 190.398 49.59 191.65ZM39.65 183.49C36.65 183.49 34.34 186.41 34.34 191.49C34.34 195.69 36.25 200.22 40.34 200.21C44.43 200.2 45.65 195.95 45.64 192.39C45.61 188.47 44 183.48 39.65 183.49Z" fill="white"/>
<path d="M69.65 194.16C69.65 197.81 69.65 199.52 71 199.51C71.6844 199.448 72.3573 199.293 73 199.05C73.33 199.14 73.38 200.29 73 200.53C70.9258 200.841 68.8842 201.34 66.9 202.02C66.63 202.02 66.39 201.88 66.39 201.64V200.86C66.4255 200.382 66.3952 199.9 66.3 199.43H66.11C64.4592 200.765 62.4123 201.514 60.29 201.56C55.17 201.56 51.74 197.56 51.73 192.71C51.73 186.24 56.61 182.07 62.89 182.06C63.9388 182.027 64.9858 182.166 65.99 182.47C66.22 182.47 66.27 182.2 66.27 181.83V174.83C66.27 172.1 66.21 171.83 64.83 171L64.36 170.72C64.2489 170.593 64.1876 170.429 64.1876 170.26C64.1876 170.091 64.2489 169.928 64.36 169.8C66.0777 169.289 67.7501 168.637 69.36 167.85C69.4541 167.848 69.5469 167.872 69.6281 167.92C69.7093 167.968 69.7757 168.037 69.82 168.12C69.82 169.51 69.69 171.82 69.69 173.85L69.65 194.16ZM66.22 187.23C66.2698 186.587 66.0851 185.948 65.7 185.43C65.251 184.825 64.6656 184.336 63.9913 184C63.317 183.665 62.5731 183.493 61.82 183.5C57.62 183.5 55.45 187.16 55.46 191.18C55.46 195.38 57.83 199.35 62.36 199.34C63.6575 199.327 64.9111 198.868 65.91 198.04C66.1976 197.519 66.3098 196.92 66.23 196.33L66.22 187.23Z" fill="white"/>
<path d="M73.56 210.41C73.5389 210.163 73.5719 209.914 73.6568 209.68C73.7416 209.447 73.8763 209.235 74.0514 209.059C74.2265 208.883 74.4378 208.747 74.6707 208.661C74.9036 208.575 75.1525 208.54 75.4 208.56H76.28C76.5849 208.573 76.8874 208.502 77.1552 208.356C77.423 208.21 77.6459 207.993 77.8 207.73C78.8583 206.11 79.7527 204.388 80.47 202.59C80.7208 201.95 80.8758 201.276 80.93 200.59C80.8691 199.487 80.6011 198.404 80.14 197.4L76.52 187.52C75.73 185.35 75.41 184.24 73.79 183.92L72.63 183.69C72.35 183.46 72.4 182.69 72.77 182.53C74.25 182.62 75.63 182.67 77.16 182.66C78.41 182.66 79.7 182.66 81.16 182.52C81.53 182.66 81.57 183.44 81.25 183.67L80.1 183.91C79.45 184.05 79.1 184.19 79.1 184.51C79.4543 185.985 79.9052 187.435 80.45 188.85L81.93 193.1C82.3022 194.224 82.7533 195.32 83.28 196.38C83.9446 195.302 84.5199 194.172 85 193L86.57 189.35C87.28 187.876 87.8201 186.326 88.18 184.73C88.18 184.41 87.9 184.09 87.07 183.95L85.63 183.72C85.31 183.49 85.35 182.72 85.72 182.56C87.2 182.65 88.59 182.7 89.79 182.69C90.99 182.68 92.01 182.69 93.3 182.55C93.3878 182.615 93.4608 182.698 93.5141 182.793C93.5674 182.888 93.5999 182.994 93.6093 183.102C93.6188 183.211 93.605 183.321 93.5689 183.424C93.5328 183.527 93.4753 183.621 93.4 183.7L92.61 183.84C91.09 184.12 90.26 185.46 88.69 188.75L86.09 194C84.57 197.1 80.8 205.14 78.54 210.18C78.3461 210.821 77.948 211.381 77.4064 211.774C76.8648 212.168 76.2094 212.373 75.54 212.36C75.2777 212.379 75.0144 212.342 74.7676 212.251C74.5208 212.16 74.2963 212.017 74.1089 211.833C73.9215 211.648 73.7757 211.426 73.681 211.181C73.5864 210.935 73.5451 210.673 73.56 210.41Z" fill="white"/>
<path d="M104.65 193.9C104.65 198.76 104.75 199.45 107.43 199.68L108.91 199.81C109.19 200 109.1 200.81 108.82 200.97C106.19 200.88 104.62 200.84 102.82 200.84C101.02 200.84 99.35 200.84 96.4 200.99C96.3238 200.914 96.2634 200.823 96.2221 200.724C96.1809 200.624 96.1597 200.518 96.1597 200.41C96.1597 200.302 96.1809 200.196 96.2221 200.096C96.2634 199.997 96.3238 199.906 96.4 199.83L98.07 199.69C100.7 199.46 100.93 198.76 100.92 193.91V173.26C100.92 171.83 100.92 171.78 99.53 171.78H96.9C94.9 171.78 92.22 171.78 91.22 172.94C90.3763 173.897 89.6757 174.972 89.14 176.13C88.77 176.41 87.82 176.21 87.94 175.81C88.55 173.92 89.18 170.99 89.69 168.93C89.69 168.76 90.42 168.79 90.56 168.93C90.84 170.41 92.37 170.36 94.49 170.36H113.2C115.7 170.36 116.11 170.26 116.81 169.06C117.04 168.96 117.66 168.99 117.64 169.2C117.45 171.08 117.05 174.74 116.96 176.2C116.96 176.61 115.96 176.57 115.75 176.29C115.61 175.14 115.29 173.43 114.59 172.92C113.53 172.14 111.77 171.77 109.23 171.78H106C104.62 171.78 104.66 171.78 104.67 173.36L104.65 193.9Z" fill="white"/>
<path d="M121.55 191.24C122.24 191.01 122.33 190.59 122.33 189.9V187.77C122.33 186.06 121.82 183.77 118.95 183.77C117.66 183.77 116.09 184.42 116 185.85C115.95 186.59 115.91 187.15 115.54 187.43C114.764 187.965 113.852 188.271 112.91 188.31C112.822 188.319 112.734 188.309 112.65 188.28C112.567 188.251 112.492 188.203 112.429 188.141C112.367 188.078 112.319 188.003 112.29 187.92C112.261 187.836 112.251 187.748 112.26 187.66C112.26 185.26 117.47 181.97 120.84 181.96C124.21 181.95 125.84 183.9 125.66 187.36L125.39 195.36C125.31 197.49 125.72 199.36 127.53 199.36C127.93 199.357 128.323 199.261 128.68 199.08C128.91 198.94 129.14 198.75 129.28 198.75C129.42 198.75 129.61 199.03 129.61 199.35C129.166 199.965 128.583 200.466 127.909 200.813C127.235 201.161 126.488 201.345 125.73 201.35C125.154 201.365 124.582 201.244 124.061 200.997C123.54 200.751 123.084 200.385 122.73 199.93C122.55 199.65 122.27 199.28 121.99 199.28C121.35 199.505 120.744 199.818 120.19 200.21C119.203 200.879 118.059 201.279 116.87 201.37C115.697 201.423 114.545 201.046 113.63 200.31C113.177 199.902 112.815 199.404 112.567 198.848C112.319 198.292 112.19 197.689 112.19 197.08C112.19 195.28 113.07 194.21 116.02 193.15L121.55 191.24ZM118.7 199.38C119.73 199.276 120.707 198.873 121.51 198.22C122.07 197.66 122.06 197.01 122.11 196.04L122.2 193.32C122.2 192.81 122.01 192.72 121.73 192.72C121.085 192.801 120.45 192.955 119.84 193.18C117.12 194.11 115.78 194.81 115.78 196.61C115.782 196.986 115.861 197.357 116.01 197.702C116.159 198.047 116.377 198.358 116.65 198.617C116.923 198.876 117.245 199.077 117.597 199.208C117.949 199.339 118.324 199.398 118.7 199.38Z" fill="white"/>
<path d="M136.9 195.6C136.9 198.93 137 199.39 138.66 199.6L139.77 199.74C139.843 199.82 139.899 199.914 139.934 200.016C139.969 200.118 139.983 200.227 139.974 200.335C139.966 200.442 139.935 200.547 139.885 200.643C139.834 200.738 139.764 200.823 139.68 200.89C138.16 200.8 136.82 200.76 135.2 200.76C133.58 200.76 132.2 200.81 130.77 200.91C130.686 200.842 130.616 200.757 130.565 200.661C130.514 200.565 130.483 200.46 130.474 200.351C130.465 200.243 130.477 200.134 130.511 200.031C130.545 199.928 130.599 199.832 130.67 199.75L131.73 199.61C133.44 199.38 133.49 198.92 133.48 195.61V174.73C133.48 172 133.48 171.73 132.04 170.89L131.57 170.62C131.462 170.489 131.403 170.325 131.403 170.155C131.403 169.985 131.462 169.821 131.57 169.69C133.288 169.183 134.96 168.534 136.57 167.75C136.664 167.748 136.757 167.773 136.838 167.82C136.919 167.868 136.986 167.937 137.03 168.02C137.03 169.41 136.9 171.72 136.9 173.75V195.6Z" fill="white"/>
<path d="M144.68 174.71C144.68 171.98 144.63 171.71 143.24 170.88L142.78 170.6C142.669 170.473 142.608 170.309 142.608 170.14C142.608 169.971 142.669 169.807 142.78 169.68C144.499 169.152 146.171 168.483 147.78 167.68C147.877 167.678 147.972 167.704 148.055 167.753C148.138 167.803 148.205 167.874 148.25 167.96C148.25 169.34 148.11 171.65 148.12 173.68V189.53C148.12 190.13 148.12 190.22 148.96 190.22C149.96 190.22 150.85 189.71 152.09 188.42L153.99 186.42C155.28 185.03 155.6 184.52 155.6 184.29C155.6 184.06 155.37 183.92 154.6 183.83L153.49 183.7C153.395 183.636 153.317 183.55 153.264 183.448C153.21 183.347 153.182 183.235 153.182 183.12C153.182 183.006 153.21 182.893 153.264 182.792C153.317 182.691 153.395 182.604 153.49 182.54H154.55C157.005 182.539 159.458 182.412 161.9 182.16C162.22 182.29 162.27 183.08 161.99 183.31L160.51 183.59C159.423 183.879 158.426 184.436 157.61 185.21C155.81 186.65 154.24 188.31 153.41 189.1C152.86 189.61 152.81 189.84 153.09 190.21C153.88 191.27 154.62 192.15 156.19 193.9C158 195.9 159.62 197.73 160.54 198.61C161.229 199.164 162.061 199.511 162.94 199.61L163.59 199.7C163.92 199.93 163.87 200.7 163.5 200.85C162.16 200.76 160.59 200.72 159.11 200.72C157.26 200.72 155.65 200.78 154.31 200.87C153.94 200.69 153.89 199.87 154.21 199.72L155.05 199.58C155.74 199.48 156.2 199.39 156.2 199.11C156.2 198.83 156.01 198.51 155.41 197.82L150.46 192.1C150.281 191.895 150.059 191.73 149.811 191.618C149.562 191.506 149.293 191.449 149.02 191.45C148.19 191.45 148.15 191.59 148.15 193.03V195.57C148.15 198.89 148.25 199.36 149.92 199.57L151.03 199.71C151.101 199.792 151.154 199.887 151.188 199.99C151.222 200.093 151.235 200.201 151.226 200.309C151.218 200.417 151.188 200.522 151.139 200.618C151.09 200.714 151.022 200.8 150.94 200.87C149.41 200.78 148.07 200.73 146.45 200.73C144.83 200.73 143.4 200.79 142.02 200.88C141.936 200.811 141.867 200.726 141.818 200.628C141.769 200.531 141.741 200.425 141.737 200.316C141.732 200.208 141.75 200.099 141.791 199.998C141.831 199.897 141.892 199.806 141.97 199.73L142.97 199.59C144.68 199.35 144.72 198.89 144.71 195.59L144.68 174.71Z" fill="white"/>
</g>
<defs>
<clipPath id="clip0">
<rect width="170.24" height="212.4" fill="white"/>
</clipPath>
</defs>
</svg>
