<svg width="172" height="221" viewBox="0 0 172 221" fill="none" xmlns="http://www.w3.org/2000/svg">
<g clip-path="url(#clip0)">
<path d="M6.59001 180.74C6.59001 177.12 6.39001 176.19 4.18001 176L2.62001 175.86C2.52817 175.786 2.45409 175.692 2.40319 175.586C2.35229 175.479 2.32587 175.363 2.32587 175.245C2.32587 175.127 2.35229 175.011 2.40319 174.904C2.45409 174.798 2.52817 174.704 2.62001 174.63C5.26001 174.39 8.62001 174.23 13.13 174.23C16.21 174.23 19.13 174.46 21.34 175.58C22.4981 176.113 23.4714 176.979 24.1357 178.067C24.7999 179.155 25.1252 180.416 25.07 181.69C25.07 185.21 23.07 187.02 20.07 188.39C20.07 188.88 20.46 189.03 21 189.12C22.8823 189.484 24.5744 190.504 25.7756 191.998C26.9768 193.492 27.6091 195.364 27.56 197.28C27.56 202.95 23.37 206.77 14.56 206.78C13.14 206.78 10.75 206.64 8.69001 206.64C6.63001 206.64 4.88001 206.75 3.07001 206.8C2.92055 206.636 2.82963 206.428 2.81153 206.207C2.79343 205.986 2.84917 205.766 2.97001 205.58L3.85001 205.43C6.44001 204.99 6.54001 204.43 6.53001 199.32L6.59001 180.74ZM10.59 187.24C10.59 188.6 10.64 188.7 13.13 188.6C18.13 188.39 20.81 186.92 20.8 182.33C20.8 177.54 17.22 175.73 13.5 175.74C12.7378 175.696 11.9741 175.798 11.25 176.04C10.77 176.19 10.57 176.43 10.57 177.31L10.59 187.24ZM10.59 198.58C10.59 200.34 10.69 202.83 11.59 203.9C12.0903 204.404 12.6985 204.789 13.3688 205.024C14.0391 205.26 14.7541 205.341 15.46 205.26C19.81 205.26 23.13 203.26 23.12 198.41C23.12 194.55 21.12 190.05 13.38 190.07C10.74 190.07 10.54 190.36 10.55 191.34L10.59 198.58Z" fill="#005187"/>
<path d="M50.76 196.75C50.76 202.86 46.58 207.26 40.46 207.27C39.1292 207.319 37.8026 207.093 36.5636 206.605C35.3247 206.117 34.2002 205.377 33.2609 204.433C32.3216 203.489 31.5878 202.361 31.1058 201.12C30.6238 199.878 30.4039 198.55 30.46 197.22C30.4181 195.835 30.6567 194.456 31.1616 193.166C31.6665 191.876 32.4272 190.702 33.3978 189.713C34.3685 188.725 35.5291 187.943 36.8098 187.415C38.0905 186.887 39.4648 186.623 40.85 186.64C42.1735 186.622 43.4869 186.872 44.7107 187.376C45.9346 187.88 47.0433 188.628 47.9698 189.573C48.8964 190.518 49.6214 191.642 50.101 192.875C50.5806 194.109 50.8048 195.427 50.76 196.75ZM40.24 188.11C37.01 188.11 34.62 191.2 34.63 196.58C34.63 201.03 36.63 205.82 40.95 205.81C45.27 205.8 46.57 201.3 46.56 197.54C46.55 193.38 44.88 188.1 40.24 188.11Z" fill="#005187"/>
<path d="M72 199.4C72 203.26 72.06 205.07 73.43 205.07C74.1487 205.001 74.8549 204.836 75.53 204.58C75.87 204.67 75.93 205.89 75.48 206.14C73.277 206.471 71.1082 207 69 207.72C68.71 207.72 68.47 207.57 68.47 207.33V206.5C68.5024 205.991 68.4654 205.479 68.36 204.98H68.17C66.02 206.45 64.36 207.23 62.01 207.24C56.59 207.24 52.96 203 52.95 197.87C52.95 191.02 58.12 186.62 64.76 186.6C65.8703 186.562 66.9791 186.71 68.04 187.04C68.29 187.04 68.33 186.74 68.33 186.35V179C68.33 176.12 68.33 175.82 66.81 174.95L66.32 174.65C66.1927 174.515 66.1219 174.336 66.1219 174.15C66.1219 173.964 66.1927 173.785 66.32 173.65C68.129 173.13 69.8917 172.461 71.59 171.65C71.6913 171.644 71.792 171.668 71.8792 171.72C71.9665 171.772 72.0364 171.848 72.08 171.94C72.08 173.4 71.94 175.85 71.94 178L72 199.4ZM68.37 192.07C68.4241 191.392 68.2324 190.718 67.83 190.17C67.3483 189.539 66.7258 189.03 66.0121 188.683C65.2985 188.335 64.5136 188.16 63.72 188.17C59.27 188.17 56.98 192.04 56.99 196.3C56.99 200.75 59.5 204.95 64.29 204.94C65.6544 204.904 66.9648 204.399 68 203.51C68.3003 202.957 68.4192 202.324 68.34 201.7L68.37 192.07Z" fill="#005187"/>
<path d="M76.12 216.6C76.0929 216.335 76.1243 216.067 76.2119 215.816C76.2996 215.564 76.4414 215.335 76.6274 215.144C76.8134 214.953 77.039 214.806 77.2882 214.712C77.5375 214.618 77.8044 214.58 78.07 214.6H79C79.3233 214.616 79.6447 214.542 79.9288 214.386C80.2128 214.231 80.4485 214.001 80.61 213.72C81.7263 212.006 82.674 210.187 83.44 208.29C83.6969 207.616 83.8584 206.909 83.92 206.19C83.8554 205.022 83.574 203.875 83.09 202.81L79.26 192.4C78.42 190.1 78.07 188.93 76.36 188.59L75.14 188.35C74.85 188.1 74.9 187.27 75.28 187.12C76.85 187.22 78.28 187.26 79.93 187.26C81.25 187.26 82.62 187.26 84.18 187.11C84.58 187.25 84.63 188.11 84.28 188.33L83.06 188.58C82.38 188.73 81.99 188.87 81.99 189.21C82.3641 190.772 82.8384 192.309 83.41 193.81L85 198.3C85.3977 199.488 85.8755 200.647 86.43 201.77C87.1316 200.617 87.7338 199.406 88.23 198.15L89.89 194.29C90.6408 192.726 91.2111 191.083 91.59 189.39C91.59 189.05 91.3 188.71 90.41 188.56L88.9 188.32C88.8188 188.237 88.7564 188.138 88.7169 188.028C88.6775 187.919 88.662 187.803 88.6715 187.687C88.681 187.571 88.7152 187.459 88.7719 187.358C88.8286 187.257 88.9064 187.169 89 187.1C90.57 187.2 92 187.24 93.31 187.24C94.62 187.24 95.65 187.19 97.02 187.09C97.1123 187.16 97.1888 187.248 97.2445 187.349C97.3002 187.45 97.3339 187.562 97.3434 187.678C97.3528 187.793 97.3378 187.909 97.2993 188.018C97.2608 188.127 97.1997 188.226 97.12 188.31L96.29 188.46C94.68 188.75 93.8 190.17 92.14 193.65L89.42 199.27C87.81 202.55 83.81 211.06 81.42 216.4C80.59 218.26 79.42 218.7 78.29 218.7C78.0048 218.725 77.7176 218.688 77.4478 218.592C77.1781 218.496 76.932 218.344 76.7263 218.145C76.5205 217.946 76.36 217.705 76.2554 217.438C76.1508 217.172 76.1046 216.886 76.12 216.6Z" fill="#005187"/>
<path d="M109 199.13C109 204.27 109.11 205 112 205.24L113.56 205.39C113.85 205.58 113.76 206.46 113.46 206.61C110.68 206.51 109.02 206.47 107.06 206.47C105.1 206.47 103.39 206.53 100.26 206.63C100.18 206.55 100.116 206.455 100.072 206.35C100.029 206.246 100.006 206.133 100.006 206.02C100.006 205.907 100.029 205.794 100.072 205.69C100.116 205.585 100.18 205.49 100.26 205.41L102.02 205.26C104.81 205.01 105.02 204.26 105.02 199.14V177.29C105.02 175.77 105.02 175.72 103.55 175.73H100.86C98.75 175.73 95.91 175.73 94.86 176.96C93.9693 177.976 93.2284 179.114 92.66 180.34C92.27 180.63 91.26 180.42 91.39 180C92.03 178 92.7 174.9 93.24 172.71C93.24 172.54 94.02 172.57 94.17 172.71C94.46 174.27 96.08 174.22 98.32 174.22H118.12C120.76 174.22 121.2 174.11 121.93 172.84C122.18 172.74 122.84 172.77 122.81 172.99C122.62 174.99 122.19 178.86 122.09 180.42C122.09 180.85 121.09 180.81 120.82 180.52C120.67 179.3 120.33 177.52 119.59 176.95C118.47 176.12 116.59 175.73 113.92 175.74H110.4C108.93 175.74 108.98 175.8 108.99 177.41L109 199.13Z" fill="#005187"/>
<path d="M126.9 196.31C127.63 196.07 127.73 195.63 127.73 194.89V192.65C127.73 190.84 127.19 188.39 124.16 188.4C122.79 188.4 121.16 189.09 121.03 190.6C121.03 191.39 120.94 191.97 120.55 192.27C119.728 192.84 118.76 193.163 117.76 193.2C117.668 193.211 117.575 193.202 117.487 193.171C117.399 193.141 117.32 193.091 117.254 193.026C117.189 192.96 117.139 192.881 117.109 192.793C117.078 192.705 117.069 192.612 117.08 192.52C117.08 189.98 122.59 186.52 126.16 186.52C129.73 186.52 131.4 188.52 131.25 192.23L130.97 200.74C130.88 202.99 131.32 204.99 133.23 204.99C133.654 204.986 134.072 204.884 134.45 204.69C134.7 204.54 134.94 204.35 135.09 204.35C135.24 204.35 135.43 204.64 135.43 204.98C134.965 205.638 134.351 206.176 133.639 206.552C132.926 206.927 132.135 207.129 131.33 207.14C130.719 207.156 130.112 207.028 129.559 206.765C129.007 206.503 128.524 206.114 128.15 205.63C127.95 205.34 127.66 204.95 127.36 204.95C126.682 205.191 126.042 205.528 125.46 205.95C124.415 206.661 123.201 207.085 121.94 207.18C120.701 207.238 119.484 206.84 118.52 206.06C118.04 205.63 117.656 205.102 117.394 204.513C117.132 203.923 116.998 203.285 117 202.64C117 200.73 117.92 199.64 121 198.48L126.9 196.31ZM123.9 204.92C125 204.825 126.046 204.4 126.9 203.7C127.49 203.11 127.49 202.43 127.53 201.4L127.63 198.51C127.63 197.98 127.43 197.88 127.14 197.88C126.457 197.969 125.787 198.134 125.14 198.37C122.25 199.37 120.84 200.09 120.84 202C120.841 202.393 120.921 202.782 121.076 203.144C121.231 203.506 121.457 203.833 121.74 204.105C122.024 204.378 122.36 204.59 122.727 204.73C123.095 204.87 123.487 204.935 123.88 204.92H123.9Z" fill="#005187"/>
<path d="M143.15 200.93C143.15 204.45 143.25 204.93 145.01 205.18L146.19 205.33C146.264 205.416 146.321 205.517 146.356 205.625C146.391 205.733 146.404 205.847 146.395 205.961C146.386 206.074 146.354 206.185 146.302 206.286C146.249 206.387 146.177 206.477 146.09 206.55C144.48 206.46 143.09 206.41 141.35 206.41C139.61 206.41 138.12 206.47 136.66 206.57C136.57 206.498 136.496 206.409 136.442 206.308C136.388 206.207 136.356 206.096 136.346 205.982C136.337 205.867 136.351 205.752 136.388 205.644C136.425 205.535 136.483 205.435 136.56 205.35L137.68 205.2C139.49 204.95 139.54 204.46 139.53 200.94V178.84C139.53 175.96 139.48 175.67 138.01 174.79L137.52 174.5C137.399 174.361 137.332 174.184 137.332 174C137.332 173.816 137.399 173.638 137.52 173.5C139.332 172.954 141.097 172.265 142.8 171.44C142.901 171.438 143 171.464 143.086 171.515C143.173 171.566 143.243 171.641 143.29 171.73C143.24 173.2 143.14 175.64 143.15 177.79V200.93Z" fill="#005187"/>
<path d="M151.38 178.82C151.38 175.94 151.32 175.65 149.86 174.82L149.37 174.53C149.243 174.395 149.172 174.216 149.172 174.03C149.172 173.844 149.243 173.665 149.37 173.53C151.18 172.988 152.943 172.299 154.64 171.47C154.741 171.464 154.842 171.489 154.929 171.54C155.017 171.592 155.086 171.668 155.13 171.76C155.13 173.23 154.99 175.67 154.99 177.82V194.59C154.99 195.23 154.99 195.32 155.88 195.32C156.95 195.32 157.88 194.78 159.2 193.41L161.2 191.25C162.56 189.79 162.9 189.25 162.9 189C162.9 188.75 162.66 188.61 161.83 188.52L160.65 188.37C160.549 188.304 160.466 188.213 160.408 188.107C160.351 188 160.321 187.881 160.321 187.76C160.321 187.639 160.351 187.52 160.408 187.413C160.466 187.307 160.549 187.216 160.65 187.15H161.78C163.93 187.15 166.78 187.04 169.55 186.74C169.89 186.89 169.94 187.74 169.65 187.97L168.08 188.26C166.923 188.572 165.864 189.17 165 190C163.451 191.294 161.969 192.666 160.56 194.11C159.97 194.65 159.92 194.89 160.22 195.28C161.241 196.642 162.336 197.947 163.5 199.19C165.41 201.34 167.12 203.24 168.1 204.19C168.83 204.783 169.715 205.154 170.65 205.26L171.33 205.36C171.67 205.6 171.63 206.43 171.23 206.58C169.82 206.49 168.16 206.44 166.59 206.44C164.59 206.44 162.92 206.5 161.51 206.6C161.416 206.53 161.338 206.442 161.281 206.339C161.225 206.237 161.19 206.124 161.181 206.008C161.172 205.891 161.187 205.774 161.227 205.664C161.266 205.554 161.329 205.454 161.41 205.37L162.29 205.23C163.02 205.13 163.51 205.03 163.51 204.74C163.51 204.45 163.31 204.1 162.67 203.37L157.43 197.31C157.241 197.095 157.009 196.924 156.749 196.806C156.488 196.689 156.206 196.629 155.92 196.63C155.04 196.63 154.99 196.78 154.99 198.3V200.99C154.99 204.51 155.1 204.99 156.86 205.24L158.03 205.38C158.105 205.466 158.162 205.565 158.198 205.673C158.234 205.781 158.248 205.895 158.24 206.009C158.231 206.122 158.201 206.233 158.149 206.334C158.098 206.436 158.027 206.526 157.94 206.6C156.32 206.51 154.94 206.46 153.2 206.46C151.46 206.46 149.97 206.52 148.5 206.62C148.413 206.544 148.343 206.45 148.295 206.345C148.248 206.24 148.223 206.126 148.223 206.01C148.223 205.894 148.248 205.78 148.295 205.675C148.343 205.57 148.413 205.476 148.5 205.4L149.58 205.25C151.39 205 151.43 204.51 151.43 200.99L151.38 178.82Z" fill="#005187"/>
<path d="M87.18 209.11H87.91V217.71H87.18V209.11Z" fill="#B67A00"/>
<path d="M92.8 216.77C92.6204 217.105 92.3514 217.383 92.023 217.573C91.6946 217.764 91.3196 217.86 90.94 217.85C89.28 217.85 89.02 216.72 89.02 216.2C89.02 214.2 91.1 214.14 92.62 214.14H92.76V213.84C92.76 212.84 92.4 212.34 91.42 212.34C90.8124 212.331 90.2153 212.498 89.7 212.82V212.12C90.2421 211.877 90.8262 211.741 91.42 211.72C92.87 211.72 93.48 212.38 93.48 213.9V216.48C93.4684 216.891 93.4884 217.302 93.54 217.71H92.8V216.77ZM92.74 214.77H92.53C91.28 214.77 89.79 214.9 89.79 216.18C89.79 216.95 90.34 217.24 91 217.24C92.7 217.24 92.74 215.76 92.74 215.13V214.77Z" fill="#B67A00"/>
<path d="M94.89 213.23C94.89 212.79 94.89 212.33 94.89 211.86H95.59V212.86C95.7354 212.486 95.9981 212.168 96.3388 211.956C96.6794 211.743 97.0798 211.646 97.48 211.68C98.93 211.68 99.48 212.68 99.48 213.93V217.67H98.76V214.11C98.76 213.01 98.37 212.3 97.37 212.3C96.05 212.3 95.63 213.46 95.63 214.44V217.67H94.91L94.89 213.23Z" fill="#B67A00"/>
<path d="M105.62 217.23C105.62 218.86 104.88 220.23 102.88 220.23C102.278 220.214 101.682 220.109 101.11 219.92L101.17 219.2C101.706 219.463 102.293 219.603 102.89 219.61C104.75 219.61 104.89 218.26 104.89 216.61C104.754 216.964 104.509 217.265 104.191 217.472C103.873 217.678 103.499 217.779 103.12 217.76C101.25 217.76 100.65 216.13 100.65 214.83C100.65 213.06 101.34 211.77 103.06 211.77C103.407 211.725 103.761 211.775 104.082 211.916C104.402 212.057 104.679 212.283 104.88 212.57V211.91H105.6L105.62 217.23ZM103.12 217.09C104.43 217.09 104.9 215.85 104.9 214.78C104.9 213.37 104.48 212.34 103.16 212.34C101.84 212.34 101.43 213.65 101.43 214.78C101.43 215.91 101.89 217.09 103.12 217.09Z" fill="#B67A00"/>
<path d="M111.64 216.33C111.615 216.79 111.615 217.25 111.64 217.71H111V216.71C110.856 217.085 110.594 217.403 110.253 217.616C109.912 217.829 109.51 217.925 109.11 217.89C107.67 217.89 107.11 216.89 107.11 215.64V211.9H107.83V215.45C107.83 216.56 108.22 217.27 109.22 217.27C110.54 217.27 110.95 216.11 110.95 215.13V211.9H111.67L111.64 216.33Z" fill="#B67A00"/>
<path d="M116.53 216.77C116.35 217.104 116.08 217.381 115.752 217.572C115.424 217.763 115.049 217.859 114.67 217.85C113.01 217.85 112.74 216.72 112.74 216.2C112.74 214.2 114.83 214.14 116.34 214.14H116.48V213.84C116.48 212.84 116.13 212.34 115.15 212.34C114.542 212.33 113.945 212.496 113.43 212.82V212.12C113.972 211.877 114.556 211.741 115.15 211.72C116.6 211.72 117.2 212.38 117.2 213.9V216.48C117.188 216.891 117.208 217.302 117.26 217.71H116.55L116.53 216.77ZM116.46 214.77H116.26C115 214.77 113.51 214.9 113.51 216.18C113.51 216.95 114.06 217.24 114.73 217.24C116.43 217.24 116.46 215.76 116.46 215.13V214.77Z" fill="#B67A00"/>
<path d="M123.25 217.23C123.25 218.86 122.52 220.23 120.51 220.23C119.908 220.214 119.312 220.109 118.74 219.92L118.8 219.2C119.336 219.463 119.923 219.603 120.52 219.61C122.38 219.61 122.52 218.26 122.52 216.61C122.382 216.964 122.135 217.266 121.816 217.473C121.496 217.679 121.12 217.78 120.74 217.76C118.87 217.76 118.27 216.13 118.27 214.83C118.27 213.06 118.96 211.77 120.68 211.77C121.029 211.725 121.384 211.775 121.706 211.916C122.028 212.057 122.306 212.283 122.51 212.57V211.91H123.23L123.25 217.23ZM120.75 217.09C122.06 217.09 122.53 215.85 122.53 214.78C122.53 213.37 122.12 212.34 120.8 212.34C119.48 212.34 119.07 213.65 119.07 214.78C119.07 215.91 119.52 217.09 120.75 217.09Z" fill="#B67A00"/>
<path d="M128.63 217.53C128.09 217.735 127.518 217.843 126.94 217.85C125 217.85 124.27 216.54 124.27 214.78C124.27 213.02 125.27 211.72 126.74 211.72C128.39 211.72 129.07 213.05 129.07 214.62V215H125.07C125.07 216.24 125.73 217.24 126.99 217.24C127.563 217.222 128.125 217.071 128.63 216.8V217.53ZM128.28 214.37C128.28 213.37 127.87 212.37 126.79 212.37C126.301 212.418 125.85 212.653 125.529 213.025C125.209 213.398 125.044 213.879 125.07 214.37H128.28Z" fill="#B67A00"/>
<path d="M134.3 211.72C136.2 211.72 137.03 213.19 137.03 214.78C137.03 216.37 136.2 217.85 134.3 217.85C132.4 217.85 131.57 216.38 131.57 214.78C131.57 213.18 132.41 211.72 134.3 211.72ZM134.3 217.23C135.57 217.23 136.24 216.14 136.24 214.78C136.24 213.42 135.57 212.34 134.3 212.34C133.03 212.34 132.36 213.43 132.36 214.78C132.36 216.13 133 217.23 134.3 217.23Z" fill="#B67A00"/>
<path d="M138.61 212.48H137.42V211.86H138.61V211.43C138.61 210.21 138.61 208.97 140.15 208.97C140.382 208.96 140.613 208.997 140.83 209.08V209.71C140.648 209.627 140.45 209.586 140.25 209.59C139.25 209.59 139.37 210.66 139.37 211.35V211.86H140.69V212.48H139.37V217.71H138.65L138.61 212.48Z" fill="#B67A00"/>
<path d="M143.51 209.11H144.23V212.84C144.396 212.5 144.656 212.215 144.978 212.017C145.3 211.818 145.672 211.715 146.05 211.72C147.63 211.72 148.05 212.72 148.05 214.21V217.71H147.33V214.22C147.33 213.22 147.14 212.34 145.94 212.34C144.74 212.34 144.21 213.56 144.21 214.58V217.71H143.49L143.51 209.11Z" fill="#B67A00"/>
<path d="M153.52 217.53C152.977 217.736 152.401 217.844 151.82 217.85C149.88 217.85 149.16 216.54 149.16 214.78C149.16 213.02 150.16 211.72 151.63 211.72C153.28 211.72 153.96 213.05 153.96 214.62V215H149.96C149.927 215.276 149.951 215.556 150.032 215.823C150.113 216.089 150.249 216.335 150.43 216.546C150.612 216.757 150.836 216.928 151.087 217.047C151.338 217.167 151.612 217.232 151.89 217.24C152.463 217.222 153.025 217.071 153.53 216.8L153.52 217.53ZM153.16 214.37C153.16 213.37 152.75 212.37 151.68 212.37C151.19 212.418 150.738 212.653 150.416 213.025C150.094 213.397 149.927 213.878 149.95 214.37H153.16Z" fill="#B67A00"/>
<path d="M158.41 216.77C158.229 217.103 157.959 217.38 157.631 217.571C157.303 217.761 156.929 217.858 156.55 217.85C154.88 217.85 154.62 216.72 154.62 216.2C154.62 214.2 156.71 214.14 158.22 214.14H158.36V213.84C158.36 212.84 158 212.34 157.03 212.34C156.422 212.33 155.825 212.496 155.31 212.82V212.12C155.852 211.876 156.436 211.74 157.03 211.72C158.48 211.72 159.08 212.38 159.08 213.9V216.48C159.068 216.891 159.088 217.302 159.14 217.71H158.43L158.41 216.77ZM158.34 214.77H158.13C156.88 214.77 155.39 214.9 155.39 216.18C155.39 216.95 155.94 217.24 156.61 217.24C158.31 217.24 158.34 215.76 158.34 215.13V214.77Z" fill="#B67A00"/>
<path d="M160.5 209.11H161.22V217.71H160.5V209.11Z" fill="#B67A00"/>
<path d="M165.28 212.48H164V216.26C164 216.79 164.2 217.26 164.78 217.26C165.011 217.259 165.238 217.212 165.45 217.12V217.72C165.168 217.824 164.87 217.878 164.57 217.88C163.28 217.88 163.24 217 163.24 215.93V212.51H162.09V211.89H163.24V210.48L163.96 210.23V211.89H165.29L165.28 212.48Z" fill="#B67A00"/>
<path d="M166.29 209.11H167V212.84C167.166 212.5 167.426 212.215 167.748 212.017C168.07 211.818 168.442 211.715 168.82 211.72C170.39 211.72 170.82 212.72 170.82 214.21V217.71H170.09V214.22C170.09 213.22 169.9 212.34 168.71 212.34C167.52 212.34 166.97 213.56 166.97 214.58V217.71H166.25L166.29 209.11Z" fill="#B67A00"/>
<path d="M151.46 61.52C151.94 62.63 152.39 63.7399 152.82 64.8599C157.92 57.5699 160.55 50.47 160.1 44.2C151.053 27.9571 136.983 15.0866 120 7.51995C119.511 10.5715 118.442 13.501 116.85 16.15C131.16 27 143.41 42.6899 151.46 61.52ZM92.46 39.31C86.0512 43.3675 79.3222 46.8959 72.34 49.86C63.0719 53.8692 53.3755 56.8049 43.44 58.61C46.4463 71.6257 50.5373 84.3669 55.67 96.6999C60.0057 96.2916 64.3762 96.453 68.67 97.1799C69.6269 97.3936 70.621 97.3764 71.57 97.1299C71.57 97.1299 75.57 95.63 77.07 94.9399C77.3708 94.8231 77.6408 94.6389 77.8592 94.4014C78.0777 94.1639 78.2387 93.8794 78.33 93.5699C78.7341 91.5697 78.768 89.5124 78.43 87.4999C78.43 87.4999 76.97 82.3499 76.03 79.5999C75.1771 79.051 74.5739 78.1892 74.35 77.1999C74.35 77.1999 73.11 73.5399 72.9 72.9999C72.9 72.9999 72.69 71.2899 73.64 71.3999C73.64 71.3999 72.37 67.63 73.21 64.7599C73.21 64.7599 75.21 56.52 79.21 53.66C79.21 53.66 82.92 51.4599 86.41 51.77C88.6137 51.9402 90.7552 52.5813 92.69 53.65C96.69 56.51 98.69 64.7499 98.69 64.7499C99.54 67.6199 98.27 71.3899 98.27 71.3899C99.27 71.2799 99 72.9899 99 72.9899L97.49 77.1999C97.2661 78.1892 96.6629 79.051 95.81 79.5999C94.87 82.3499 93.41 87.4999 93.41 87.4999C93.072 89.5124 93.1059 91.5697 93.51 93.5699C93.6003 93.8784 93.7598 94.1622 93.9764 94.3996C94.1931 94.6371 94.4611 94.8219 94.76 94.9399C96.23 95.63 100.26 97.1299 100.26 97.1299C101.212 97.3765 102.21 97.3936 103.17 97.1799C107.289 96.4864 111.477 96.3083 115.64 96.6499C116.79 95.9799 117.92 95.2999 119.04 94.6499C116.99 88.6499 114.65 82.5599 112.04 76.4299C106.588 63.5206 100.041 51.1019 92.47 39.31H92.46ZM66.23 9.57995C62.9106 11.8471 59.369 13.7704 55.66 15.3199C50.8636 17.4747 45.7696 18.894 40.55 19.53C38.92 29 39.86 42 43 56.61C52.8067 54.8353 62.3787 51.9466 71.53 48C78.3967 45.0684 85.0121 41.5801 91.31 37.57C83 25.08 74.31 15.2899 66.23 9.57995ZM151.38 66.8499C150.8 65.3399 150.2 63.85 149.56 62.33C141.69 43.9 129.72 28.5499 115.82 17.91C111.44 24.68 104 31.74 94.2 38.2C101.832 50.0737 108.433 62.5794 113.93 75.5799C116.51 81.5799 118.81 87.5799 120.84 93.4999C134 85.1699 144.54 75.8999 151.38 66.8499ZM15.7 58.29C13.7 72.93 14.52 85.6399 19.37 100.29L21.45 100.05C24.45 99.7599 28.96 99.6199 28.96 99.6199C32.49 99.6199 38.83 99.8299 38.83 99.8299C41.8352 99.7654 44.8196 99.315 47.71 98.4899C49.5964 97.7925 51.5503 97.2931 53.54 96.9999C48.4306 84.6911 44.3467 71.9812 41.33 59C31.37 60.47 22.45 60.2999 15.7 58.29ZM164.12 52.3699C163.46 50.84 162.76 49.37 162.03 47.88C161.38 53.88 158.46 60.3899 153.65 67.0099C157.778 77.9815 160.216 89.5164 160.88 101.22C163.75 101.784 166.658 102.139 169.58 102.28C172.761 85.4704 170.86 68.0941 164.12 52.3699ZM121.51 95.4699C121.84 96.3299 122.17 97.1499 122.51 97.9499C123.057 98.1233 123.607 98.3133 124.16 98.5199C127.037 99.3427 130.008 99.793 133 99.8599C133 99.8599 139.34 99.6899 142.87 99.6499C142.87 99.6499 147.4 99.7899 150.38 100.08C150.38 100.08 154.78 100.59 158.79 100.98C159.22 94.31 157.49 83.85 152.14 68.9799C145.09 78.0499 134.54 87.2399 121.51 95.4699ZM14 55.5099H14.08C16.26 42.4299 21.19 30.57 28.77 21.0599C19.49 29.1586 12.0647 39.1625 7 50.3899C8.7783 52.7486 11.2134 54.5298 14 55.5099ZM118.06 6.65995C105.778 1.51527 92.4659 -0.696553 79.18 0.199949C91.68 1.58995 104 6.75995 115.24 14.9099C116.747 12.3875 117.707 9.57695 118.06 6.65995ZM13.72 57.66L13.2 57.47C10.4677 56.4567 8.02619 54.7878 6.09 52.61C0.410004 66.14 -1.5 86.2899 1.23 102.28C4.67058 102.199 8.09727 101.815 11.47 101.13C13.36 100.96 15.47 100.74 17.32 100.54C12.48 85.1699 11.9 73.4399 13.72 57.6199V57.66ZM40.89 57C37.76 42.3899 36.89 29.42 38.44 19.66C37.3508 19.6684 36.2683 19.4891 35.24 19.1299C34.764 18.9459 34.3265 18.6746 33.95 18.33C24.47 28.16 18.44 41.38 16 56.2299C22.5 58.2299 31.15 58.43 40.89 57ZM68 8.28995C76.09 14.1899 84.75 24 93 36.45C102.56 30.11 109.92 23.19 114.13 16.67C101.42 7.35995 87.13 1.99995 72.9 1.87995C72.8145 2.32134 72.6768 2.75101 72.49 3.15995C71.4265 5.20536 69.8865 6.96487 68 8.28995ZM36 17.16C38.58 18.16 45.88 17.25 54.83 13.4199C58.8506 11.7649 62.6579 9.63299 66.17 7.06995C68.54 5.26995 70.05 3.61995 70.54 2.41995C70.7095 2.09296 70.7454 1.71288 70.64 1.35995C70.6159 1.32151 70.5891 1.28476 70.56 1.24995C57.7746 3.42306 45.6537 8.48486 35.12 16.0499C35.0993 16.2018 35.1165 16.3564 35.17 16.5C35.3534 16.8169 35.6499 17.0526 36 17.16Z" fill="#006397"/>
<path d="M64 136.55C63.25 129.99 62.2 120.27 62.2 120.27C61.5503 117.376 59.8326 114.833 57.39 113.15C55.55 111.84 50.05 112.24 50.05 112.24C43.93 113.24 36.54 111.57 36.54 111.57C35.6 111.22 31.54 110.57 31.54 110.57C28.5321 110.346 25.5503 109.854 22.63 109.1C21.2112 108.874 19.7767 108.76 18.34 108.76C16.6829 109.014 15.0142 109.184 13.34 109.27C9.92316 109.831 6.46179 110.075 3 110C6 118.23 16.35 142.48 37.29 153.65L38.65 150.32L45.95 158.72L34.89 159.56L36.51 155.56C15.33 144.38 4.67 120.38 1.27 111.32V167.24H63.62C64.53 164.24 65.79 160.73 65.79 160.73C66.79 157.73 66.2 153.17 66.2 153.17C65.26 150.34 64 136.55 64 136.55ZM156.69 109.25C155.016 109.164 153.347 108.994 151.69 108.74C150.253 108.74 148.819 108.854 147.4 109.08C144.48 109.834 141.498 110.326 138.49 110.55C138.49 110.55 134.41 111.22 133.49 111.55C133.49 111.55 126.1 113.24 119.98 112.22C119.98 112.22 114.48 111.82 112.64 113.13C110.197 114.813 108.48 117.356 107.83 120.25C107.83 120.25 106.83 129.97 106.04 136.53C106.04 136.53 104.79 150.32 103.85 153.15C103.85 153.15 103.21 157.66 104.26 160.71C104.26 160.71 105.52 164.26 106.43 167.22H115.43C117.17 166.607 118.89 165.94 120.59 165.22C134.927 159.116 147.301 149.175 156.35 136.49L152.21 134.27L162.92 126.82L162.51 139.82L158.18 137.49C148.903 150.587 136.169 160.848 121.4 167.13L121.15 167.23H169.63V110C165.309 110.173 160.982 109.922 156.71 109.25H156.69Z" fill="#B67A00"/>
<path d="M160 170.22H158.46V169.38H162.46V170.22H160.93V174.37H160V170.22ZM163.62 169.38H165L166.31 172.75L167.59 169.38H169.01V174.38H168.1V170.56L166.7 174.38H166L164.59 170.56V174.38H163.68L163.62 169.38Z" fill="#005187"/>
</g>
<defs>
<clipPath id="clip0">
<rect width="171.6" height="220.19" fill="white"/>
</clipPath>
</defs>
</svg>
