<svg width="166" height="215" viewBox="0 0 166 215" fill="none" xmlns="http://www.w3.org/2000/svg">
<g clip-path="url(#clip0)">
<path d="M6.19 175.91C6.19 172.41 6 171.51 3.87 171.32L2.35 171.18C2.26059 171.11 2.18829 171.02 2.13858 170.918C2.08887 170.816 2.06303 170.704 2.06303 170.59C2.06303 170.476 2.08887 170.364 2.13858 170.262C2.18829 170.16 2.26059 170.07 2.35 170C4.9 169.76 8.12 169.61 12.52 169.61C15.52 169.61 18.34 169.83 20.52 170.92C21.639 171.435 22.5797 172.27 23.2225 173.321C23.8653 174.371 24.1812 175.589 24.13 176.82C24.13 180.23 22.13 181.98 19.31 183.31C19.31 183.79 19.69 183.93 20.21 184.02C22.0324 184.368 23.6716 185.353 24.8348 186.798C25.9981 188.243 26.6096 190.055 26.56 191.91C26.56 197.4 22.56 201.1 14 201.11C12.62 201.11 10.31 200.97 8.32 200.98C6.33 200.99 4.63 201.08 2.88 201.13C2.72527 200.978 2.63014 200.775 2.6118 200.558C2.59346 200.342 2.65312 200.126 2.78 199.95L3.63 199.8C6.14 199.37 6.23 198.8 6.22 193.88L6.19 175.91ZM10.08 182.2C10.08 183.52 10.13 183.61 12.55 183.51C17.37 183.32 19.97 181.89 19.96 177.45C19.96 172.81 16.5 171.06 12.9 171.07C12.1647 171.026 11.4279 171.125 10.73 171.36C10.26 171.5 10.07 171.74 10.07 172.59L10.08 182.2ZM10.08 193.2C10.08 194.9 10.18 197.32 11.08 198.35C11.5661 198.837 12.1556 199.209 12.8047 199.437C13.4538 199.666 14.146 199.745 14.83 199.67C19.04 199.67 22.25 197.77 22.24 193.04C22.24 189.3 20.33 184.95 12.81 184.96C10.26 184.96 10.07 185.25 10.07 186.2L10.08 193.2Z" fill="#005187"/>
<path d="M48.94 191.4C48.94 197.31 44.94 201.58 38.94 201.59C37.6491 201.641 36.3617 201.424 35.1588 200.952C33.9559 200.481 32.8635 199.766 31.9505 198.852C31.0374 197.938 30.3235 196.845 29.8536 195.642C29.3837 194.438 29.1679 193.151 29.22 191.86C29.1879 190.522 29.4247 189.19 29.9166 187.945C30.4086 186.7 31.1454 185.567 32.0836 184.612C33.0218 183.657 34.1422 182.9 35.3784 182.386C36.6145 181.872 37.9413 181.611 39.28 181.62C40.5664 181.592 41.845 181.827 43.0376 182.31C44.2302 182.793 45.3117 183.514 46.2159 184.43C47.1201 185.345 47.8281 186.436 48.2965 187.634C48.7649 188.833 48.9838 190.114 48.94 191.4ZM38.76 183C35.63 183 33.32 186 33.33 191.2C33.33 195.5 35.33 200.14 39.45 200.13C43.57 200.12 44.88 195.77 44.87 192.13C44.87 188.14 43.25 183 38.76 183Z" fill="#005187"/>
<path d="M69.48 194C69.48 197.73 69.48 199.48 70.86 199.48C71.5441 199.41 72.2163 199.252 72.86 199.01C73.19 199.1 73.24 200.28 72.86 200.52C70.7357 200.821 68.6436 201.316 66.61 202C66.32 202 66.09 201.85 66.08 201.62V200.81C66.1154 200.321 66.0851 199.83 65.99 199.35H65.8C64.0975 200.723 61.9865 201.49 59.8 201.53C54.55 201.53 51.04 197.43 51.03 192.46C51.03 185.84 56.03 181.58 62.46 181.56C63.5324 181.529 64.6027 181.671 65.63 181.98C65.87 181.98 65.92 181.7 65.91 181.32V174.2C65.91 171.41 65.91 171.12 64.44 170.27L64 170C63.8727 169.865 63.8019 169.686 63.8019 169.5C63.8019 169.314 63.8727 169.135 64 169C65.7555 168.475 67.4647 167.806 69.11 167C69.2068 166.997 69.3025 167.022 69.3857 167.072C69.469 167.121 69.5363 167.193 69.58 167.28C69.58 168.7 69.45 171.07 69.45 173.15L69.48 194ZM66 186.88C66.0521 186.221 65.8677 185.565 65.48 185.03C65.0143 184.409 64.4103 183.905 63.7161 183.558C63.0218 183.211 62.2562 183.03 61.48 183.03C57.18 183.03 54.96 186.78 54.97 190.9C54.97 195.2 57.4 199.27 62.03 199.26C63.3446 199.262 64.621 198.818 65.65 198C65.9569 197.453 66.0796 196.822 66 196.2V186.88Z" fill="#005187"/>
<path d="M73.48 210.61C73.4605 210.357 73.496 210.102 73.5841 209.864C73.6722 209.626 73.8107 209.41 73.9903 209.23C74.1698 209.051 74.3861 208.912 74.6243 208.824C74.8624 208.736 75.1168 208.7 75.37 208.72H76.27C76.5832 208.729 76.8932 208.655 77.1676 208.503C77.442 208.352 77.6708 208.13 77.83 207.86C78.9119 206.205 79.8264 204.446 80.56 202.61C80.81 201.969 80.9683 201.295 81.03 200.61C80.9696 199.482 80.6947 198.375 80.22 197.35L76.52 187.23C75.71 185.01 75.37 183.87 73.72 183.54L72.53 183.31C72.25 183.07 72.3 182.31 72.67 182.13C74.19 182.22 75.61 182.26 77.17 182.26C78.45 182.26 79.77 182.21 81.28 182.11C81.66 182.25 81.71 183.11 81.38 183.29L80.2 183.53C79.54 183.68 79.2 183.82 79.2 184.15C79.5596 185.659 80.0207 187.143 80.58 188.59L82.1 192.94C82.4831 194.09 82.9442 195.213 83.48 196.3C84.1571 195.184 84.7391 194.013 85.22 192.8L86.82 189.06C87.5484 187.548 88.102 185.958 88.47 184.32C88.47 183.99 88.19 183.66 87.34 183.52L85.87 183.29C85.54 183.05 85.58 182.29 85.96 182.1C87.47 182.2 88.89 182.24 90.13 182.24C91.37 182.24 92.39 182.24 93.72 182.09C93.8099 182.157 93.8846 182.242 93.9391 182.34C93.9935 182.438 94.0266 182.546 94.0361 182.657C94.0455 182.769 94.0312 182.881 93.9939 182.987C93.9566 183.093 93.8974 183.189 93.82 183.27L93.01 183.42C91.45 183.7 90.6 185.08 89.01 188.42L86.37 193.86C84.81 197.04 80.95 205.28 78.64 210.44C78.4418 211.081 78.0438 211.643 77.5042 212.042C76.9645 212.441 76.3114 212.658 75.64 212.66C75.3561 212.702 75.0663 212.679 74.7926 212.593C74.5189 212.507 74.2685 212.359 74.0603 212.162C73.8521 211.964 73.6916 211.722 73.5911 211.453C73.4906 211.184 73.4526 210.896 73.48 210.61Z" fill="#005187"/>
<path d="M105.32 193.71C105.32 198.71 105.43 199.39 108.17 199.62L109.68 199.76C109.97 199.95 109.88 200.76 109.59 200.94C106.9 200.85 105.29 200.81 103.39 200.81C101.49 200.81 99.85 200.86 96.82 200.96C96.7408 200.883 96.6777 200.792 96.6347 200.69C96.5917 200.589 96.5695 200.48 96.5695 200.37C96.5695 200.26 96.5917 200.151 96.6347 200.049C96.6777 199.948 96.7408 199.856 96.82 199.78L98.52 199.63C101.22 199.39 101.45 198.68 101.44 193.72V172.57C101.44 171.1 101.44 171.05 100.01 171.06H97.41C95.41 171.06 92.63 171.06 91.6 172.25C90.7362 173.232 90.0187 174.333 89.47 175.52C89.09 175.81 88.11 175.6 88.24 175.19C88.86 173.25 89.51 170.26 90.03 168.14C90.03 167.98 90.78 168 90.93 168.14C91.21 169.65 92.77 169.6 94.93 169.6H114.09C116.65 169.6 117.09 169.5 117.78 168.26C118.02 168.17 118.65 168.2 118.63 168.41C118.44 170.34 118.03 174.09 117.93 175.6C117.93 176.02 116.93 175.98 116.7 175.69C116.56 174.51 116.22 172.76 115.51 172.24C114.42 171.44 112.63 171.07 110.03 171.07H106.67C105.25 171.07 105.29 171.13 105.3 172.69L105.32 193.71Z" fill="#005187"/>
<path d="M122.62 191C123.33 190.76 123.43 190.34 123.43 189.63V187.45C123.43 185.7 122.9 183.34 119.97 183.34C118.64 183.34 117.04 184.01 116.97 185.47C116.97 186.23 116.88 186.8 116.5 187.08C115.71 187.637 114.776 187.953 113.81 187.99C113.721 187.999 113.631 187.989 113.547 187.959C113.462 187.929 113.386 187.881 113.322 187.818C113.259 187.754 113.211 187.678 113.181 187.593C113.151 187.509 113.141 187.419 113.15 187.33C113.15 184.87 118.48 181.5 121.93 181.49C125.38 181.48 127 183.49 126.86 187.02L126.59 195.25C126.5 197.43 126.93 199.37 128.78 199.36C129.189 199.356 129.593 199.261 129.96 199.08C130.2 198.94 130.43 198.75 130.58 198.75C130.73 198.75 130.91 199.03 130.91 199.36C130.457 200.001 129.858 200.525 129.163 200.889C128.467 201.252 127.695 201.444 126.91 201.45C126.318 201.465 125.731 201.34 125.196 201.087C124.661 200.833 124.193 200.458 123.83 199.99C123.64 199.7 123.35 199.33 123.07 199.33C122.412 199.553 121.792 199.873 121.23 200.28C120.215 200.965 119.04 201.375 117.82 201.47C116.62 201.526 115.442 201.138 114.51 200.38C114.045 199.964 113.673 199.454 113.42 198.883C113.166 198.312 113.037 197.694 113.04 197.07C113.04 195.23 113.93 194.14 116.96 193.07L122.62 191ZM119.7 199.33C120.761 199.233 121.769 198.819 122.59 198.14C123.16 197.58 123.15 196.91 123.2 195.92L123.29 193.13C123.29 192.61 123.1 192.51 122.81 192.51C122.151 192.601 121.504 192.762 120.88 192.99C118.09 193.94 116.72 194.65 116.72 196.5C116.724 196.883 116.804 197.26 116.958 197.611C117.111 197.961 117.333 198.277 117.612 198.54C117.89 198.802 118.218 199.006 118.577 199.138C118.936 199.27 119.318 199.329 119.7 199.31V199.33Z" fill="#005187"/>
<path d="M138.35 195.45C138.35 198.86 138.45 199.33 140.15 199.56L141.29 199.7C141.363 199.784 141.419 199.882 141.454 199.987C141.489 200.093 141.502 200.205 141.493 200.316C141.483 200.427 141.452 200.535 141.4 200.634C141.348 200.732 141.276 200.82 141.19 200.89C139.63 200.79 138.26 200.75 136.6 200.75C134.94 200.75 133.48 200.8 132.06 200.9C131.976 200.829 131.907 200.742 131.856 200.644C131.806 200.546 131.776 200.439 131.768 200.329C131.759 200.219 131.773 200.109 131.808 200.004C131.842 199.9 131.898 199.803 131.97 199.72L133.06 199.58C134.81 199.34 134.85 198.86 134.85 195.46V174.07C134.85 171.28 134.8 171 133.38 170.15L132.9 169.87C132.773 169.735 132.702 169.556 132.702 169.37C132.702 169.184 132.773 169.005 132.9 168.87C134.655 168.343 136.364 167.674 138.01 166.87C138.108 166.868 138.204 166.894 138.288 166.946C138.371 166.997 138.438 167.072 138.48 167.16C138.48 168.58 138.35 170.94 138.35 173.02V195.45Z" fill="#005187"/>
<path d="M146.31 174.05C146.31 171.26 146.26 170.98 144.84 170.13L144.36 169.85C144.249 169.717 144.187 169.549 144.187 169.375C144.187 169.201 144.249 169.033 144.36 168.9C146.116 168.375 147.825 167.706 149.47 166.9C149.567 166.895 149.664 166.918 149.748 166.968C149.831 167.018 149.898 167.092 149.94 167.18C149.94 168.6 149.81 170.96 149.81 173.04V189.27C149.81 189.89 149.81 189.98 150.66 189.98C151.66 189.98 152.6 189.46 153.88 188.13L155.81 186.04C157.13 184.62 157.46 184.1 157.46 183.87C157.46 183.64 157.23 183.49 156.46 183.39L155.33 183.26C154.9 183.11 154.9 182.21 155.33 182.07H156.41C158.922 182.071 161.432 181.94 163.93 181.68C164.27 181.82 164.32 182.62 164.03 182.86L162.52 183.15C161.394 183.437 160.361 184.008 159.52 184.81C157.68 186.28 156.07 187.98 155.22 188.81C154.65 189.33 154.61 189.57 154.89 189.95C155.7 191.03 156.46 191.95 158.07 193.72C159.92 195.8 161.58 197.65 162.52 198.55C163.232 199.11 164.089 199.456 164.99 199.55L165.65 199.64C165.727 199.722 165.786 199.819 165.823 199.925C165.86 200.03 165.875 200.143 165.866 200.255C165.858 200.367 165.826 200.475 165.774 200.574C165.721 200.674 165.648 200.76 165.56 200.83C164.18 200.74 162.56 200.69 161.06 200.69C159.17 200.69 157.51 200.75 156.14 200.84C156.05 200.773 155.975 200.688 155.921 200.59C155.866 200.492 155.833 200.384 155.824 200.272C155.814 200.161 155.829 200.049 155.866 199.943C155.903 199.837 155.963 199.741 156.04 199.66L156.9 199.52C157.6 199.42 158.08 199.33 158.08 199.04C158.08 198.75 157.89 198.43 157.27 197.72L152.2 191.86C152.017 191.651 151.79 191.484 151.537 191.37C151.283 191.256 151.008 191.198 150.73 191.2C149.88 191.2 149.83 191.35 149.84 192.81V195.41C149.84 198.82 149.94 199.29 151.64 199.53L152.78 199.67C152.852 199.753 152.908 199.849 152.942 199.954C152.977 200.059 152.991 200.169 152.982 200.279C152.974 200.389 152.944 200.496 152.894 200.594C152.843 200.692 152.774 200.779 152.69 200.85C151.13 200.76 149.75 200.71 148.1 200.71C146.45 200.71 144.98 200.77 143.56 200.86C143.475 200.787 143.407 200.696 143.361 200.594C143.314 200.492 143.29 200.382 143.29 200.27C143.29 200.158 143.314 200.047 143.361 199.946C143.407 199.844 143.475 199.753 143.56 199.68L144.56 199.54C146.31 199.3 146.35 198.83 146.35 195.42L146.31 174.05Z" fill="#005187"/>
<path d="M84.19 203.36H84.89V211.69H84.19V203.36Z" fill="#005187"/>
<path d="M89.63 210.78C89.4488 211.094 89.1856 211.353 88.8686 211.529C88.5515 211.706 88.1925 211.792 87.83 211.78C86.22 211.78 85.96 210.69 85.96 210.18C85.96 208.28 87.96 208.18 89.45 208.18H89.58V208C89.58 207 89.24 206.54 88.29 206.54C87.702 206.526 87.1236 206.69 86.63 207.01V206.33C87.1529 206.094 87.7167 205.961 88.29 205.94C89.69 205.94 90.29 206.57 90.29 208.05V210.55C90.2785 210.948 90.2985 211.345 90.35 211.74H89.66L89.63 210.78ZM89.56 208.83H89.36C88.15 208.83 86.71 208.95 86.71 210.2C86.71 210.94 87.24 211.2 87.88 211.2C89.53 211.2 89.56 209.77 89.56 209.2V208.83Z" fill="#005187"/>
<path d="M91.65 207.36C91.6587 206.906 91.642 206.452 91.6 206H92.28V207C92.4229 206.637 92.6793 206.33 93.0108 206.125C93.3424 205.919 93.7314 205.826 94.12 205.86C95.51 205.86 96.05 206.79 96.05 208.04V211.66H95.35V208.21C95.35 207.15 94.97 206.46 94 206.46C92.73 206.46 92.33 207.58 92.33 208.53V211.66H91.63L91.65 207.36Z" fill="#005187"/>
<path d="M102 211.22C102 212.8 101.29 214.08 99.34 214.08C98.7625 214.064 98.1902 213.966 97.64 213.79V213.09C98.1598 213.346 98.7305 213.483 99.31 213.49C101.1 213.49 101.31 212.18 101.31 210.58C101.175 210.921 100.936 211.212 100.628 211.411C100.32 211.61 99.9567 211.707 99.59 211.69C97.78 211.69 97.2 210.11 97.2 208.86C97.2 207.13 97.87 205.86 99.53 205.86C99.8681 205.816 100.212 205.866 100.524 206.003C100.836 206.141 101.104 206.361 101.3 206.64V206H102V211.22ZM99.58 211.09C100.84 211.09 101.3 209.89 101.3 208.86C101.3 207.49 100.9 206.49 99.62 206.49C98.34 206.49 98 207.76 98 208.86C98 209.96 98.42 211.09 99.61 211.09H99.58Z" fill="#005187"/>
<path d="M107.86 210.35C107.86 210.79 107.86 211.23 107.86 211.69H107.19V210.69C107.05 211.053 106.796 211.361 106.466 211.566C106.136 211.772 105.747 211.865 105.36 211.83C103.96 211.83 103.43 210.9 103.43 209.65V206H104.13V209.44C104.13 210.51 104.51 211.2 105.47 211.2C106.75 211.2 107.15 210.08 107.15 209.13V206H107.85L107.86 210.35Z" fill="#005187"/>
<path d="M112.59 210.78C112.409 211.094 112.146 211.353 111.829 211.529C111.511 211.706 111.152 211.792 110.79 211.78C109.18 211.78 108.92 210.69 108.92 210.18C108.92 208.28 110.92 208.18 112.41 208.18H112.54V208C112.54 207 112.2 206.54 111.25 206.54C110.663 206.531 110.085 206.694 109.59 207.01V206.33C110.113 206.094 110.677 205.961 111.25 205.94C112.65 205.94 113.25 206.57 113.25 208.05V210.55C113.238 210.948 113.259 211.345 113.31 211.74H112.62L112.59 210.78ZM112.52 208.83H112.32C111.11 208.83 109.67 208.95 109.67 210.2C109.67 210.94 110.2 211.2 110.85 211.2C112.49 211.2 112.52 209.77 112.52 209.2V208.83Z" fill="#005187"/>
<path d="M119.09 211.22C119.09 212.8 118.38 214.08 116.44 214.08C115.859 214.062 115.284 213.965 114.73 213.79L114.79 213.09C115.306 213.346 115.874 213.483 116.45 213.49C118.25 213.49 118.45 212.18 118.45 210.58C118.316 210.922 118.078 211.213 117.769 211.413C117.461 211.612 117.097 211.709 116.73 211.69C114.92 211.69 114.35 210.11 114.35 208.86C114.35 207.13 115.01 205.86 116.68 205.86C117.017 205.817 117.359 205.867 117.669 206.004C117.979 206.142 118.246 206.362 118.44 206.64V206H119.14L119.09 211.22ZM116.67 211.09C117.94 211.09 118.39 209.89 118.39 208.86C118.39 207.49 117.99 206.49 116.72 206.49C115.45 206.49 115.04 207.76 115.04 208.86C115.04 209.96 115.49 211.09 116.67 211.09Z" fill="#005187"/>
<path d="M124.3 211.51C123.777 211.712 123.221 211.817 122.66 211.82C120.78 211.82 120.08 210.55 120.08 208.82C120.08 207.09 121.08 205.82 122.47 205.82C124.07 205.82 124.72 207.11 124.72 208.63V208.98H120.85C120.85 210.18 121.49 211.15 122.71 211.15C123.265 211.132 123.809 210.989 124.3 210.73V211.51ZM123.96 208.45C123.96 207.45 123.56 206.45 122.51 206.45C122.026 206.498 121.58 206.735 121.27 207.109C120.959 207.484 120.808 207.965 120.85 208.45H123.96Z" fill="#005187"/>
<path d="M129.79 205.89C131.62 205.89 132.43 207.31 132.43 208.89C132.43 210.47 131.62 211.89 129.79 211.89C127.96 211.89 127.15 210.47 127.15 208.89C127.15 207.31 128 205.89 129.79 205.89ZM129.79 211.22C131.01 211.22 131.66 210.17 131.66 208.86C131.66 207.55 131.01 206.49 129.79 206.49C128.57 206.49 127.91 207.49 127.91 208.86C127.91 210.23 128.57 211.22 129.79 211.22Z" fill="#005187"/>
<path d="M134 206.62H132.86V206H134V205.59C134 204.41 134.05 203.21 135.5 203.21C135.722 203.2 135.944 203.237 136.15 203.32V203.93C135.979 203.846 135.79 203.805 135.6 203.81C134.6 203.81 134.74 204.81 134.74 205.52V206H136.02V206.6H134.74V211.67H134V206.62Z" fill="#005187"/>
<path d="M138.69 203.36H139.39V207C139.548 206.668 139.797 206.389 140.11 206.196C140.422 206.003 140.783 205.903 141.15 205.91C142.67 205.91 143.08 206.91 143.08 208.32V211.71H142.38V208.33C142.38 207.33 142.19 206.51 141.04 206.51C139.89 206.51 139.36 207.69 139.36 208.68V211.68H138.66L138.69 203.36Z" fill="#005187"/>
<path d="M148.39 211.51C147.863 211.712 147.304 211.817 146.74 211.82C144.87 211.82 144.17 210.55 144.17 208.82C144.17 207.09 145.17 205.82 146.55 205.82C148.15 205.82 148.81 207.11 148.81 208.63V208.98H144.93C144.895 209.248 144.917 209.521 144.994 209.78C145.071 210.039 145.203 210.279 145.379 210.484C145.556 210.688 145.774 210.854 146.018 210.969C146.263 211.083 146.53 211.145 146.8 211.15C147.355 211.131 147.898 210.987 148.39 210.73V211.51ZM148.04 208.45C148.04 207.45 147.64 206.45 146.6 206.45C146.114 206.496 145.666 206.731 145.353 207.106C145.04 207.481 144.888 207.964 144.93 208.45H148.04Z" fill="#005187"/>
<path d="M153.11 210.78C152.929 211.094 152.666 211.353 152.349 211.529C152.032 211.706 151.673 211.792 151.31 211.78C149.7 211.78 149.45 210.69 149.45 210.18C149.45 208.28 151.45 208.18 152.94 208.18H153.07V208C153.07 207 152.72 206.54 151.78 206.54C151.192 206.526 150.614 206.69 150.12 207.01V206.33C150.643 206.094 151.207 205.961 151.78 205.94C153.18 205.94 153.78 206.57 153.78 208.05V210.55C153.77 210.947 153.787 211.345 153.83 211.74H153.14L153.11 210.78ZM153.05 208.83H152.85C151.64 208.83 150.19 208.95 150.19 210.2C150.19 210.94 150.73 211.2 151.37 211.2C153.02 211.2 153.05 209.77 153.05 209.2V208.83Z" fill="#005187"/>
<path d="M155.14 203.36H155.84V211.69H155.14V203.36Z" fill="#005187"/>
<path d="M159.77 206.62H158.48V210.29C158.48 210.8 158.67 211.22 159.23 211.22C159.453 211.222 159.675 211.178 159.88 211.09V211.66C159.609 211.764 159.321 211.818 159.03 211.82C157.78 211.82 157.74 210.96 157.74 209.93V206.62H156.63V206H157.74V204.64L158.44 204.39V206H159.73L159.77 206.62Z" fill="#005187"/>
<path d="M160.74 203.36H161.44V207C161.607 206.674 161.86 206.399 162.172 206.207C162.484 206.015 162.843 205.912 163.21 205.91C164.73 205.91 165.14 206.91 165.14 208.32V211.71H164.44V208.33C164.44 207.33 164.25 206.51 163.1 206.51C161.95 206.51 161.42 207.69 161.42 208.68V211.68H160.72L160.74 203.36Z" fill="#005187"/>
<path d="M146.57 59.53C147.03 60.61 147.47 61.69 147.89 62.77C152.82 55.71 155.37 48.85 154.94 42.77C146.187 27.0622 132.586 14.6085 116.17 7.26996C115.71 10.222 114.692 13.0593 113.17 15.63C126.92 26.13 138.79 41.31 146.57 59.53ZM89.49 38.05C83.2799 41.9715 76.7618 45.3827 70 48.25C61.021 52.134 51.6263 54.9759 42 56.72C44.9261 69.315 48.8965 81.6443 53.87 93.58C58.0722 93.1871 62.3076 93.3417 66.47 94.04C67.3935 94.2624 68.3565 94.2624 69.28 94.04C69.28 94.04 73.19 92.58 74.61 91.91C74.9004 91.7991 75.1609 91.6221 75.371 91.3929C75.581 91.1638 75.7348 90.8889 75.82 90.59C76.2128 88.656 76.2467 86.6662 75.92 84.72C75.92 84.72 74.5 79.72 73.59 77.07C72.769 76.5243 72.1973 75.6758 72 74.71C72 74.71 70.78 71.16 70.58 70.6C70.58 70.6 70.38 68.95 71.29 69.06C71.29 69.06 70.07 65.41 70.88 62.63C70.88 62.63 72.81 54.63 76.66 51.89C76.66 51.89 80.25 49.77 83.66 50.06C85.7909 50.2219 87.8616 50.8427 89.73 51.88C93.58 54.65 95.51 62.62 95.51 62.62C96.33 65.4 95.1 69.05 95.1 69.05C96.02 68.94 95.81 70.59 95.81 70.59C95.61 71.15 94.4 74.7 94.4 74.7C94.2848 75.1749 94.0771 75.6225 93.7888 76.0171C93.5006 76.4118 93.1374 76.7457 92.72 77C91.81 79.66 90.39 84.65 90.39 84.65C90.0633 86.5962 90.0972 88.586 90.49 90.52C90.5762 90.8199 90.7315 91.0955 90.9434 91.3247C91.1552 91.5539 91.4177 91.7304 91.71 91.84C93.13 92.54 97 94 97 94C97.9235 94.2224 98.8865 94.2224 99.81 94C103.797 93.3315 107.851 93.1602 111.88 93.49C112.99 92.84 114.09 92.18 115.17 91.49C113.17 85.69 110.92 79.78 108.39 73.85C103.117 61.4021 96.7942 49.4255 89.49 38.05ZM64.09 9.26996C60.8749 11.4613 57.4477 13.324 53.86 14.83C49.2215 16.911 44.2964 18.283 39.25 18.9C37.67 28 38.57 40.61 41.6 54.78C51.0969 53.057 60.3643 50.2486 69.22 46.41C75.8682 43.5869 82.2731 40.2223 88.37 36.35C80.31 24.27 71.91 14.8 64.09 9.26996ZM146.5 64.69C145.94 63.23 145.35 61.7733 144.73 60.32C137.11 42.49 125.54 27.62 112.08 17.32C107.85 23.89 100.61 30.72 91.16 37C98.5461 48.4901 104.936 60.5909 110.26 73.17C112.75 79 114.98 84.8 116.94 90.52C129.69 82.42 139.88 73.45 146.5 64.69ZM15.2 56.41C13.0619 70.0537 14.2803 84.013 18.75 97.08L20.75 96.85C23.63 96.57 28.01 96.43 28.01 96.43C31.43 96.43 37.57 96.64 37.57 96.64C40.476 96.5712 43.362 96.1379 46.16 95.35C47.9841 94.6487 49.8783 94.1458 51.81 93.85C46.8693 81.9285 42.9193 69.6202 40 57.05C30.36 58.52 21.73 58.35 15.2 56.41ZM158.82 50.68C158.19 49.2 157.51 47.76 156.82 46.33C156.2 52.13 153.36 58.44 148.71 64.84C152.709 75.4578 155.069 86.6222 155.71 97.95C158.488 98.4893 161.303 98.8235 164.13 98.95C167.195 82.6898 165.347 65.885 158.82 50.68ZM117.59 92.39C117.91 93.22 118.23 94.01 118.59 94.79C119.13 94.95 119.67 95.14 120.19 95.35C122.991 96.1383 125.881 96.5717 128.79 96.64C128.79 96.64 134.92 96.48 138.34 96.43C138.34 96.43 142.73 96.57 145.61 96.85C145.61 96.85 149.86 97.35 153.74 97.73C154.17 91.27 152.49 81.14 147.31 66.73C140.41 75.54 130.2 84.42 117.59 92.39ZM13.59 53.72H13.67C15.78 41.06 20.55 29.58 27.88 20.38C18.9255 28.2164 11.7632 37.8889 6.88 48.74C8.56329 51.009 10.8704 52.7393 13.52 53.72H13.59ZM114.25 6.44996C102.366 1.47155 89.4859 -0.671685 76.63 0.18996C88.72 1.53996 100.68 6.54996 111.52 14.43C112.979 11.9905 113.909 9.27182 114.25 6.44996ZM13.25 55.76L12.74 55.58C10.0987 54.5911 7.73746 52.9746 5.86 50.87C0.389998 64 -1.45 83.51 1.19 99C4.51953 98.9218 7.83569 98.5504 11.1 97.89C12.93 97.72 15 97.51 16.76 97.32C12.08 82.42 11.52 71.07 13.28 55.76H13.25ZM39.54 55.11C36.54 41 35.65 28.42 37.2 19C36.144 19.0113 35.0945 18.8352 34.1 18.48C33.6394 18.304 33.218 18.039 32.86 17.7C23.68 27.27 17.86 40.07 15.51 54.44C21.77 56.35 30.15 56.54 39.57 55.11H39.54ZM65.78 7.99996C73.63 13.73 82 23.24 90 35.27C99.25 29.13 106.37 22.44 110.44 16.13C98.14 7.11996 84.32 1.93996 70.55 1.80996C70.4632 2.24012 70.3291 2.65935 70.15 3.05996C69.115 5.03632 67.6153 6.73161 65.78 7.99996ZM34.84 16.61C37.35 17.61 44.41 16.69 53.07 12.99C56.9458 11.3836 60.6152 9.31892 64 6.83996C66.3 5.09996 67.76 3.49996 68.23 2.33996C68.3898 2.03162 68.4256 1.67384 68.33 1.33996C68.3069 1.29771 68.2801 1.25756 68.25 1.21996C55.8944 3.326 44.1813 8.21988 34 15.53C33.9569 15.6837 33.9569 15.8463 34 16C34.1937 16.3013 34.4935 16.519 34.84 16.61Z" fill="#005187"/>
<path d="M61.77 132.15C61 125.8 60 116.39 60 116.39C59.3733 113.59 57.7126 111.129 55.35 109.5C53.57 108.23 48.25 108.62 48.25 108.62C42.32 109.62 35.17 107.97 35.17 107.97C34.26 107.64 30.31 106.97 30.31 106.97C27.4005 106.745 24.5162 106.267 21.69 105.54C20.3142 105.32 18.9232 105.21 17.53 105.21C15.9228 105.456 14.304 105.62 12.68 105.7C9.37605 106.248 6.02817 106.485 2.68 106.41C5.59 114.41 15.6 137.85 35.87 148.65L37.18 145.43L44.24 153.56L33.54 154.37L35.11 150.52C14.63 139.7 4.31 116.52 1.03 107.71V161.83H61.38C62.26 158.96 63.48 155.53 63.48 155.53C64.48 152.53 63.89 148.2 63.89 148.2C63 145.49 61.77 132.15 61.77 132.15ZM151.47 105.72C149.846 105.64 148.227 105.477 146.62 105.23C145.227 105.23 143.836 105.34 142.46 105.56C139.634 106.287 136.749 106.765 133.84 106.99C133.84 106.99 129.84 107.64 128.98 107.99C128.98 107.99 121.83 109.63 115.9 108.64C115.9 108.64 110.58 108.25 108.8 109.52C106.437 111.149 104.777 113.61 104.15 116.41C104.15 116.41 103.15 125.82 102.41 132.17C102.41 132.17 101.2 145.51 100.29 148.24C100.29 148.24 99.68 152.62 100.69 155.57C100.69 155.57 101.92 159 102.8 161.87H111.52C113.2 161.27 114.87 160.63 116.52 159.93C130.39 154.02 142.362 144.401 151.12 132.13L147.12 129.98L157.48 122.76L157.08 135.33L152.9 133.08C143.917 145.754 131.593 155.685 117.3 161.77L117.06 161.87H164V106.41C159.811 106.593 155.614 106.362 151.47 105.72Z" fill="#005187"/>
<path d="M154.54 164.78H153V163.94H157V164.78H155.46V168.93H154.55L154.54 164.78ZM158.16 163.94H159.58L160.89 167.31L162.17 163.94H163.58V168.94H162.67V165.13L161.27 168.94H160.52L159.12 165.13V168.94H158.2L158.16 163.94Z" fill="#005187"/>
</g>
<defs>
<clipPath id="clip0">
<rect width="165.88" height="214.08" fill="white"/>
</clipPath>
</defs>
</svg>
