<svg width="24" height="25" viewBox="0 0 24 25" fill="none" xmlns="http://www.w3.org/2000/svg">
<path d="M5.7203 15.6708C4.9603 15.6708 4.16699 16.2863 3.94919 17.0463C3.73142 17.8063 4.17142 18.4219 4.93142 18.4219C5.66699 18.4219 6.43365 17.8441 6.6803 17.1174C6.68919 17.093 6.69588 17.0708 6.70253 17.0463C6.70919 17.0219 6.71588 16.9974 6.7203 16.973C6.88919 16.2486 6.45365 15.6708 5.7203 15.6708ZM2.70476 10.1641C1.94476 10.1641 1.15142 10.7797 0.933647 11.5397C0.715866 12.2997 1.15587 12.9152 1.91587 12.9152C2.67587 12.9152 3.4692 12.2997 3.68698 11.5397C3.90476 10.7797 3.46476 10.1641 2.70476 10.1641ZM9.20476 4.65967C8.44476 4.65967 7.65142 5.27521 7.43365 6.03521C7.21588 6.79521 7.65588 7.41079 8.41588 7.41079C9.17588 7.41079 9.96919 6.79521 10.187 6.03521C10.4048 5.27521 9.96476 4.65967 9.20476 4.65967ZM6.69811 17.0486C6.69142 17.073 6.68476 17.0952 6.6803 17.1197C6.68919 17.0952 6.69588 17.073 6.70253 17.0486C6.70919 17.0241 6.71588 16.9997 6.7203 16.9752C6.71142 16.9997 6.70476 17.0241 6.69811 17.0486ZM23.0403 7.82856C22.9648 8.09521 22.8403 8.34856 22.6825 8.5819C22.1648 9.3419 21.2714 9.87744 20.4048 9.87744C19.9803 9.87744 19.6225 9.74856 19.3581 9.52856C19.3359 9.50856 19.3136 9.49079 19.2914 9.46856C18.7559 9.01967 18.0314 8.75967 17.1692 8.75967C15.2803 8.75967 13.3248 10.0174 12.3203 11.7419C12.1025 12.1174 11.9292 12.513 11.8114 12.9241L11.8092 12.9286C11.687 13.3574 11.6336 13.7708 11.6425 14.1597C11.6825 15.8552 12.9114 17.0863 14.7803 17.0863C15.6136 17.0863 16.4625 16.8419 17.2336 16.4174C17.3314 16.3663 17.4248 16.3108 17.5203 16.2508C17.8781 16.0663 18.2692 15.9619 18.6514 15.9619C19.5114 15.9619 20.0981 16.493 20.187 17.2441C20.2159 17.4819 20.1936 17.7419 20.1159 18.0152C19.9248 18.6841 19.4336 19.2774 18.8292 19.6552C18.827 19.6574 18.8248 19.6574 18.8203 19.6597C18.787 19.6797 18.7559 19.6974 18.7225 19.7152C18.7114 19.7241 18.7003 19.7286 18.6914 19.7352C17.2114 20.5841 15.5825 21.1063 13.967 21.1752L13.1892 21.173L10.927 21.1641H8.11588C8.75811 21.0863 9.39142 20.5952 9.64919 19.9752C9.67365 19.9174 9.69365 19.8574 9.71142 19.7974C9.92918 19.0374 9.48919 18.4219 8.72919 18.4219H7.68919H7.67811C6.94253 18.4219 6.50699 17.8441 6.67811 17.1174C6.68699 17.093 6.69365 17.0708 6.7003 17.0463C6.70699 17.0219 6.71365 16.9974 6.71811 16.973C6.83811 16.6219 7.07811 16.3063 7.37811 16.073C7.39365 16.0619 7.40918 16.0486 7.42476 16.0374C7.73588 15.8086 8.10476 15.6708 8.46699 15.6708C9.22699 15.6708 10.0203 15.0552 10.2381 14.2952C10.4559 13.5352 10.0159 12.9197 9.25588 12.9197H6.92699C6.16699 12.9197 5.72699 12.3041 5.94476 11.5441C6.16253 10.7841 6.95588 10.1686 7.71588 10.1686H11.7692C12.5292 10.1686 13.3225 9.55302 13.5403 8.79302C13.7581 8.03302 13.3181 7.41744 12.5581 7.41744H12.5448C12.2181 7.41744 11.9492 7.3041 11.7692 7.11302C11.5292 6.8619 11.4381 6.47302 11.5625 6.0419C11.7803 5.2819 12.5736 4.66633 13.3336 4.66633L18.3425 4.66189C19.7825 4.66189 21.027 5.03079 22.0203 5.67744C22.0381 5.68856 22.0581 5.7019 22.0759 5.71521C22.1492 5.76409 22.2225 5.81521 22.2936 5.86856C22.4003 5.94633 22.5048 6.03079 22.6048 6.11521C22.6336 6.13967 22.6625 6.16409 22.6892 6.18856C23.0803 6.55967 23.2314 7.15744 23.0403 7.82856Z" fill="url(#paint0_linear)"/>
<defs>
<linearGradient id="paint0_linear" x1="0.877828" y1="12.9174" x2="23.1228" y2="12.9174" gradientUnits="userSpaceOnUse">
<stop stop-color="#9985E7"/>
<stop offset="0.1643" stop-color="#A085E1"/>
<stop offset="0.3951" stop-color="#B285D0"/>
<stop offset="0.6652" stop-color="#D084B4"/>
<stop offset="0.963" stop-color="#F9848D"/>
<stop offset="1" stop-color="#FF8488"/>
</linearGradient>
</defs>
</svg>
