<svg width="200" height="215" viewBox="0 0 200 215" fill="none" xmlns="http://www.w3.org/2000/svg">
<g clip-path="url(#clip0)">
<path d="M198.9 30.57C200.62 29.12 198.59 29.2 198.59 29.2C197.06 29.64 195.53 30.2 195.53 30.2C193.234 31.0765 191.073 32.2715 189.11 33.75C187.129 35.0379 185.356 36.6193 183.85 38.44C176.6 40.73 162.01 47.24 162.01 47.24C158.48 47.98 153.46 49.65 153.46 49.65C150.692 50.502 148.064 51.7553 145.66 53.37C144.301 53.9073 142.837 54.1295 141.38 54.02C138.778 53.9422 136.179 54.2557 133.67 54.95C132.48 55.31 131.49 55.58 130.67 55.79C131.25 52.97 131.56 50.27 131.56 50.27C131.686 48.8102 131.726 47.3444 131.68 45.88C131.32 39.34 128.6 36.88 128.46 36.58C120.94 29.31 112.9 35.21 112.9 35.21C107.2 39.21 109.24 48.35 109.53 49.01C109.818 50.6797 110.466 52.2666 111.43 53.66C109.69 54.39 104.53 53.91 104.53 53.91C101.66 50.36 94.25 47.91 94.25 47.91C91 45.89 86.77 40 86.77 40C82.86 32.11 73.59 29.11 73.65 28.68C61.33 20.85 59 17.5 59 17.5C57.8539 16.7728 56.8811 15.8034 56.15 14.66C55.91 14.36 55.65 14.03 55.4 13.66C54.68 11.35 53.18 7.65996 53.21 4.98996C53.21 4.98996 52.79 1.98996 51.31 5.10996C51.149 5.66118 51.0452 6.22749 51 6.79996L50.77 6.54996C50.7748 6.52015 50.7748 6.48976 50.77 6.45996H50.66C45.23 0.489957 46.32 2.35996 43.72 -4.30699e-05C42.29 -0.150043 42.72 1.52996 42.72 1.52996C42.9012 1.89447 43.1335 2.23122 43.41 2.52996C42.61 2.21996 41.79 2.24996 42.61 4.29996C42.61 4.29996 42.84 4.60996 43.23 5.05996C42.85 4.98996 41.58 4.86996 42.42 6.49996C42.42 6.49996 43.05 7.05996 43.99 7.76996C43.52 7.76996 42.99 8.03996 43.63 9.23996C44.6901 10.1313 45.8167 10.9403 47 11.66C47.3746 12.7647 47.8361 13.838 48.38 14.87C49.89 17.28 53.72 18.81 53.72 18.81C58.72 22.35 69.24 35.32 69.24 35.32C71.5535 38.3167 74.2807 40.9698 77.34 43.2C79.3173 44.9189 80.9059 47.0393 82 49.42C85.45 54.89 85.16 54.87 93.29 61.68C94.8467 63.695 95.8313 66.0925 96.14 68.62C95.89 71.62 95.87 75.28 95.87 75.28C95.8314 77.3891 95.3167 79.4623 94.3643 81.3445C93.4119 83.2268 92.0465 84.8695 90.37 86.15C88.8427 87.2031 87.1538 88.0002 85.37 88.51C79.08 90.16 73.37 96.36 73.15 96.63C69.38 101.21 57.65 108.52 57.65 108.52C52.81 112.39 44.65 113.44 44.65 113.44C33.91 113.66 22 126.82 22 126.82C21.2003 127.983 20.0127 128.823 18.65 129.19C14.16 127.44 12.71 132.19 12.71 132.19C12.1726 134.206 11.2526 136.101 9.99999 137.77C6.78999 141.77 5.80999 144.18 5.55999 145.56C5.47778 145.887 5.43085 146.223 5.41999 146.56C5.34381 146.83 5.35941 147.118 5.46436 147.379C5.56931 147.639 5.75768 147.858 5.99999 148C5.9962 148.368 6.08599 148.731 6.26092 149.054C6.43584 149.378 6.69017 149.652 6.99999 149.85C7.00672 149.9 7.00672 149.95 6.99999 150C6.99999 151 8.16999 151.56 8.28999 151.61C8.37812 152.015 8.59003 152.383 8.89639 152.662C9.20275 152.942 9.58841 153.119 9.99999 153.17C11.84 155.57 13.86 153.29 13.86 153.29C14.2186 152.835 14.5146 152.334 14.74 151.8C15.3584 150.591 15.8382 149.316 16.17 148C16.86 145.549 17.9919 143.244 19.51 141.2C20.867 139.866 22.1144 138.424 23.24 136.89C26.67 133.19 28.76 132.25 28.76 132.25C33.1876 130.569 37.5265 128.663 41.76 126.54C43.4111 125.918 45.1193 125.459 46.86 125.17C48.1538 125.022 49.4614 125.042 50.75 125.23C52.98 125.72 55.25 124.92 56.75 124.38C56.75 124.38 60.63 123.9 64.45 123.38C63.5231 125.35 62.715 127.373 62.03 129.44C61.8177 130.697 61.1656 131.839 60.19 132.66C55.83 132.93 56.46 137.39 56.46 137.39C56.743 139.279 56.6547 141.205 56.2 143.06C53.98 150.27 55.2 151.8 55.2 151.8C55.55 152.86 56.66 153.88 57.78 153.09C59.27 153.63 59.55 152.97 60.38 152.78C61.5744 152.531 62.6515 151.891 63.44 150.96C63.9307 149.638 64.1846 148.24 64.19 146.83C64.1554 145.105 64.2557 143.38 64.49 141.67C64.723 140.012 65.1389 138.386 65.73 136.82C66.7546 134.85 68.021 133.016 69.5 131.36C72.42 128.53 78.15 122.45 80.57 119.86L81.67 119.55C87.23 117.6 91.95 115.8 91.95 115.8C103.18 111.87 106.48 107.87 106.48 107.87C112.963 101.826 119.816 96.1913 127 91C133.23 87.4 136 78 136 78C137.92 70.13 140.39 70.06 141.39 69.16C144.093 67.6989 146.642 65.9702 149 64C155.26 62.66 163.25 56.25 163.25 56.25C166.37 54.69 168.08 53.74 168.08 53.74C172.56 51.56 183.22 43.34 183.22 43.34C184.071 42.7365 185.008 42.2645 186 41.94C186.791 42.0121 187.589 41.9177 188.342 41.6628C189.094 41.4079 189.785 40.9981 190.37 40.46C190.64 40.16 190.88 39.87 191.1 39.58C192.516 38.8329 193.856 37.9486 195.1 36.94C197.1 34.15 194.28 35.05 194.28 35.05C193.985 35.1977 193.681 35.3279 193.37 35.44C193.715 34.8842 194.159 34.3961 194.68 34C195.865 33.8061 197.03 33.5049 198.16 33.1C199.16 32.36 199.16 32.1 198.84 31.96C200.2 30.47 199.32 30.5 198.9 30.57Z" fill="#005187"/>
<path d="M11.35 188.16C11.35 189.96 11.55 189.96 13.54 189.96H18.07C19.9623 190.037 21.8574 189.903 23.72 189.56C24.45 189.29 24.98 188.96 25.38 187.23L25.98 184.57C26.2267 184.376 26.5313 184.271 26.845 184.271C27.1587 184.271 27.4633 184.376 27.71 184.57C27.71 186.17 27.44 188.83 27.44 191.29C27.44 193.75 27.71 196.21 27.71 197.74C27.44 198.14 26.45 198.14 25.98 197.74L25.32 195.15C25.2269 194.575 24.9797 194.036 24.6046 193.591C24.2295 193.145 23.7406 192.81 23.19 192.62C21.5021 192.31 19.7841 192.196 18.07 192.28H13.54C11.54 192.28 11.35 192.35 11.35 194.08V203.33C11.35 210.33 11.48 211.33 15.41 211.64L17.67 211.84C18.07 212.11 17.93 213.3 17.53 213.5C13.61 213.37 11.35 213.3 8.68999 213.3C5.75999 213.3 3.49999 213.37 0.369995 213.5C0.157497 213.282 0.0281056 212.997 0.00435135 212.693C-0.0194029 212.39 0.0639851 212.088 0.239995 211.84L1.89999 211.64C5.75999 211.17 5.89999 210.31 5.89999 203.33V179.33C5.89999 172.33 5.76999 171.42 1.89999 170.95L0.839995 170.82C0.439995 170.55 0.569995 169.36 0.969995 169.15C3.76999 169.29 6.02999 169.36 8.68999 169.36H20.93C23.9316 169.448 26.9357 169.377 29.93 169.15C29.93 172.22 29.99 175.41 30.13 177.94C29.9332 178.163 29.6613 178.305 29.3662 178.34C29.0711 178.375 28.7735 178.3 28.53 178.13C28 175.13 27.2 172.68 23.87 171.82C21.7423 171.441 19.5782 171.307 17.42 171.42H13.34C11.34 171.42 11.34 171.55 11.34 174.08L11.35 188.16Z" fill="#BC9ECA"/>
<path d="M37.29 194.21C37.29 191.62 37.29 191.29 35.49 190.09L34.9 189.69C34.7625 189.517 34.6928 189.3 34.7038 189.079C34.7148 188.858 34.8059 188.649 34.96 188.49C37.275 187.569 39.5207 186.483 41.68 185.24C42.01 185.3 42.21 185.43 42.21 185.7V189.56C42.21 189.89 42.28 190.09 42.41 190.16C44.74 188.23 47.27 186.16 49.73 186.16C50.1041 186.126 50.4813 186.168 50.8383 186.285C51.1953 186.403 51.5245 186.592 51.8056 186.841C52.0867 187.09 52.3137 187.394 52.4727 187.735C52.6317 188.075 52.7193 188.444 52.73 188.82C52.7465 189.602 52.4567 190.36 51.9224 190.932C51.3881 191.503 50.6516 191.844 49.87 191.88C49.3463 191.879 48.836 191.715 48.41 191.41C47.5557 190.782 46.5383 190.414 45.48 190.35C45.0035 190.361 44.5368 190.487 44.1203 190.719C43.7038 190.951 43.3502 191.281 43.09 191.68C42.42 192.61 42.22 194.54 42.22 196.8V205.8C42.22 210.59 42.35 211.39 44.88 211.59L47.28 211.79C47.3821 211.907 47.4596 212.044 47.5079 212.191C47.5563 212.339 47.5745 212.495 47.5614 212.65C47.5484 212.804 47.5043 212.955 47.4319 213.093C47.3595 213.23 47.2603 213.352 47.14 213.45C44.02 213.32 42.09 213.25 39.76 213.25C37.43 213.25 35.37 213.32 33.64 213.45C33.5204 213.351 33.422 213.229 33.3505 213.091C33.279 212.953 33.236 212.802 33.2238 212.647C33.2117 212.493 33.2308 212.337 33.2799 212.19C33.3291 212.042 33.4073 211.906 33.51 211.79L34.77 211.59C37.23 211.19 37.3 210.59 37.3 205.8L37.29 194.21Z" fill="#BC9ECA"/>
<path d="M60.83 196.28C59.11 196.28 59.04 196.41 59.04 198.07C59.04 204.79 62.96 210.51 70.04 210.51C72.23 210.51 74.1 209.84 76.16 207.25C76.2918 207.198 76.4342 207.18 76.5749 207.195C76.7156 207.21 76.8506 207.259 76.9684 207.337C77.0861 207.416 77.1832 207.522 77.2514 207.646C77.3196 207.77 77.3568 207.908 77.36 208.05C75.16 212.57 70.36 214.24 66.91 214.24C65.0727 214.3 63.2465 213.933 61.5742 213.17C59.9019 212.407 58.4288 211.267 57.27 209.84C55.4115 207.347 54.4304 204.309 54.48 201.2C54.48 193.02 59.86 186.2 67.85 186.2C73.56 186.2 77.29 190.12 77.29 194.11C77.3289 194.699 77.2367 195.29 77.02 195.84C76.82 196.24 75.89 196.31 73.1 196.31L60.83 196.28ZM64.96 194.28C69.88 194.28 71.34 194.01 71.88 193.62C72.08 193.48 72.27 193.22 72.27 192.35C72.27 190.49 71.01 188.16 67.15 188.16C63.29 188.16 59.84 191.75 59.77 193.95C59.77 194.08 59.77 194.28 60.24 194.28H64.96Z" fill="#BC9ECA"/>
<path d="M87.17 196.28C85.45 196.28 85.38 196.41 85.38 198.07C85.38 204.79 89.3 210.51 96.38 210.51C98.57 210.51 100.44 209.84 102.5 207.25C102.632 207.198 102.774 207.18 102.915 207.195C103.056 207.21 103.191 207.259 103.308 207.337C103.426 207.416 103.523 207.522 103.591 207.646C103.66 207.77 103.697 207.908 103.7 208.05C101.5 212.57 96.7 214.24 93.25 214.24C91.4127 214.3 89.5865 213.933 87.9142 213.17C86.2419 212.407 84.7687 211.267 83.61 209.84C81.7515 207.347 80.7704 204.309 80.82 201.2C80.82 193.02 86.2 186.2 94.19 186.2C99.9 186.2 103.63 190.12 103.63 194.11C103.669 194.699 103.577 195.29 103.36 195.84C103.16 196.24 102.23 196.31 99.44 196.31L87.17 196.28ZM91.3 194.28C96.22 194.28 97.68 194.01 98.22 193.62C98.42 193.48 98.61 193.22 98.61 192.35C98.61 190.49 97.35 188.16 93.49 188.16C89.63 188.16 86.18 191.75 86.11 193.95C86.11 194.08 86.11 194.28 86.58 194.28H91.3Z" fill="#BC9ECA"/>
<path d="M118.83 188.16C118.83 189.96 119.04 189.96 121.03 189.96H125.55C127.446 190.038 129.344 189.903 131.21 189.56C131.94 189.29 132.47 188.96 132.87 187.23L133.47 184.57C133.717 184.376 134.021 184.271 134.335 184.271C134.649 184.271 134.953 184.376 135.2 184.57C135.2 186.17 134.93 188.83 134.93 191.29C134.93 193.75 135.2 196.21 135.2 197.74C134.93 198.14 133.93 198.14 133.47 197.74L132.8 195.15C132.71 194.574 132.464 194.033 132.088 193.587C131.713 193.141 131.222 192.807 130.67 192.62C128.982 192.309 127.264 192.195 125.55 192.28H121C119 192.28 118.8 192.35 118.8 194.08V203.33C118.8 210.33 118.94 211.33 122.86 211.64L125.12 211.84C125.52 212.11 125.39 213.3 124.99 213.5C121.07 213.37 118.8 213.3 116.14 213.3C113.22 213.3 110.96 213.37 107.83 213.5C107.616 213.283 107.485 212.998 107.461 212.694C107.438 212.39 107.522 212.087 107.7 211.84L109.36 211.64C113.22 211.17 113.36 210.31 113.36 203.33V179.33C113.36 172.33 113.23 171.42 109.36 170.95L108.3 170.82C107.9 170.55 108.03 169.36 108.43 169.15C111.22 169.29 113.48 169.36 116.14 169.36H128.38C131.382 169.448 134.386 169.378 137.38 169.15C137.38 172.22 137.45 175.41 137.58 177.94C137.385 178.162 137.115 178.304 136.821 178.339C136.528 178.374 136.232 178.3 135.99 178.13C135.45 175.13 134.66 172.68 131.33 171.82C129.202 171.441 127.038 171.307 124.88 171.42H120.82C118.82 171.42 118.82 171.55 118.82 174.08L118.83 188.16Z" fill="#BC9ECA"/>
<path d="M153.22 199.53C154.22 199.2 154.35 198.6 154.35 197.61L154.42 194.55C154.49 192.09 153.69 188.76 149.56 188.76C147.7 188.76 145.44 189.69 145.31 191.76C145.24 192.83 145.17 193.63 144.64 194.02C143.523 194.795 142.208 195.236 140.85 195.29C140.724 195.304 140.597 195.29 140.478 195.248C140.358 195.207 140.25 195.139 140.161 195.049C140.071 194.96 140.003 194.852 139.961 194.732C139.92 194.613 139.906 194.486 139.92 194.36C139.92 190.9 147.44 186.18 152.29 186.18C157.14 186.18 159.41 188.97 159.21 193.96L158.81 205.53C158.68 208.59 159.28 211.32 161.87 211.32C162.447 211.315 163.014 211.178 163.53 210.92C163.87 210.72 164.2 210.45 164.4 210.45C164.6 210.45 164.86 210.85 164.86 211.32C164.86 211.79 162.54 214.25 159.28 214.25C158.446 214.27 157.62 214.093 156.867 213.733C156.115 213.373 155.458 212.841 154.95 212.18C154.69 211.78 154.29 211.25 153.89 211.25C152.965 211.568 152.09 212.016 151.29 212.58C149.87 213.546 148.222 214.122 146.51 214.25C144.82 214.327 143.161 213.779 141.85 212.71C141.198 212.124 140.678 211.406 140.323 210.605C139.968 209.804 139.786 208.936 139.79 208.06C139.79 205.46 141.05 203.94 145.31 202.41L153.22 199.53ZM149.1 211.24C150.587 211.098 152 210.521 153.16 209.58C153.96 208.78 153.96 207.85 154.02 206.45L154.15 202.53C154.15 201.8 153.89 201.66 153.49 201.66C152.558 201.781 151.642 202.006 150.76 202.33C146.84 203.66 144.91 204.66 144.91 207.25C144.911 207.791 145.021 208.326 145.235 208.823C145.448 209.32 145.76 209.768 146.152 210.141C146.543 210.514 147.006 210.804 147.513 210.993C148.02 211.182 148.56 211.266 149.1 211.24Z" fill="#BC9ECA"/>
<path d="M175.11 205.85C175.11 210.64 175.24 211.31 177.63 211.64L179.23 211.84C179.333 211.956 179.411 212.092 179.46 212.24C179.509 212.387 179.528 212.543 179.516 212.697C179.504 212.852 179.461 213.003 179.389 213.141C179.318 213.279 179.22 213.401 179.1 213.5C176.9 213.37 174.97 213.3 172.64 213.3C170.31 213.3 168.26 213.37 166.26 213.5C166.139 213.402 166.04 213.28 165.967 213.142C165.895 213.004 165.852 212.853 165.839 212.698C165.827 212.542 165.847 212.386 165.897 212.239C165.947 212.092 166.026 211.956 166.13 211.84L167.66 211.64C170.12 211.31 170.18 210.64 170.18 205.85V175.79C170.18 171.87 170.12 171.47 168.12 170.27L167.46 169.87C167.297 169.687 167.207 169.45 167.207 169.205C167.207 168.96 167.297 168.723 167.46 168.54C169.925 167.807 172.327 166.874 174.64 165.75C174.778 165.748 174.914 165.784 175.032 165.854C175.15 165.925 175.247 166.027 175.31 166.15C175.24 168.15 175.11 171.47 175.11 174.39V205.85Z" fill="#BC9ECA"/>
<path d="M191.54 205.85C191.54 210.64 191.67 211.31 194.06 211.64L195.66 211.84C195.763 211.956 195.841 212.092 195.89 212.24C195.939 212.387 195.958 212.543 195.946 212.697C195.934 212.852 195.891 213.003 195.819 213.141C195.748 213.279 195.65 213.401 195.53 213.5C193.33 213.37 191.4 213.3 189.07 213.3C186.74 213.3 184.68 213.37 182.69 213.5C182.569 213.402 182.47 213.28 182.397 213.142C182.325 213.004 182.282 212.853 182.269 212.698C182.257 212.542 182.277 212.386 182.327 212.239C182.377 212.091 182.456 211.956 182.56 211.84L184.09 211.64C186.55 211.31 186.61 210.64 186.61 205.85V175.79C186.61 171.87 186.55 171.47 184.55 170.27L183.89 169.87C183.727 169.687 183.637 169.45 183.637 169.205C183.637 168.96 183.727 168.723 183.89 168.54C186.355 167.805 188.756 166.872 191.07 165.75C191.207 165.746 191.342 165.781 191.459 165.852C191.576 165.923 191.67 166.027 191.73 166.15C191.67 168.15 191.54 171.47 191.54 174.39V205.85Z" fill="#BC9ECA"/>
<path d="M67 26.41C60.51 22.41 55.37 13.62 55.37 13.62C57.3908 15.9477 59.7188 17.9897 62.29 19.69C62.29 19.69 70.29 25.15 73.66 27.45C73.66 27.45 86.59 35.21 88.53 41.99C90.7659 44.3566 93.2732 46.451 96 48.23C96 48.23 102.22 50.75 104.42 53.58C106.712 53.3809 109.018 53.3809 111.31 53.58C111.86 53.76 112.58 55.98 113.71 56.65C111.643 55.917 109.422 55.7277 107.26 56.1C107.26 56.1 105.51 56.75 102.34 55.77C99.7387 55.0966 97.3377 53.807 95.34 52.01C93.34 49.59 88.58 47.65 88.58 47.65C87.7237 47.2488 86.9097 46.763 86.15 46.2C85.824 45.9212 85.5714 45.5665 85.4145 45.1672C85.2575 44.7679 85.2011 44.3362 85.25 43.91C87.25 42.5 86.07 41.36 86.07 41.36C83.73 38.9 74.36 31.36 74.07 30.79C71.9274 29.0453 69.576 27.574 67.07 26.41" fill="#BC9ECA"/>
<path d="M85.13 88.3499C79.13 90.2399 73.34 95.9599 73.13 96.2199C69.36 100.8 57.71 108.14 57.71 108.14C52.93 111.83 45 113.37 45 113.37C33.61 113.37 22.11 126.82 22.11 126.82C20.43 128.94 18.84 129.08 18.84 129.08C14.84 127.8 13.53 130.74 13.53 130.74C13.34 131.14 12.97 131.49 13.13 131.82C13.41 132.206 13.811 132.488 14.2694 132.62C14.7278 132.752 15.2172 132.728 15.66 132.55C16.1036 132.036 16.6943 131.67 17.3523 131.502C18.0103 131.334 18.7041 131.371 19.34 131.61C26.9634 123.149 37.2211 117.511 48.45 115.61C51.8798 115.492 55.2449 114.643 58.32 113.12C63.03 108.28 81.47 98.2999 81.47 98.2999C82.9019 96.5453 84.1611 94.6565 85.23 92.6599C86.0307 90.6141 87.2776 88.7728 88.88 87.2699C87.5996 87.5144 86.3443 87.876 85.13 88.3499Z" fill="#BC9ECA"/>
<path d="M112.82 86.93C112.82 86.93 101.9 83.27 100.73 74C100.201 76.829 100.758 79.7534 102.29 82.19C103.63 84.61 107.41 87 112.82 86.93Z" fill="#BC9ECA"/>
</g>
<defs>
<clipPath id="clip0">
<rect width="199.59" height="214.24" fill="white"/>
</clipPath>
</defs>
</svg>
