<svg width="300" height="134" viewBox="0 0 300 134" fill="none" xmlns="http://www.w3.org/2000/svg">
<path d="M287.767 29.5561C287.798 30.1758 287.813 30.8034 287.813 31.4387C287.817 37.8412 286.217 44.1428 283.162 49.7693C280.107 55.3958 275.692 60.1683 270.32 63.6521C269.052 66.2441 267.618 68.7516 266.028 71.1592C265.548 72.1527 265.167 73.1906 264.889 74.2582L264.75 75.2576C264.889 74.2582 263.533 80.5335 262.534 83.0049C261.202 86.4243 260.832 90.1434 261.465 93.7582C261.465 93.7582 263.634 109.594 263.603 118.867C263.294 123.201 262.67 127.507 261.736 131.751H300V29.4863L287.767 29.5561Z" fill="#005187"/>
<path d="M70.5007 37.5746V35.2504C71.1789 35.0819 71.8673 34.9576 72.5615 34.8785L79.7356 34.4679C85.6855 33.9153 92.3508 33.4762 99.7314 33.1509C102.686 33.0476 107.334 32.9959 113.677 32.9959C122.328 32.9959 128.663 33.6338 132.681 34.9095C138.527 36.7895 142.889 39.6302 145.766 43.4316C148.583 47.039 150.104 51.4903 150.081 56.0675C150.102 63.6237 144.751 69.9662 134.029 75.0949L133.642 75.645C138.48 76.8297 143.046 78.9339 147.091 81.8428C150.5 84.3846 153.259 87.698 155.14 91.5115C156.514 94.3109 157.199 97.9676 157.193 102.482C157.193 110.043 153.751 116.783 146.866 122.702C139.981 128.621 130.488 131.578 118.387 131.573H107.014L95.5014 131.953C85.3369 132.051 79.3973 132.102 77.6825 132.108C75.9084 132.108 74.1497 132.03 72.4221 131.875V131.007C72.3779 130.541 72.5137 130.075 72.8017 129.706C73.3135 129.304 73.9184 129.038 74.5603 128.931C80.908 127.614 84.5002 126.713 85.3369 126.227C85.7631 125.974 86.1341 125.638 86.4282 125.239C86.7223 124.839 86.9334 124.385 87.049 123.903C87.6637 121.873 87.971 116.644 87.971 108.215C87.971 107.44 87.971 106.487 87.8935 105.325C87.785 101.924 87.7385 99.9716 87.7385 99.4603V91.558C87.7385 78.1293 87.5862 66.4282 87.2815 56.4548L87.204 41.1461L87.1343 39.248C82.8216 38.6334 79.0151 38.2512 75.7147 38.1014C73.9636 38.098 72.2171 37.9215 70.5007 37.5746V37.5746ZM100.56 76.2105C103.219 76.7337 105.923 76.9932 108.633 76.9853C119.696 76.9853 127.201 74.5604 131.147 69.7105C135.093 64.8607 137.066 60.0367 137.066 55.2385C137.056 53.0161 136.706 50.8084 136.028 48.692C135.304 46.4188 134.038 44.3556 132.34 42.6801C130.497 40.8499 128.245 39.4849 125.77 38.6979C121.359 37.2267 116.739 36.4785 112.088 36.4822C107.993 36.4576 103.911 36.9549 99.9406 37.962C99.8864 39.0388 99.8631 39.8291 99.8631 40.3404C99.8631 40.8517 99.9174 42.3082 100.018 44.7021C100.065 46.2516 100.096 47.8011 100.096 49.2963L99.8631 58.5931L99.9406 64.1092L100.475 74.9012L100.56 76.2105ZM118.596 127.831C123.016 127.648 127.351 126.559 131.333 124.631C133.408 123.447 135.305 121.973 136.965 120.254C139.165 118.107 140.89 115.523 142.032 112.669C143.18 109.973 143.793 107.078 143.837 104.147C143.752 101.536 143.325 98.9469 142.566 96.4466C141.764 93.4753 140.296 90.7254 138.274 88.4048C136.255 86.091 133.249 84.1851 129.257 82.6873C125.038 81.1511 120.576 80.3899 116.086 80.4406C106.789 80.4406 101.573 80.6188 100.436 80.9751C100.382 82.1372 100.359 83.0049 100.359 83.5628L100.436 86.3828L100.359 92.1003V98.5848C100.514 110.526 100.795 117.586 101.203 119.766C101.614 121.959 103.009 123.833 105.387 125.414C107.765 126.994 112.158 127.831 118.596 127.831Z" fill="#005187"/>
<path d="M151.197 129.535C151.775 129.179 152.433 128.974 153.111 128.939H154.869C155.226 128.939 155.838 128.939 156.705 128.861C160.625 128.513 162.95 128.156 163.678 127.8C165.669 126.61 167.265 124.858 168.264 122.764C170.893 117.599 173.85 110.252 177.135 100.723C178.684 96.1986 179.668 93.4535 180.087 92.4877C181.347 89.4352 182.561 86.2304 183.728 82.8732L190.856 62.8154C191.961 59.6648 194.639 52.434 198.89 41.1229C199.922 38.2822 201.214 34.4705 202.763 29.6878L205.134 29.5328L207.799 29.6103C210.06 34.1271 211.994 38.8004 213.586 43.5942C214.5 46.2438 215.998 50.1924 218.08 55.4399L229.646 86.8476L235.844 103.892C239.098 113.576 241.234 119.516 242.251 121.711C243.266 123.926 244.211 125.391 245.071 126.103C245.971 126.549 246.928 126.869 247.915 127.056C249.565 127.467 250.727 127.769 251.385 127.978C253.054 128.389 254.687 128.936 256.266 129.613C256.437 130.012 256.542 130.436 256.576 130.868C256.55 131.249 256.472 131.624 256.344 131.984C254.717 132.038 253.57 132.061 252.912 132.061C250.329 132.061 245.751 132.007 239.176 131.898L231.545 131.782L222.31 131.86C221.698 131.86 221.078 131.86 220.443 131.805C219.807 131.751 219.257 131.743 218.8 131.743H217.127C216.583 131.71 216.054 131.556 215.577 131.294C215.576 130.605 215.705 129.921 215.957 129.28C216.482 129.009 217.051 128.833 217.638 128.761L225.649 128.218C227.263 128.209 228.864 127.923 230.382 127.374C230.633 126.707 230.787 126.008 230.84 125.298C230.84 124.376 230.173 121.982 228.856 118.131C227.942 115.549 227.141 113.111 226.455 110.818C225.768 108.525 223.056 100.925 218.32 88.0175C216.513 87.6806 214.68 87.4991 212.842 87.4752L196.573 87.6301L191.777 87.5526C189.868 87.563 187.961 87.6898 186.068 87.9322C185.409 89.4817 184.975 90.5663 184.774 91.2249L178.096 112.259C175.255 120.27 173.835 124.68 173.835 125.491C173.924 126.3 174.154 127.087 174.516 127.816C175.919 128.192 177.345 128.474 178.785 128.66L189.167 129.574C189.732 130.047 190.011 130.465 190.011 130.837C189.985 131.235 189.907 131.629 189.779 132.007C187.454 132.061 185.735 132.092 184.51 132.092C180.435 132.092 175.702 131.883 170.31 131.465C167.815 131.356 166.033 131.31 164.964 131.31C163.895 131.31 162.035 131.356 159.394 131.465C157.658 131.565 156.411 131.619 155.652 131.619C154.428 131.619 152.85 131.545 150.918 131.395V130.93C150.94 130.454 151.034 129.983 151.197 129.535V129.535ZM187.563 83.7409C192.996 84.0508 199.194 84.2032 206.157 84.198C210.118 84.198 213.597 84.0715 216.592 83.8184C216.109 81.9433 215.522 80.0966 214.834 78.2868C211.528 69.5065 209.694 64.6592 209.333 63.7451L202.36 46.2438L201.586 44.8803C201.281 45.4898 200.168 48.0929 198.246 52.6896C195.008 60.5712 192.684 66.7071 191.274 71.0973C190.613 73.0651 189.928 75.02 189.221 76.962C188.708 78.3014 188.266 79.6668 187.896 81.0526C187.711 81.87 187.452 82.6688 187.121 83.4388L187.563 83.7409Z" fill="#005187"/>
<path d="M0 130.93C1.10203 130.512 2.25737 130.251 3.43207 130.155C11.1794 129.639 15.6238 128.706 16.7652 127.358C17.9067 126.01 18.4671 119.459 18.4464 107.703L18.3689 99.6617V91.2714L18.0668 81.9746L18.214 76.5514L18.1365 70.5705V63.5282L17.9893 60.4292L18.1365 56.4471C18.1907 55.5252 18.214 54.456 18.214 53.232C18.214 50.0091 18.0616 46.6106 17.7569 43.0365C17.5549 42.3208 17.2743 41.6296 16.9202 40.9757C15.0376 39.9995 12.0006 39.3565 7.80931 39.0234C3.618 38.6902 1.24732 38.2874 0.689513 37.8768C0.278904 37.5746 0.046484 36.7844 0 35.5526H6.39155L26.5346 36.1801C31.6995 36.1801 38.5998 35.9709 47.2355 35.5526C47.2389 36.33 47.1872 37.1067 47.0805 37.8768C45.3991 38.2415 43.7003 38.5208 41.9905 38.7135C37.1975 39.2454 34.269 39.7697 33.2051 40.2862C32.58 40.5058 32.0638 40.9582 31.7641 41.549C31.2605 42.4632 30.9893 44.1753 30.8576 46.6622L30.478 56.5091L30.7802 90.4811V103.907C30.682 108.137 30.6304 111.014 30.6252 112.538C30.6252 118.219 30.7672 121.858 31.0513 123.454C31.1924 124.709 31.7111 125.893 32.5388 126.847C33.5215 127.682 34.704 128.248 35.9709 128.49C37.7734 128.954 39.6146 129.252 41.4715 129.381C44.3457 129.489 46.1741 129.9 46.9411 130.612C47.0808 131.165 47.1588 131.731 47.1735 132.301V132.921C42.5251 133.076 39.1085 133.151 36.9238 133.146C35.6532 133.146 33.3833 133.084 30.1216 132.944L19.5698 133.084L1.6037 133.006H0.154947L0 130.93Z" fill="#005187"/>
<path d="M259.435 35.6377C259.512 35.909 259.567 36.1863 259.598 36.4667C261.049 35.7178 262.433 34.943 263.75 34.1425C263.03 32.0042 262.201 29.8272 261.263 27.6347C259.498 23.4987 257.426 19.5003 255.065 15.6728C252.524 17.3498 249.835 18.7916 247.031 19.9803C243.846 21.365 240.522 22.4039 237.115 23.0793C238.149 27.0955 239.467 31.0333 241.058 34.863C241.57 33.2283 242.925 29.6025 245.11 28.115C245.11 28.115 248.163 26.1395 249.859 26.5656C252.06 26.1162 255.104 28.115 255.104 28.115C257.986 29.9822 259.435 35.6377 259.435 35.6377ZM236.193 23.1877C232.405 23.7998 229.019 23.7533 226.486 22.9786C226.041 29.4225 227.16 35.8785 229.747 41.7968C229.972 42.3159 230.197 42.8272 230.437 43.3463C234.02 43.6859 237.633 43.5111 241.167 42.8272L240.601 41.2778C240.601 41.2778 240.446 40.1002 241.128 40.1854C240.711 38.9394 240.558 37.6201 240.679 36.3117C238.85 32.0512 237.353 27.6557 236.201 23.1645L236.193 23.1877ZM254.577 14.8594C251.362 9.77711 247.961 5.81047 244.816 3.57149C243.629 4.37243 242.368 5.05735 241.051 5.61679C239.326 6.38263 237.499 6.89162 235.627 7.12752C234.992 10.885 235.48 16.1764 236.898 22.1031C240.257 21.4545 243.536 20.4413 246.675 19.0817C249.438 17.9158 252.086 16.4944 254.585 14.8361L254.577 14.8594ZM281.298 30.354C281.297 26.4781 280.553 22.6383 279.105 19.0429C278.525 20.9179 277.626 22.679 276.448 24.2491C278.611 29.9354 279.451 36.0397 278.904 42.099C280.491 38.365 281.308 34.3492 281.306 30.292L281.298 30.354ZM242.863 45.8487C242.56 45.6629 242.298 45.4173 242.093 45.127C241.888 44.8366 241.744 44.5075 241.67 44.1598L241.492 43.6872C238.013 44.3623 234.459 44.5734 230.925 44.3147C232.864 48.1776 235.412 51.7037 238.471 54.7581C239.678 54.646 240.871 54.4044 242.027 54.0376C242.027 54.0376 245.126 53.1777 244.684 51.4578C244.684 51.4268 243.553 47.6461 242.871 45.7712L242.863 45.8487ZM263.239 2.57983C259.39 0.872877 255.224 -0.00607068 251.014 -3.01101e-05C250.595 -3.01101e-05 250.177 -3.01101e-05 249.766 -3.01101e-05C254.628 0.693436 259.221 2.65469 263.084 5.68651C263.471 4.6952 263.526 3.60477 263.239 2.57983V2.57983ZM275.635 22.1651C275.79 22.5137 275.921 22.8701 276.061 23.2265C277.291 21.5568 278.124 19.6275 278.493 17.5864C275.564 11.2751 270.556 6.16093 264.308 3.0989C264.438 4.19973 264.281 5.31555 263.851 6.33729C269.017 10.571 273.068 16.0051 275.65 22.1651H275.635ZM255.832 15.0995C258.218 18.9822 260.311 23.0376 262.092 27.2318C263.022 29.3856 263.843 31.5161 264.564 33.5924C268.697 31.0817 272.367 27.8763 275.41 24.1174C275.209 23.5829 274.999 23.0483 274.775 22.5292C272.288 16.5812 268.409 11.3176 263.464 7.18175C262.154 9.77711 259.489 12.5507 255.848 15.0995H255.832ZM259.613 37.4583C259.567 38.3724 259.401 39.2764 259.117 40.1467C259.791 40.0614 259.644 41.239 259.644 41.239L258.598 44.1598C258.516 44.5 258.366 44.8203 258.159 45.1023C257.951 45.3843 257.69 45.6222 257.39 45.8022C256.716 47.6771 255.585 51.4578 255.585 51.4578C255.127 53.1777 258.234 54.0376 258.234 54.0376C259.055 54.3066 259.897 54.5062 260.752 54.6342C261.63 54.7538 262.522 54.6985 263.378 54.4715C264.741 54.2811 266.093 54.0225 267.43 53.6967C267.57 48.8004 266.408 42.1842 264.052 35.0334C262.635 35.8469 261.17 36.6681 259.629 37.4583H259.613ZM225.447 43.0597C224.578 42.7152 223.754 42.2678 222.991 41.7271C224.781 46.0933 227.563 49.9822 231.118 53.0847C232.947 54.1076 234.978 54.7159 237.068 54.8666H237.316C234.272 51.7153 231.746 48.1015 229.832 44.1598C228.331 43.9733 226.859 43.6039 225.447 43.0597V43.0597ZM264.874 34.4756C267.322 41.7658 268.515 48.4208 268.399 53.4101C269.429 53.1389 270.537 52.8058 271.66 52.3952C271.66 52.3952 271.591 52.4804 271.451 52.6199C273.898 50.3863 275.965 47.7697 277.571 44.8725C278.754 38.2322 278.145 31.3965 275.805 25.0703C272.705 28.7872 269.011 31.9653 264.874 34.4756V34.4756ZM229.36 43.1449C229.205 42.8117 229.05 42.4786 228.903 42.1377C226.222 36.006 225.083 29.3109 225.587 22.6377C224.281 22.1679 223.183 21.2513 222.488 20.0501C220.205 26.4323 220.123 33.3949 222.256 39.829C223.216 40.8884 224.417 41.7014 225.757 42.1997C226.92 42.6461 228.128 42.963 229.36 43.1449V43.1449ZM233.969 6.10487C234.52 6.36053 237.495 6.10487 240.702 4.76458C243.909 3.42429 245.955 1.74312 246.326 0.836682C246.361 0.733574 246.361 0.622149 246.326 0.519041C246.293 0.460259 246.241 0.414007 246.179 0.387337C241.616 1.14663 237.286 2.93789 233.52 5.62453C233.52 5.62453 233.412 5.85695 233.969 6.10487ZM245.59 3.00594C248.759 5.33014 252.152 9.30452 255.36 14.3325C258.947 11.8069 261.558 9.08759 262.728 6.5852C257.986 2.9517 252.61 0.828935 247.248 0.774703C247.238 0.912184 247.209 1.04767 247.163 1.17756C246.789 1.89724 246.25 2.51838 245.59 2.99044V3.00594ZM225.68 21.6925C226.203 16.2191 228.378 11.0341 231.916 6.82537C227.982 10.0213 224.91 14.1526 222.984 18.8415C223.019 19.0199 223.065 19.1959 223.123 19.3683C223.65 20.4389 224.564 21.2696 225.68 21.6925ZM235.984 22.3045C234.551 16.3701 234.078 11.0942 234.698 7.19724C234.324 7.18027 233.955 7.10445 233.605 6.97257C233.458 6.90916 233.32 6.82574 233.195 6.72466C229.461 10.6371 227.222 16.0215 226.563 22.0024C228.972 22.8004 232.265 22.8624 235.984 22.2658V22.3045Z" fill="#005187"/>
</svg>
