<svg width="121" height="117" viewBox="0 0 121 117" fill="none" xmlns="http://www.w3.org/2000/svg">
<path d="M106.919 42.7576C107.25 43.5307 107.56 44.3038 107.869 45.0769C111.427 40.0088 113.271 35.0553 112.954 30.7173C106.637 19.4336 96.8084 10.4895 84.9439 5.22651C84.6015 7.34764 83.8534 9.38392 82.7399 11.2252C92.7153 18.7701 101.286 29.6722 106.919 42.7576ZM65.6629 27.3243C61.1775 30.1438 56.4683 32.5953 51.5821 34.6544C45.1021 37.4435 38.3209 39.4827 31.372 40.7318C33.4784 49.7815 36.3405 58.6408 39.9285 67.2177C42.9646 66.9322 46.0253 67.0429 49.0324 67.5469C49.6999 67.7073 50.3961 67.7073 51.0635 67.5469C51.0635 67.5469 53.8869 66.4947 54.9096 66.0222C55.1186 65.9393 55.3062 65.8107 55.4583 65.6459C55.6104 65.481 55.7232 65.2843 55.7883 65.0702C56.0715 63.6785 56.0959 62.2471 55.8604 60.8468C55.8604 60.8468 54.8376 57.2676 54.1822 55.3563C53.5835 54.9759 53.1593 54.3769 53.001 53.6884C53.001 53.6884 52.1367 51.1114 51.9782 50.7106C51.9782 50.7106 51.8342 49.5151 52.4968 49.601C52.4968 49.601 51.6109 46.9739 52.2015 44.9839C52.2015 44.9839 53.5916 39.2572 56.3789 37.2672C56.3789 37.2672 58.9718 35.7425 61.4207 35.9501C62.9656 36.0703 64.4665 36.5196 65.8214 37.2672C68.6015 39.2572 69.9916 44.9839 69.9916 44.9839C70.5822 46.9739 69.6963 49.601 69.6963 49.601C70.3589 49.5151 70.2148 50.7106 70.2148 50.7106C70.0636 51.1114 69.1921 53.6526 69.1921 53.6526C69.0268 54.3458 68.5916 54.9456 67.9821 55.3205C67.3411 57.2676 66.3183 60.8468 66.3183 60.8468C66.0828 62.2471 66.1072 63.6785 66.3903 65.0702C66.4593 65.277 66.5731 65.4662 66.7237 65.6245C66.8743 65.7828 67.058 65.9064 67.2618 65.9864C68.2846 66.4589 71.1079 67.5112 71.1079 67.5112C71.7754 67.6715 72.4716 67.6715 73.139 67.5112C76.0173 67.0283 78.9451 66.9056 81.854 67.1461C82.6607 66.6736 83.4601 66.2083 84.238 65.7144C82.7975 61.5483 81.1698 57.3105 79.3331 53.0442C75.5225 44.0992 70.9491 35.4946 65.6629 27.3243ZM47.3111 6.65818C44.9791 8.23334 42.4938 9.57152 39.8925 10.6525C36.5489 12.1553 32.9967 13.1495 29.3554 13.6018C28.2174 20.1731 28.8728 29.1926 31.0623 39.3718C37.9249 38.1345 44.6216 36.1169 51.0203 33.3588C55.8253 31.3244 60.453 28.899 64.8562 26.1074C59.0366 17.4315 52.965 10.6311 47.3111 6.65818ZM106.875 46.4585C106.472 45.4134 106.047 44.3611 105.6 43.3232C100.091 30.5169 91.7286 19.8438 82.0053 12.4493C78.9442 17.1523 73.7152 22.0629 66.8801 26.5512C72.2158 34.8041 76.8325 43.4949 80.68 52.5288C82.4806 56.7164 84.0868 60.8825 85.5056 64.9843C94.7104 59.1932 102.078 52.7507 106.875 46.4585ZM11.983 40.5171C10.4389 50.3149 11.319 60.3391 14.5471 69.7231L15.9876 69.5584C18.0691 69.3508 21.2382 69.2578 21.2382 69.2578C23.7158 69.2578 28.1453 69.401 28.1453 69.401C30.246 69.3573 32.3324 69.047 34.3539 68.4775C35.6772 67.9745 37.0512 67.6146 38.452 67.4038C34.8744 58.8428 32.0126 50.0033 29.8955 40.9752C22.938 42.0275 16.7006 41.9058 11.983 40.5171ZM115.763 36.401C115.309 35.3345 114.82 34.2965 114.323 33.2729C113.869 37.439 111.823 41.9702 108.46 46.573C111.343 54.1974 113.043 62.2134 113.502 70.3459C115.51 70.7319 117.544 70.9712 119.588 71.0617C121.81 59.3872 120.478 47.3194 115.763 36.401V36.401ZM85.9882 66.3587L86.7085 68.0767C87.0974 68.1984 87.4863 68.3272 87.868 68.4775C89.8716 69.0549 91.9409 69.3772 94.0261 69.4367C94.0261 69.4367 98.4557 69.3222 100.926 69.2936C100.926 69.2936 104.102 69.3866 106.177 69.5942C106.177 69.5942 109.259 69.9521 112.061 70.2242C112.364 65.5856 111.154 58.3127 107.408 47.9832C102.46 54.2468 95.0777 60.632 85.9882 66.3587ZM10.7658 38.5843H10.8307C12.3504 29.4861 15.8003 21.2469 21.1013 14.6397C14.6192 20.2699 9.43558 27.2238 5.90418 35.0266C7.14149 36.6578 8.83122 37.8944 10.7658 38.5843V38.5843ZM83.5538 4.63237C74.9673 1.05641 65.6607 -0.482731 56.3717 0.136941C65.1011 1.11047 73.744 4.70396 81.5875 10.359C82.6396 8.60824 83.3095 6.65714 83.5538 4.63237V4.63237ZM10.593 40.0876L10.2256 39.9516C8.30945 39.2274 6.6025 38.0448 5.25596 36.5084C1.28021 45.9646 -0.0522466 59.9734 1.8564 71.0832C4.26163 71.0273 6.65726 70.7614 9.01564 70.2886C10.3409 70.1669 11.839 70.0166 13.1066 69.8806C9.72868 59.1932 9.31814 51.0398 10.593 40.0876ZM29.593 39.6151C27.4323 29.4575 26.7625 20.4451 27.8788 13.6662C27.116 13.6741 26.3577 13.5481 25.6389 13.294C25.3119 13.1549 25.0157 12.953 24.7674 12.6998C18.1339 19.5718 13.9133 28.7631 12.2279 39.0783C16.7295 40.4741 22.7867 40.6101 29.593 39.5793V39.6151ZM48.5355 5.76339C54.2038 9.86511 60.2611 16.6942 66.059 25.3343C72.7429 20.9247 77.8927 16.1143 80.8385 11.5831C71.9218 5.11914 61.932 1.4326 51.9782 1.30375C51.9158 1.61167 51.8191 1.91177 51.6901 2.19854C50.9427 3.62191 49.8605 4.84485 48.5355 5.76339V5.76339ZM26.2079 11.9267C28.0157 12.6425 33.1222 11.9911 39.3812 9.32824C42.1883 8.17502 44.8477 6.69483 47.3039 4.91871V4.91871C48.9676 3.666 50.0264 2.52782 50.3649 1.6903C50.4746 1.46803 50.5002 1.21393 50.4369 0.974466C50.4175 0.946506 50.3958 0.92017 50.3721 0.895724C45.7547 1.66103 41.2438 2.96324 36.9323 4.77554C32.9206 6.48664 29.1074 8.62517 25.5597 11.1536C25.5328 11.2569 25.5328 11.3653 25.5597 11.4686C25.6301 11.5852 25.7241 11.6861 25.8357 11.7649C25.9472 11.8437 26.0739 11.8988 26.2079 11.9267V11.9267Z" fill="#006397"/>
<path d="M45.7632 94.9052C45.2447 90.3453 44.51 83.5879 44.51 83.5879C44.0554 81.5751 42.8544 79.8064 41.1465 78.6343C39.8644 77.7323 36.0183 78.0115 36.0183 78.0115C31.7329 78.7274 26.5687 77.5391 26.5687 77.5391C25.9133 77.3028 23.0539 76.8232 23.0539 76.8232C20.9581 76.6688 18.8803 76.3286 16.8454 75.8068C15.8521 75.6498 14.8478 75.5708 13.842 75.5705C12.6819 75.7478 11.5137 75.8673 10.3416 75.9284C7.96176 76.3188 5.55062 76.489 3.13915 76.4367C5.24227 82.1634 12.5023 99.0141 27.1233 106.774L28.0668 104.454L33.1734 110.296L25.4379 110.883L26.5183 108.091C11.7245 100.324 4.26273 83.6451 1.89313 77.3458V116.216H45.4895C46.1234 114.154 47.0093 111.691 47.0093 111.691C47.7295 109.544 47.2974 106.43 47.2974 106.43C46.6419 104.512 45.7632 94.9052 45.7632 94.9052ZM110.585 75.9284C109.411 75.8674 108.24 75.7479 107.078 75.5705C106.072 75.5708 105.068 75.6498 104.074 75.8068C102.033 76.3347 99.9477 76.6797 97.8442 76.8375C97.8442 76.8375 94.9632 77.3028 94.3366 77.5534C94.3366 77.5534 89.1724 78.7345 84.8869 78.0258C84.8869 78.0258 81.0408 77.7467 79.7516 78.6486C78.0462 79.8233 76.846 81.5908 76.3881 83.6022C76.3881 83.6022 75.6678 90.3596 75.1348 94.9195C75.1348 94.9195 74.2633 104.497 73.6079 106.466C73.6079 106.466 73.1614 109.608 73.896 111.727C73.896 111.727 74.7747 114.19 75.4157 116.251H81.7179C82.9351 115.822 84.1379 115.364 85.3191 114.855C95.3465 110.618 104.001 103.709 110.326 94.8909L107.445 93.3447L114.936 88.1692L114.647 97.1958L111.622 95.5781C105.133 104.679 96.2291 111.811 85.9025 116.18L85.7296 116.251H119.624V76.4152C116.603 76.5514 113.575 76.3883 110.585 75.9284V75.9284Z" fill="#B67A00"/>
</svg>
